<?xml version="1.0" standalone="no"?>
<!DOCTYPE svg PUBLIC "-//W3C//DTD SVG 20010904//EN"
 "http://www.w3.org/TR/2001/REC-SVG-20010904/DTD/svg10.dtd">
<svg version="1.0" xmlns="http://www.w3.org/2000/svg"
 width="512.000000pt" height="512.000000pt" viewBox="0 0 512.000000 512.000000"
 preserveAspectRatio="xMidYMid meet">

<g transform="translate(0.000000,512.000000) scale(0.100000,-0.100000)"
fill="#000000" stroke="none">
<path d="M3188 2983 c-3 -423 3 -394 -104 -499 -97 -96 -104 -111 -104 -227 0
-85 3 -103 21 -125 19 -24 20 -38 18 -144 l-3 -118 71 -73 c39 -39 76 -83 83
-96 7 -14 15 -76 18 -138 l5 -113 28 0 c38 0 69 -32 69 -71 0 -46 -16 -67 -60
-80 l-40 -12 0 -114 0 -113 150 0 150 0 0 363 c0 428 4 412 -124 537 l-76 74
0 111 0 111 76 74 c45 45 86 95 100 125 l24 50 0 423 0 422 -149 0 -150 0 -3
-367z"/>
</g>
</svg>
