<?xml version="1.0" standalone="no"?>
<!DOCTYPE svg PUBLIC "-//W3C//DTD SVG 20010904//EN"
 "http://www.w3.org/TR/2001/REC-SVG-20010904/DTD/svg10.dtd">
<svg version="1.0" xmlns="http://www.w3.org/2000/svg"
 width="626.000000pt" height="501.000000pt" viewBox="0 0 626.000000 501.000000"
 preserveAspectRatio="xMidYMid meet">

<g transform="translate(0.000000,501.000000) scale(0.100000,-0.100000)"
fill="#000000" stroke="none">
<path d="M1242 4259 c-76 -38 -141 -141 -178 -284 -26 -99 -26 -341 0 -440 38
-144 103 -247 179 -284 39 -19 61 -21 242 -21 181 0 203 2 242 21 97 47 171
193 198 392 6 43 8 47 34 47 24 0 30 -6 39 -38 7 -21 23 -49 37 -62 17 -16 23
-30 19 -46 -4 -16 0 -25 15 -34 18 -9 21 -20 21 -74 0 -212 91 -396 238 -478
l52 -30 -6 -348 -7 -348 27 -27 27 -27 134 7 c74 4 138 4 144 1 5 -4 -5 -28
-25 -57 -49 -73 -67 -145 -62 -238 3 -42 7 -82 9 -90 2 -8 -8 -18 -26 -24 -47
-15 -67 -38 -61 -68 5 -25 2 -27 -37 -33 -94 -15 -155 -76 -183 -179 -23 -88
-19 -122 19 -150 98 -75 305 -76 427 -5 19 12 57 42 83 67 l48 46 -3 112 c-1
61 1 115 5 119 15 15 6 53 -18 72 -14 11 -45 23 -70 26 -41 7 -45 10 -55 44
-31 112 2 218 96 308 l57 54 227 0 227 0 57 -54 c93 -90 127 -196 96 -307 -9
-32 -14 -37 -62 -48 -29 -6 -60 -19 -70 -28 -18 -16 -24 -54 -11 -67 4 -4 6
-58 4 -119 l-3 -112 37 -38 c81 -84 188 -127 315 -127 90 0 177 25 218 62 22
21 24 28 18 88 -12 130 -85 220 -192 236 -40 6 -43 8 -38 33 6 30 -13 53 -61
68 -18 6 -28 16 -26 24 2 8 6 46 9 85 6 90 -10 157 -54 230 -19 31 -34 58 -34
60 0 2 63 4 140 4 135 0 142 1 165 24 l24 24 -6 349 -6 349 54 31 c148 83 239
266 239 479 0 54 3 65 21 74 15 9 19 18 15 34 -4 16 2 30 19 46 14 13 30 41
37 62 9 32 15 38 39 38 26 0 28 -4 34 -47 28 -202 100 -345 198 -392 40 -19
61 -21 244 -21 190 0 202 1 244 23 78 41 134 133 177 292 23 84 23 336 0 420
-43 159 -99 251 -177 292 -42 22 -54 23 -244 23 -183 0 -204 -2 -244 -21 -97
-47 -171 -193 -198 -391 -6 -46 -7 -48 -40 -48 -27 0 -34 5 -39 25 -8 33 -48
52 -78 38 -16 -7 -29 -6 -49 6 -24 13 -29 13 -51 -1 -16 -11 -30 -13 -39 -7
-35 22 -89 -4 -89 -44 0 -16 -60 -17 -820 -17 -790 0 -820 1 -820 18 0 39 -54
65 -89 43 -8 -5 -24 -3 -41 7 -25 14 -30 14 -51 0 -18 -11 -30 -13 -47 -5 -30
14 -70 -5 -78 -38 -5 -20 -12 -25 -39 -25 -33 0 -34 2 -40 48 -27 198 -101
344 -198 391 -40 19 -61 21 -243 21 -182 0 -203 -2 -242 -21z m840 -393 c10
-9 12 -29 8 -67 -5 -50 -7 -54 -32 -57 -23 -3 -30 2 -39 25 -24 65 23 140 63
99z m107 0 c7 -8 11 -32 9 -53 -2 -32 -7 -39 -28 -41 -14 -2 -30 -8 -36 -13
-6 -5 -14 -6 -17 -2 -12 11 -8 98 5 111 16 16 53 15 67 -2z m89 -2 c17 -12 22
-25 22 -59 0 -52 -9 -60 -55 -45 -32 11 -35 15 -35 50 0 35 19 70 38 70 4 0
18 -7 30 -16z m1756 0 c9 -9 16 -32 16 -54 0 -35 -3 -39 -35 -50 -46 -15 -55
-7 -55 45 0 34 5 47 22 59 28 20 33 20 52 0z m104 4 c7 -7 12 -34 12 -60 l0
-49 -37 7 c-21 4 -41 9 -45 11 -12 6 -10 61 2 84 12 21 50 25 68 7z m82 2 c24
-13 35 -66 21 -103 -9 -23 -16 -28 -39 -25 -25 3 -27 7 -32 57 -4 38 -2 58 8
67 16 17 18 17 42 4z m-2216 -99 c15 -46 37 -59 76 -44 25 9 30 9 30 -3 0 -12
-36 -14 -209 -14 -225 0 -221 -1 -221 54 0 43 16 47 168 44 l144 -3 12 -34z
m676 29 c0 -4 -19 -17 -42 -28 -24 -11 -52 -29 -62 -41 -17 -19 -30 -21 -142
-21 -69 0 -125 4 -129 10 -3 5 -1 28 5 50 l11 41 180 -2 c98 -1 179 -5 179 -9z
m1270 -31 c6 -21 8 -44 5 -49 -8 -13 -1105 -14 -1105 -1 0 5 -16 26 -35 47
-19 20 -35 38 -35 41 0 2 261 3 580 3 l579 -1 11 -40z m618 29 c13 -13 16 -47
6 -72 -5 -14 -34 -16 -215 -16 -179 0 -209 2 -209 15 0 8 5 15 10 15 6 0 10
-5 10 -11 0 -6 14 -9 32 -7 32 3 47 21 62 71 5 15 21 17 149 17 98 0 147 -4
155 -12z m-2298 -67 c36 -27 34 -90 -5 -131 -16 -16 -37 -32 -47 -36 -25 -7
-23 -23 2 -17 14 4 20 0 20 -10 0 -18 -69 -41 -98 -33 -9 2 -29 7 -44 10 -19
4 -28 13 -28 26 0 17 4 18 25 10 36 -14 31 5 -6 20 -33 14 -73 62 -82 98 -5
21 -2 22 51 22 66 -1 92 -16 93 -56 1 -29 1 -29 8 -4 6 21 14 26 51 30 l45 5
-53 7 c-29 4 -57 10 -62 13 -14 9 -12 49 3 64 16 17 95 6 127 -18z m1848 17
c15 -15 16 -55 1 -64 -6 -3 -34 -10 -63 -14 l-51 -8 43 -1 c23 0 43 -5 43 -11
1 -5 2 -14 3 -19 3 -24 16 -21 16 4 0 39 26 54 92 55 53 0 56 -1 51 -22 -9
-36 -49 -84 -82 -98 -37 -15 -42 -34 -6 -20 21 8 25 7 25 -10 0 -18 -6 -22
-63 -34 -39 -9 -107 11 -107 31 0 10 6 14 20 10 31 -8 24 6 -13 26 -62 33 -88
115 -48 151 35 32 117 46 139 24z m-1728 -67 c0 -6 -4 -12 -10 -16 -5 -3 -7
-115 -3 -295 4 -199 3 -290 -4 -290 -19 0 -85 81 -109 135 -29 63 -44 138 -44
221 0 53 3 65 20 74 11 6 20 20 20 31 0 12 9 32 20 46 11 14 25 43 30 64 10
36 14 39 45 39 19 0 35 -4 35 -9z m153 -53 c3 -48 0 -74 -14 -107 -11 -24 -17
-46 -14 -49 2 -3 26 4 51 15 36 16 54 19 77 12 19 -5 46 -5 71 2 41 11 96 58
96 82 0 8 6 20 14 26 8 7 17 25 21 40 l6 28 491 7 c429 5 493 4 508 -9 15 -14
16 -76 16 -735 -1 -629 -3 -722 -16 -730 -21 -14 -1415 -13 -1441 0 -19 10
-19 29 -19 727 0 820 -8 753 90 753 l58 0 5 -62z m1407 23 c5 -21 19 -50 30
-64 11 -14 20 -34 20 -46 0 -11 10 -25 21 -32 21 -11 21 -17 16 -108 -8 -141
-60 -260 -136 -310 l-24 -16 6 292 c4 186 3 294 -3 298 -21 13 -9 25 25 25 31
0 35 -3 45 -39z m-1376 -138 c-27 -20 -35 -16 -22 12 9 20 14 23 25 13 13 -10
12 -14 -3 -25z m298 -2020 c-5 -43 -27 -72 -90 -115 -120 -83 -317 -95 -429
-26 -28 17 -33 25 -33 58 l0 39 51 -27 c69 -35 209 -43 290 -17 61 20 156 74
184 105 26 29 32 25 27 -17z m543 17 c29 -32 107 -78 171 -101 87 -30 230 -24
302 13 l52 27 0 -39 c0 -33 -5 -41 -32 -58 -116 -70 -309 -58 -430 26 -63 43
-85 72 -90 115 -5 42 1 46 27 17z"/>
<path d="M2821 3456 c-20 -24 0 -42 54 -49 43 -6 96 -29 141 -62 18 -13 23
-13 40 -1 28 22 10 45 -67 84 -78 40 -149 51 -168 28z"/>
<path d="M3323 3451 c-71 -24 -135 -68 -131 -89 5 -27 42 -25 83 2 39 27 94
46 131 46 31 0 50 26 34 45 -16 20 -53 19 -117 -4z"/>
<path d="M2860 3262 c-71 -70 -73 -170 -7 -240 97 -101 247 -28 247 119 0 95
-61 159 -150 159 -47 0 -56 -4 -90 -38z m158 8 c46 -28 76 -98 67 -155 -15
-106 -130 -161 -205 -99 -78 66 -82 174 -8 240 43 40 96 44 146 14z"/>
<path d="M2946 3202 c-2 -4 -1 -14 4 -22 11 -17 2 -40 -16 -40 -20 0 -17 -34
4 -53 26 -23 58 -21 76 5 32 46 8 118 -39 118 -13 0 -26 -4 -29 -8z"/>
<path d="M3230 3278 c-51 -35 -72 -82 -67 -151 5 -90 62 -150 140 -150 74 0
131 51 151 136 11 45 -12 108 -54 149 -33 34 -43 38 -87 38 -35 0 -60 -7 -83
-22z m157 -19 c53 -50 69 -129 38 -188 -49 -95 -159 -107 -224 -25 -50 63 -28
181 41 224 43 27 109 22 145 -11z"/>
<path d="M3246 3188 c-47 -66 25 -158 77 -100 21 23 22 52 3 52 -18 0 -27 23
-16 40 22 35 -40 42 -64 8z"/>
<path d="M3087 2960 c-86 -16 -171 -112 -151 -169 12 -33 40 -38 101 -17 59
20 128 20 183 1 63 -22 88 -19 102 11 10 22 9 33 -12 72 -41 77 -134 120 -223
102z m116 -24 c32 -13 102 -75 94 -82 -2 -2 -23 2 -46 11 -89 31 -176 28 -275
-11 -19 -7 -19 -6 2 23 44 63 151 91 225 59z m55 -91 c44 -20 53 -29 50 -47
-4 -27 -15 -27 -110 -3 -65 17 -71 17 -135 0 -95 -24 -107 -24 -111 2 -2 16 5
26 30 39 51 27 78 32 153 33 55 1 82 -5 123 -24z"/>
</g>
</svg>
