<?xml version="1.0" standalone="no"?>
<!DOCTYPE svg PUBLIC "-//W3C//DTD SVG 20010904//EN"
 "http://www.w3.org/TR/2001/REC-SVG-20010904/DTD/svg10.dtd">
<svg version="1.0" xmlns="http://www.w3.org/2000/svg"
 width="996.000000pt" height="415.000000pt" viewBox="0 0 996.000000 415.000000"
 preserveAspectRatio="xMidYMid meet">

<g transform="translate(0.000000,415.000000) scale(0.100000,-0.100000)"
fill="#000000" stroke="none">
<path d="M2632 1985 c29 -69 48 -142 48 -190 0 -51 -30 -115 -65 -143 -56 -44
-154 -15 -156 46 -1 54 -27 -39 -28 -101 -2 -157 132 -288 221 -217 36 28 84
106 109 176 16 47 20 77 17 150 -3 79 -8 100 -36 155 -18 35 -55 89 -82 119
l-50 55 22 -50z m88 -144 c24 -47 41 -147 33 -198 -16 -117 -102 -252 -160
-253 -66 -1 -141 127 -135 228 2 22 3 22 24 8 26 -18 96 -21 130 -5 69 31 106
163 72 254 -13 33 15 6 36 -34z"/>
<path d="M8970 1974 c15 -38 -1 -84 -61 -175 -65 -99 -67 -133 -18 -240 61
-133 45 -182 -97 -288 -172 -128 -179 -176 -55 -342 33 -44 65 -96 72 -117 33
-111 -78 -217 -191 -183 -66 20 -108 80 -195 283 -70 162 -80 191 -83 256 -2
39 -7 72 -11 72 -18 0 -53 -35 -71 -70 -27 -53 -26 -126 5 -252 14 -57 25
-116 25 -133 0 -123 -107 -220 -219 -200 -82 15 -120 74 -121 190 l-1 70 -15
-39 c-23 -62 -60 -104 -105 -118 -35 -10 -45 -9 -74 6 -90 49 -84 161 16 293
112 149 117 223 22 340 -47 59 -76 128 -69 165 8 38 -11 27 -30 -18 -18 -42
-17 -101 1 -184 30 -135 13 -250 -51 -345 -115 -174 -365 -189 -465 -29 -16
26 -25 59 -28 108 l-6 71 -19 -28 c-29 -42 -31 -103 -7 -190 25 -90 27 -166 6
-206 -32 -63 -149 -132 -197 -117 -7 2 -25 7 -40 10 -37 8 -95 61 -119 108
-25 48 -27 121 -5 172 9 21 47 79 85 130 75 98 102 151 120 234 23 107 9 213
-40 318 -37 79 -61 102 -46 44 21 -76 -36 -140 -98 -112 -26 12 -174 294 -194
370 -14 51 -3 103 31 140 l23 24 -25 -7 c-91 -27 -151 -90 -169 -176 -15 -69
-1 -125 59 -229 27 -47 54 -107 61 -133 41 -165 -82 -326 -233 -303 -78 12
-148 89 -148 163 0 40 42 124 85 172 42 46 39 51 -11 20 -55 -33 -110 -104
-129 -165 -25 -78 -16 -139 30 -227 90 -170 97 -185 102 -244 19 -212 -186
-365 -341 -256 -64 46 -79 88 -87 239 -7 130 -27 209 -58 228 -8 5 -8 0 0 -18
9 -19 9 -32 -1 -56 -31 -76 -134 -70 -175 10 -25 49 -88 286 -88 332 -1 46 -2
47 -21 34 -12 -7 -34 -35 -51 -61 -28 -45 -30 -54 -29 -144 1 -68 8 -126 27
-201 47 -183 32 -287 -49 -359 -58 -51 -106 -60 -168 -33 -54 24 -71 54 -86
148 -6 37 -16 74 -22 81 -14 17 -43 16 -58 -2 -19 -23 -68 -18 -95 10 -42 41
-29 81 51 168 31 33 60 71 65 84 25 66 -1 168 -64 251 l-25 33 -7 -56 c-11
-88 -80 -154 -150 -141 -36 7 -72 41 -75 71 -5 46 3 60 68 124 67 66 92 112
92 173 0 63 -49 146 -101 174 l-30 15 18 -27 c13 -21 18 -48 18 -104 0 -67 -3
-82 -28 -119 -15 -23 -49 -55 -75 -72 -49 -31 -81 -77 -82 -118 0 -13 13 -38
29 -57 61 -69 59 -135 -7 -234 -52 -78 -58 -109 -37 -203 25 -114 8 -170 -65
-207 -69 -35 -156 -19 -200 38 -29 36 -25 93 15 207 19 55 35 113 35 128 0 37
-27 94 -54 112 -32 23 -37 18 -16 -17 13 -21 20 -51 20 -82 0 -41 -5 -53 -34
-82 -30 -30 -41 -34 -84 -34 -65 0 -112 31 -132 88 -13 37 -12 50 5 129 39
178 30 224 -54 291 -98 79 -149 136 -161 182 -22 81 9 173 77 229 l38 31 -32
0 c-76 0 -170 -66 -209 -147 -41 -82 -38 -145 11 -293 49 -151 56 -237 23
-300 -25 -49 -58 -67 -102 -56 -36 9 -68 62 -60 99 6 27 4 28 -17 22 -45 -13
-67 -34 -85 -81 -16 -41 -16 -56 -6 -128 23 -160 9 -239 -54 -298 -100 -93
-254 -42 -254 85 0 21 21 77 54 145 60 121 80 183 71 212 -6 17 -9 16 -37 -16
-35 -39 -76 -64 -108 -64 -20 0 -18 4 14 41 75 88 71 206 -12 359 -117 217
-127 238 -130 316 -2 40 1 88 7 106 l11 33 -20 -25 c-41 -50 -81 -149 -92
-227 -10 -70 -9 -92 12 -201 12 -68 20 -141 18 -165 -14 -121 -101 -187 -187
-143 l-27 15 13 -62 c35 -170 -11 -292 -129 -342 -127 -52 -292 32 -329 168
-11 41 -8 123 6 162 6 17 5 18 -7 5 -32 -36 -46 -42 -70 -29 -35 18 -38 28
-31 104 7 88 -17 220 -58 318 -16 40 -27 59 -24 42 41 -252 23 -394 -68 -544
-19 -31 -46 -79 -60 -107 -36 -71 -81 -114 -119 -114 -17 0 -51 12 -76 26 -67
39 -104 36 -155 -13 -58 -56 -77 -64 -119 -53 -77 22 -122 106 -137 258 -16
151 -28 190 -79 245 -31 32 -41 33 -84 7 -85 -52 -206 0 -224 96 -8 46 19 116
57 148 36 31 36 36 2 36 -77 -1 -171 -84 -198 -174 -9 -29 -15 -92 -15 -150
-1 -212 -30 -310 -111 -380 -93 -79 -199 -55 -255 60 -40 83 -38 161 10 284
82 209 90 239 90 340 0 108 -19 186 -66 268 -34 59 -42 66 -26 21 16 -45 4
-140 -25 -203 -30 -66 -54 -97 -169 -230 -98 -112 -141 -185 -158 -269 -13
-66 -5 -120 41 -261 33 -101 38 -201 14 -259 -29 -71 -125 -127 -214 -127 -30
0 -31 -1 -31 -46 l0 -47 74 6 c188 16 266 111 253 307 -4 47 -14 110 -22 140
-54 182 -56 195 -50 254 9 83 47 152 170 307 59 74 113 146 121 161 22 43 27
34 20 -37 -6 -62 -29 -136 -92 -305 -25 -65 -29 -89 -29 -185 0 -100 3 -115
27 -165 35 -71 63 -102 115 -129 53 -26 133 -28 188 -2 56 25 118 99 150 179
25 61 28 84 36 247 9 214 14 237 40 170 23 -60 42 -81 101 -111 55 -28 130
-32 183 -10 27 12 36 12 44 2 16 -19 39 -123 46 -211 14 -178 77 -291 180
-325 36 -12 113 -7 125 8 3 4 26 26 51 50 l46 43 49 -30 c62 -40 136 -43 180
-9 47 37 61 57 118 173 56 113 86 212 86 280 0 55 8 39 16 -30 9 -86 18 -105
52 -105 l29 0 5 -88 c6 -93 18 -126 65 -177 43 -47 83 -72 147 -90 131 -38
277 27 334 148 28 59 45 153 39 208 l-6 46 40 12 c55 17 103 62 128 122 38 87
38 127 1 352 -7 37 -10 72 -8 77 5 15 146 -269 153 -309 4 -18 4 -58 0 -90 -6
-48 -13 -61 -45 -91 -37 -34 -44 -50 -41 -98 1 -25 54 -63 86 -61 34 2 36 0
21 -24 -28 -42 -66 -158 -66 -200 1 -81 65 -174 138 -198 20 -6 61 -9 93 -6
86 8 143 51 189 142 32 63 35 77 35 155 0 47 -4 118 -9 158 l-9 72 32 -29 c56
-52 145 -53 199 -3 16 15 39 54 51 87 31 82 25 180 -22 330 -37 119 -57 232
-38 221 6 -4 11 -17 11 -29 1 -51 43 -114 141 -207 110 -106 111 -108 88 -221
-21 -108 -27 -179 -17 -221 21 -95 97 -160 189 -161 l47 -1 -2 -85 c-1 -77 2
-90 24 -121 50 -71 104 -100 184 -100 88 1 174 58 206 138 12 31 10 128 -6
239 -5 38 -1 51 40 120 26 43 49 95 53 116 l6 37 46 -6 c56 -7 101 9 154 56
l37 32 0 -42 c0 -36 -7 -50 -54 -103 -72 -83 -86 -114 -86 -186 0 -53 4 -65
30 -95 34 -39 87 -60 130 -54 31 5 40 -6 40 -47 0 -40 36 -109 74 -142 106
-94 268 -52 339 89 42 81 45 153 14 308 -30 148 -45 301 -28 285 6 -6 16 -37
22 -70 33 -182 109 -267 224 -252 l42 6 5 -97 c8 -155 61 -244 171 -291 130
-56 289 14 353 153 58 127 54 257 -11 387 -19 39 -35 72 -35 73 0 2 19 -3 43
-11 50 -18 136 -12 186 13 86 43 156 151 167 260 9 91 -9 166 -71 287 -49 93
-56 114 -53 155 l3 47 14 -40 c8 -22 50 -113 93 -202 91 -185 113 -209 191
-201 23 3 49 8 58 12 20 9 29 -18 29 -90 0 -120 -33 -207 -126 -334 -85 -114
-99 -150 -99 -250 0 -100 20 -151 83 -216 57 -57 104 -78 177 -78 141 1 264
129 265 277 1 41 1 42 18 21 27 -32 110 -93 150 -109 48 -21 101 -19 139 5 36
21 93 94 94 119 0 9 9 -9 20 -39 20 -57 57 -103 101 -126 35 -18 101 -18 138
1 28 15 28 14 55 -30 35 -60 90 -88 170 -88 183 -1 293 162 252 373 -8 41 -14
76 -12 78 1 1 17 -35 35 -80 75 -188 132 -278 200 -312 80 -41 184 -22 245 45
50 55 65 96 65 172 0 52 -6 75 -31 122 -17 32 -35 63 -39 69 -5 6 -22 27 -37
46 -42 52 -56 85 -49 113 3 14 36 52 73 84 129 112 169 157 186 208 10 27 17
62 17 78 0 29 0 30 20 12 41 -37 22 -100 -65 -210 -71 -91 -88 -127 -93 -203
-5 -73 8 -134 49 -220 39 -81 84 -112 163 -112 30 0 58 5 61 10 9 14 35 12 35
-2 0 -30 60 -136 94 -165 50 -44 84 -61 142 -68 134 -18 248 81 248 215 0 42
-7 72 -33 125 -46 97 -52 120 -36 141 14 20 16 16 30 -52 10 -52 81 -102 126
-89 11 3 27 7 38 10 15 5 22 -7 42 -67 37 -113 34 -243 -10 -367 -35 -102 -36
-131 -5 -197 19 -41 94 -94 131 -94 21 0 23 4 23 58 0 57 -1 58 -35 71 -43 15
-75 55 -75 93 0 16 11 55 25 88 56 134 53 259 -10 434 -37 101 -45 178 -25
233 10 27 9 27 -6 8 -27 -33 -54 -98 -54 -131 0 -54 -60 -85 -91 -48 -22 27
-15 84 19 161 38 84 40 121 10 174 -24 42 -85 79 -132 79 l-28 0 31 -25 c16
-14 37 -46 47 -71 24 -63 9 -105 -66 -188 -76 -84 -79 -112 -19 -224 34 -64
40 -84 36 -116 -14 -100 -122 -154 -225 -111 -51 22 -81 52 -108 110 -41 88
-30 151 50 284 51 83 62 134 41 188 -15 37 -39 63 -60 63 -3 0 -3 -19 0 -43 8
-54 -10 -100 -67 -174 -28 -37 -46 -75 -60 -126 -21 -80 -44 -107 -90 -107
-48 0 -83 33 -113 107 -49 123 -38 179 61 294 82 95 99 134 95 217 -1 14 -29
50 -76 95 -71 70 -75 76 -75 119 0 33 11 66 45 130 28 54 45 99 45 121 0 43
-33 87 -65 87 -22 0 -24 -2 -15 -26z m-4086 -459 c-10 -61 -29 -91 -88 -135
-54 -41 -76 -74 -76 -112 0 -17 -3 -19 -12 -10 -23 23 8 86 67 137 62 53 81
83 91 145 5 29 10 37 16 28 4 -7 5 -31 2 -53z"/>
<path d="M5861 1807 c-18 -23 -41 -85 -41 -114 0 -15 16 -60 37 -100 44 -87
40 -105 -36 -155 -27 -18 -57 -45 -65 -59 -19 -32 -25 -90 -10 -96 6 -2 36 17
67 41 30 25 80 55 111 66 108 41 114 90 23 189 -75 81 -96 135 -79 201 11 44
10 47 -7 27z m98 -286 c36 -50 23 -73 -58 -105 -25 -10 -62 -31 -83 -48 -27
-21 -38 -25 -38 -15 0 15 9 23 84 77 38 27 56 58 56 95 0 33 14 31 39 -4z"/>
<path d="M8619 1787 c-19 -27 -39 -82 -39 -111 0 -12 16 -53 36 -92 47 -91 43
-111 -31 -158 -55 -36 -77 -66 -89 -123 -11 -50 9 -48 78 6 35 28 84 58 107
66 61 22 89 51 89 93 0 28 -11 45 -61 98 -71 73 -94 133 -79 200 11 46 10 48
-11 21z m117 -332 c-5 -18 -18 -31 -44 -42 -71 -29 -99 -44 -121 -65 -12 -11
-25 -17 -28 -14 -9 9 25 43 73 74 49 30 69 67 62 113 l-5 30 35 -34 c28 -29
33 -40 28 -62z"/>
<path d="M1601 1720 c28 -74 22 -153 -20 -240 -17 -36 -31 -75 -31 -88 0 -37
28 -93 77 -155 25 -32 53 -80 63 -105 l18 -47 7 56 c6 48 3 65 -20 120 -41 96
-42 116 -5 172 64 95 51 174 -45 275 l-64 67 20 -55z m85 -121 c19 -51 16 -88
-8 -128 -12 -20 -25 -38 -28 -41 -4 -3 -12 -20 -18 -37 -11 -33 -2 -84 19
-108 15 -16 10 -28 -7 -14 -17 14 -64 101 -64 119 0 5 14 38 30 72 18 36 33
88 37 121 7 64 20 69 39 16z"/>
<path d="M5158 1612 c3 -32 -2 -61 -12 -80 -9 -17 -16 -39 -16 -49 0 -19 70
-127 78 -119 2 3 -3 29 -13 59 -16 50 -16 57 -1 85 24 46 20 87 -11 122 l-28
31 3 -49z m42 -49 c0 -13 -9 -37 -19 -54 -14 -24 -17 -38 -10 -55 12 -34 -6
-30 -20 4 -10 23 -8 35 8 73 11 24 21 53 21 64 0 17 2 17 10 5 5 -8 10 -25 10
-37z"/>
<path d="M7317 1539 c30 -33 43 -72 43 -129 0 -92 -42 -132 -102 -97 l-28 16
0 -43 c0 -76 27 -145 79 -199 44 -46 52 -50 95 -50 39 0 52 5 77 29 54 55 93
216 74 311 l-8 38 -12 -55 c-21 -92 -36 -111 -76 -90 -21 12 -25 27 -33 114
-6 70 -41 129 -96 160 l-35 20 22 -25z m92 -202 c2 -78 56 -118 109 -81 21 14
22 14 22 -10 0 -44 -40 -134 -71 -161 -17 -14 -43 -25 -58 -25 -65 0 -145 93
-157 182 l-7 47 33 -9 c21 -6 39 -6 51 1 27 14 49 62 49 107 0 91 26 44 29
-51z"/>
<path d="M1991 1297 c-1 -40 -17 -66 -68 -115 l-46 -42 8 -68 c4 -37 8 -80 8
-96 l0 -29 14 27 c8 15 16 51 19 79 2 36 9 55 21 62 49 29 73 63 73 107 -1 24
-7 57 -15 73 l-13 30 -1 -28z m13 -89 c-6 -32 -16 -44 -69 -81 -18 -13 -25
-27 -25 -49 0 -17 -3 -29 -6 -26 -3 3 -5 24 -6 45 0 34 7 47 48 90 27 28 53
52 57 52 5 1 5 -14 1 -31z"/>
<path d="M8007 1257 c4 -29 0 -54 -11 -75 -24 -46 -20 -73 19 -128 30 -42 35
-46 35 -25 0 14 -5 40 -12 58 -10 29 -10 39 6 68 23 42 16 93 -18 124 l-24 22
5 -44z m38 -36 c4 -20 -1 -39 -16 -65 -18 -31 -20 -41 -10 -64 l11 -27 -20 24
c-23 27 -25 47 -5 81 8 14 14 40 15 58 0 39 16 35 25 -7z"/>
<path d="M6005 1059 c4 -24 1 -49 -9 -74 -21 -51 -20 -87 4 -118 12 -14 27
-39 35 -54 l15 -28 0 28 c0 15 -7 44 -15 63 -13 33 -13 39 6 76 24 48 19 85
-17 119 l-26 24 7 -36z m35 -49 c0 -16 -8 -45 -17 -64 -13 -29 -14 -40 -5 -63
l12 -28 -21 25 c-22 25 -21 32 3 122 13 50 28 55 28 8z"/>
</g>
</svg>
