<svg width="343" height="296" viewBox="0 0 343 296" fill="none" xmlns="http://www.w3.org/2000/svg">
<path d="M166.774 296C258.881 296 333.548 286.415 333.548 274.592C333.548 262.768 258.881 253.183 166.774 253.183C74.6673 253.183 0 262.768 0 274.592C0 286.415 74.6673 296 166.774 296Z" fill="#68A16C" fill-opacity="0.3"/>
<path d="M125.744 17.3549C125.744 18.1999 125.422 18.9712 124.9 19.5285C124.383 20.0898 123.664 20.4347 122.876 20.4347H61.4856C59.9088 20.4347 58.6172 19.0496 58.6172 17.3549C58.6172 16.5091 58.9388 15.7385 59.4615 15.1812C59.9783 14.6199 60.6968 14.275 61.4856 14.275H64.3868C65.533 11.4194 68.1791 9.42365 71.2595 9.42365C73.3326 9.42365 75.2075 10.329 76.5657 11.7894C78.3741 8.50025 81.7096 6.2913 85.529 6.2913C86.5794 6.2913 87.5896 6.4614 88.5435 6.77103C90.5406 2.7435 94.4893 0.000732422 99.0404 0.000732422C104.506 0.000732422 109.103 3.95771 110.491 9.34213C111.498 8.80204 112.634 8.49319 113.84 8.49319C117.248 8.49319 120.123 10.9334 121.028 14.2758H122.876C124.452 14.2758 125.744 15.6609 125.744 17.3549Z" fill="#68A16C" fill-opacity="0.3"/>
<path d="M318.765 37.03C318.765 37.8758 318.444 38.6463 317.92 39.2036C317.404 39.7649 316.685 40.1098 315.896 40.1098H254.507C252.93 40.1098 251.639 38.7247 251.639 37.03C251.639 36.1842 251.96 35.4136 252.483 34.8563C253 34.295 253.718 33.9501 254.507 33.9501H257.408C258.554 31.0945 261.201 29.098 264.281 29.098C266.354 29.098 268.229 30.0033 269.587 31.4637C271.396 28.1746 274.731 25.9656 278.55 25.9656C279.6 25.9656 280.611 26.1357 281.565 26.4453C283.562 22.4178 287.511 19.675 292.062 19.675C297.527 19.675 302.125 23.632 303.513 29.0164C304.519 28.4764 305.656 28.1675 306.861 28.1675C310.27 28.1675 313.145 30.6077 314.049 33.9501H315.898C317.473 33.9509 318.765 35.336 318.765 37.03Z" fill="#68A16C" fill-opacity="0.3"/>
<path d="M248.676 17.3549C248.676 18.2007 248.354 18.9713 247.831 19.5286C247.314 20.0898 246.596 20.4347 245.807 20.4347H184.417C182.84 20.4347 181.549 19.0496 181.549 17.3549C181.549 16.5099 181.87 15.7386 182.393 15.1812C182.91 14.62 183.628 14.2751 184.417 14.2751H187.319C188.465 11.4194 191.112 9.42291 194.192 9.42291C196.266 9.42291 198.14 10.3283 199.498 11.7886C201.307 8.49952 204.642 6.29057 208.461 6.29057C209.511 6.29057 210.521 6.46067 211.475 6.7703C213.472 2.74277 217.421 0 221.972 0C227.438 0 232.035 3.95698 233.423 9.34218C234.429 8.80209 235.566 8.49324 236.772 8.49324C240.18 8.49324 243.055 10.9334 243.959 14.2759H245.808C247.384 14.2759 248.676 15.661 248.676 17.3549Z" fill="#68A16C" fill-opacity="0.3"/>
<path d="M55.6703 81.7617C55.5921 81.8675 55.5117 81.9663 55.4284 82.0541C53.0527 84.5782 48.9351 74.9138 52.7406 65.2424C56.5461 55.571 53.4109 42.7939 48.3072 42.2962C43.2042 41.7984 47.6405 50.2987 41.0624 48.9943C34.4843 47.69 33.4712 28.8982 24.9816 29.9353C17.5519 30.8414 22.3135 44.7599 26.0042 50.624C29.4866 56.1597 28.453 61.7887 24.543 60.558C20.6344 59.3289 16.7273 65.1476 22.5467 74.184C28.366 83.2205 36.2474 92.2146 32.4544 93.2517C28.6613 94.2911 20.7704 85.4075 17.4093 95.9208C15.9072 100.619 25.4538 116.881 46.6435 118.168L55.6703 107.684V81.7617Z" fill="#68A16C" fill-opacity="0.3"/>
<path d="M53.1871 107.683C44.2421 82.2235 29.2065 43.2165 29.0238 42.7422C28.9083 42.4436 29.0399 42.0995 29.3198 41.9748C29.5998 41.851 29.9192 41.9944 30.0355 42.2939C30.2189 42.772 45.4204 82.2039 54.3574 107.682L53.1871 107.683Z" fill="#68A16C" fill-opacity="0.76"/>
<path d="M39.8553 70.3941C39.7654 70.3854 39.677 70.3525 39.5973 70.2945C39.3473 70.1119 39.283 69.7466 39.4526 69.4785C39.5001 69.404 44.1791 62.0027 45.5679 56.6653C45.6491 56.3526 45.9517 56.1699 46.2426 56.2577C46.5336 56.3447 46.7046 56.6685 46.6228 56.9812C45.1849 62.506 40.5541 69.8312 40.3575 70.1409C40.242 70.3227 40.0469 70.4129 39.8553 70.3941Z" fill="#68A16C" fill-opacity="0.76"/>
<path d="M41.8688 76.6572C41.8578 76.6564 41.8468 76.6548 41.8359 76.6533C41.5004 76.5992 33.5648 75.2854 28.187 72.128C27.9217 71.972 27.8244 71.6153 27.9699 71.3308C28.1154 71.0462 28.448 70.942 28.7133 71.098C33.9186 74.1543 41.9199 75.4798 42.0003 75.4923C42.2993 75.5409 42.5047 75.8404 42.4594 76.161C42.4155 76.469 42.1553 76.6846 41.8688 76.6572Z" fill="#68A16C" fill-opacity="0.76"/>
<path d="M55.6703 94.7137C53.3619 97.6862 50.8933 99.9759 50.8517 100.014C50.6221 100.226 50.5958 100.596 50.7925 100.842C50.8889 100.963 51.0213 101.032 51.1579 101.045C51.3005 101.059 51.4474 101.014 51.5644 100.906C51.7179 100.765 53.6323 98.9898 55.6703 96.5276V94.7137Z" fill="#68A16C" fill-opacity="0.76"/>
<path d="M44.3315 106.102C41.2117 105.797 37.7782 105.156 34.953 103.867C34.6745 103.74 34.5451 103.395 34.6635 103.096C34.7819 102.798 35.1036 102.659 35.3821 102.786C42.1232 105.863 52.9154 105.084 53.0236 105.076C53.324 105.052 53.5872 105.297 53.6084 105.62C53.6296 105.943 53.4022 106.224 53.1011 106.247C52.8313 106.269 48.9228 106.55 44.3315 106.102Z" fill="#68A16C" fill-opacity="0.76"/>
<path d="M288.194 218.698C288.272 218.803 288.352 218.901 288.436 218.99C290.812 221.514 294.929 211.85 291.124 202.178C287.318 192.507 290.453 179.73 295.557 179.232C300.66 178.734 296.224 187.235 302.802 185.93C309.38 184.626 310.394 165.834 318.883 166.871C326.312 167.777 321.551 181.696 317.86 187.56C314.378 193.096 315.411 198.725 319.321 197.494C323.23 196.265 327.137 202.083 321.318 211.12C315.498 220.156 307.617 229.151 311.41 230.188C315.203 231.227 323.094 222.344 326.455 232.857C327.958 237.555 324.711 241.591 320.663 244.619H288.194V218.698Z" fill="#68A16C" fill-opacity="0.3"/>
<path d="M290.678 244.619C299.623 219.159 314.658 180.153 314.841 179.678C314.956 179.379 314.825 179.035 314.545 178.911C314.265 178.787 313.945 178.93 313.829 179.231C313.646 179.708 298.444 219.141 289.507 244.619H290.678Z" fill="#68A16C" fill-opacity="0.76"/>
<path d="M304.009 207.33C304.099 207.321 304.187 207.288 304.267 207.23C304.517 207.048 304.581 206.682 304.412 206.414C304.364 206.341 299.685 198.939 298.296 193.601C298.215 193.288 297.912 193.106 297.622 193.194C297.331 193.281 297.16 193.604 297.241 193.917C298.679 199.442 303.309 206.767 303.506 207.076C303.623 207.259 303.818 207.349 304.009 207.33Z" fill="#68A16C" fill-opacity="0.76"/>
<path d="M301.995 213.593C302.006 213.592 302.017 213.591 302.028 213.589C302.364 213.535 310.299 212.221 315.677 209.064C315.942 208.909 316.039 208.551 315.895 208.267C315.749 207.982 315.417 207.878 315.151 208.034C309.946 211.09 301.945 212.416 301.864 212.428C301.565 212.477 301.36 212.776 301.405 213.097C301.448 213.405 301.709 213.621 301.995 213.593Z" fill="#68A16C" fill-opacity="0.76"/>
<path d="M288.194 231.65C290.502 234.622 292.971 236.912 293.012 236.95C293.242 237.162 293.268 237.532 293.072 237.779C292.975 237.899 292.843 237.968 292.706 237.982C292.564 237.996 292.417 237.95 292.3 237.843C292.146 237.702 290.232 235.926 288.194 233.464V231.65Z" fill="#68A16C" fill-opacity="0.76"/>
<path d="M299.533 243.038C302.652 242.733 306.086 242.092 308.911 240.803C309.19 240.676 309.319 240.331 309.201 240.032C309.082 239.734 308.761 239.595 308.482 239.722C301.74 242.798 290.949 242.02 290.841 242.011C290.539 241.988 290.277 242.232 290.256 242.555C290.235 242.879 290.461 243.16 290.763 243.183C291.034 243.205 294.941 243.486 299.533 243.038Z" fill="#68A16C" fill-opacity="0.76"/>
<path d="M322.539 92.3135C325.577 79.1696 330.713 67.3245 335.56 72.6344C340.411 77.9491 331.214 98.1526 318.515 108.888L315.01 113.647C324.137 105.65 338.367 101.414 341.903 106.457C345.417 111.468 335.706 113.366 326.568 113.513C319.611 113.625 315.08 115.408 312.868 116.556L296.312 139.036C310.799 126.417 333.265 119.754 338.861 127.734C344.437 135.686 329.028 138.697 314.527 138.93C303.569 139.107 296.4 141.897 292.862 143.721L289.56 148.203C288.746 147.71 287.934 147.214 287.125 146.712L306.823 119.968C307.08 117.112 307.045 113.051 305.983 107.928C303.999 98.3603 303.47 87.7913 308.831 90.2958C313.482 92.4695 313.717 104.537 310.398 115.112L317.21 105.863C318.861 102.617 321.228 97.9864 322.539 92.3135Z" fill="#68A16C" fill-opacity="0.3"/>
<path d="M171.36 31.1235C171.653 17.5853 169.604 4.70865 163.625 8.46418C157.641 12.2228 161.558 34.3092 171.176 48.2488L173.39 53.8292C166.546 43.5393 153.857 35.438 149.209 39.3064C144.589 43.1497 153.492 47.7197 162.274 50.4397C168.958 52.5099 172.891 55.5082 174.744 57.2406L185.202 83.599C174.321 67.3376 154.28 54.5723 146.924 60.6927C139.594 66.7913 153.721 74.0428 167.654 78.3588C178.183 81.6205 184.415 86.3347 187.382 89.0924L189.468 94.3483C190.374 94.1037 191.279 93.8528 192.182 93.5965L179.74 62.2378C180.192 59.4095 181.221 55.5012 183.502 50.8591C187.764 42.1879 190.867 32.1402 185.08 33.044C180.059 33.8287 176.872 45.4057 177.48 56.5445L173.177 45.6996C172.381 42.1009 171.233 36.9665 171.36 31.1235Z" fill="#68A16C" fill-opacity="0.3"/>
<path d="M22.7638 181.295C19.7258 168.151 14.59 156.306 9.74355 161.616C4.89203 166.931 14.0885 187.134 26.7878 197.87L30.2929 202.63C21.1659 194.633 6.93658 190.397 3.4001 195.439C-0.11373 200.451 9.59662 202.348 18.7353 202.496C25.6921 202.608 30.2227 204.391 32.4354 205.54L48.9914 228.019C34.5041 215.4 12.0381 208.738 6.44244 216.718C0.866517 224.669 16.2749 227.68 30.7761 227.914C41.7342 228.09 48.9029 230.881 52.4416 232.704L55.7427 237.186C56.557 236.694 57.3692 236.198 58.1776 235.695L38.4806 208.951C38.2233 206.095 38.2569 202.034 39.3198 196.911C41.3044 187.344 41.8329 176.775 36.4726 179.279C31.8206 181.453 31.586 193.52 34.9046 204.096L28.0926 194.847C26.4413 191.598 24.0752 186.968 22.7638 181.295Z" fill="#68A16C" fill-opacity="0.3"/>
<path d="M297.164 91.4636V239.516C297.164 245.619 292.55 250.566 286.857 250.566H51.5671C45.8742 250.566 41.2603 245.619 41.2603 239.516V91.4636C41.2603 85.3588 45.8735 80.411 51.5671 80.411H286.857C292.55 80.411 297.164 85.358 297.164 91.4636Z" fill="#06310B"/>
<path d="M297.164 165.487V239.514C297.164 245.618 292.55 250.565 286.858 250.565H51.5666C45.8745 250.565 41.2612 245.617 41.2612 239.514V165.487H297.164Z" fill="#08550E"/>
<path d="M285.796 98.988V231.989C285.796 235.902 282.838 239.076 279.189 239.076H59.2372C57.287 239.076 55.5326 238.169 54.3236 236.722C53.268 235.472 52.6284 233.808 52.6284 231.988V98.988C52.6284 95.0749 55.5882 91.901 59.2372 91.901H279.189C280.409 91.901 281.55 92.2561 282.532 92.8761C284.484 94.1068 285.796 96.3855 285.796 98.988Z" fill="white"/>
<path d="M285.796 98.988V231.989C285.796 235.902 282.838 239.076 279.189 239.076H59.2372C57.287 239.076 55.5326 238.169 54.3236 236.722C53.268 235.472 52.6284 233.808 52.6284 231.988V98.988C52.6284 95.0749 55.5882 91.901 59.2372 91.901H279.189C280.409 91.901 281.55 92.2561 282.532 92.8761C284.484 94.1068 285.796 96.3855 285.796 98.988Z" fill="white"/>
<path d="M60.0747 148.562C60.0747 149.623 60.8759 150.482 61.8649 150.482H99.8335C100.823 150.482 101.624 149.623 101.624 148.562C101.624 147.502 100.823 146.643 99.8335 146.643H61.8649C60.8766 146.643 60.0747 147.502 60.0747 148.562Z" fill="#68A16C" fill-opacity="0.3"/>
<path d="M60.0747 158.36C60.0747 159.421 60.8759 160.28 61.8649 160.28H99.8335C100.823 160.28 101.624 159.421 101.624 158.36C101.624 157.299 100.823 156.44 99.8335 156.44H61.8649C60.8766 156.44 60.0747 157.299 60.0747 158.36Z" fill="#68A16C" fill-opacity="0.3"/>
<path d="M60.0747 167.894C60.0747 168.809 60.8656 169.551 61.8408 169.551H99.2955C100.271 169.551 101.062 168.81 101.062 167.894C101.062 166.98 100.271 166.237 99.2955 166.237H61.8408C60.8656 166.237 60.0747 166.98 60.0747 167.894Z" fill="#68A16C" fill-opacity="0.3"/>
<path d="M60.0747 182.538C60.0747 183.598 60.8759 184.458 61.8649 184.458H99.8335C100.823 184.458 101.624 183.598 101.624 182.538C101.624 181.477 100.823 180.618 99.8335 180.618H61.8649C60.8766 180.618 60.0747 181.478 60.0747 182.538Z" fill="#68A16C" fill-opacity="0.3"/>
<path d="M60.0747 192.335C60.0747 193.396 60.8759 194.255 61.8649 194.255H99.8335C100.823 194.255 101.624 193.396 101.624 192.335C101.624 191.275 100.823 190.416 99.8335 190.416H61.8649C60.8766 190.416 60.0747 191.275 60.0747 192.335Z" fill="#68A16C" fill-opacity="0.3"/>
<path d="M60.0747 202.132C60.0747 203.193 60.8759 204.052 61.8649 204.052H99.8335C100.823 204.052 101.624 203.193 101.624 202.132C101.624 201.072 100.823 200.212 99.8335 200.212H61.8649C60.8766 200.212 60.0747 201.072 60.0747 202.132Z" fill="#68A16C" fill-opacity="0.3"/>
<path d="M236.54 148.562C236.54 149.623 237.341 150.482 238.33 150.482H276.298C277.287 150.482 278.089 149.623 278.089 148.562C278.089 147.502 277.287 146.643 276.298 146.643H238.33C237.341 146.643 236.54 147.502 236.54 148.562Z" fill="#68A16C" fill-opacity="0.3"/>
<path d="M236.54 158.36C236.54 159.421 237.341 160.28 238.33 160.28H276.298C277.287 160.28 278.089 159.421 278.089 158.36C278.089 157.299 277.287 156.44 276.298 156.44H238.33C237.341 156.44 236.54 157.299 236.54 158.36Z" fill="#68A16C" fill-opacity="0.3"/>
<path d="M236.54 167.894C236.54 168.809 237.33 169.551 238.306 169.551H275.76C276.735 169.551 277.526 168.81 277.526 167.894C277.526 166.98 276.735 166.237 275.76 166.237H238.306C237.33 166.237 236.54 166.98 236.54 167.894Z" fill="#68A16C" fill-opacity="0.3"/>
<path d="M236.54 182.538C236.54 183.598 237.341 184.458 238.33 184.458H276.298C277.287 184.458 278.089 183.598 278.089 182.538C278.089 181.477 277.287 180.618 276.298 180.618H238.33C237.341 180.618 236.54 181.478 236.54 182.538Z" fill="#68A16C" fill-opacity="0.3"/>
<path d="M236.54 192.335C236.54 193.396 237.341 194.255 238.33 194.255H276.298C277.287 194.255 278.089 193.396 278.089 192.335C278.089 191.275 277.287 190.416 276.298 190.416H238.33C237.341 190.416 236.54 191.275 236.54 192.335Z" fill="#68A16C" fill-opacity="0.3"/>
<path d="M236.54 202.132C236.54 203.193 237.341 204.052 238.33 204.052H276.298C277.287 204.052 278.089 203.193 278.089 202.132C278.089 201.072 277.287 200.212 276.298 200.212H238.33C237.341 200.212 236.54 201.072 236.54 202.132Z" fill="#68A16C" fill-opacity="0.3"/>
<path d="M285.796 98.988V106.384H52.6284V98.988C52.6284 95.0749 55.5882 91.901 59.2372 91.901H279.189C280.409 91.901 281.55 92.2561 282.532 92.8761C284.484 94.1068 285.796 96.3855 285.796 98.988Z" fill="#68A16C" fill-opacity="0.3"/>
<path d="M284.603 94.9339H53.8203C55.0118 93.1004 56.9935 91.9019 59.2376 91.9019H279.188C281.432 91.9019 283.414 93.1004 284.603 94.9339Z" fill="#06310B"/>
<path d="M261.599 99.8981C261.599 101.266 260.565 102.375 259.289 102.375C258.013 102.375 256.979 101.266 256.979 99.8981C256.979 98.5302 258.014 97.4203 259.289 97.4203C260.565 97.4203 261.599 98.5295 261.599 99.8981Z" fill="#6BCB77"/>
<path d="M269.086 99.8981C269.086 101.266 268.052 102.375 266.776 102.375C265.5 102.375 264.466 101.266 264.466 99.8981C264.466 98.5302 265.5 97.4203 266.776 97.4203C268.052 97.4203 269.086 98.5295 269.086 99.8981Z" fill="#06310B"/>
<path d="M276.212 99.8981C276.212 101.266 275.178 102.375 273.902 102.375C272.627 102.375 271.592 101.266 271.592 99.8981C271.592 98.5302 272.627 97.4203 273.902 97.4203C275.178 97.4203 276.212 98.5295 276.212 99.8981Z" fill="#21972B"/>
<path d="M230.674 141.899V231.866H109.157V141.899H114.745L114.694 141.849L114.755 141.899H230.674Z" fill="#68A16C" fill-opacity="0.3"/>
<path d="M230.673 138.241H109.217V228.209H230.673V138.241Z" fill="#05510E"/>
<path d="M230.673 134.948H109.217V224.916H230.673V134.948Z" fill="#21972B"/>
<g opacity="0.5">
<path d="M117.566 165.285V204.41C117.566 205.712 116.582 206.767 115.368 206.767C114.154 206.767 113.17 205.712 113.17 204.41V165.285C113.17 163.983 114.154 162.928 115.368 162.928C116.581 162.928 117.566 163.983 117.566 165.285Z" fill="#21972B"/>
</g>
<g opacity="0.5">
<path d="M117.566 153.311V157.271C117.566 158.573 116.582 159.628 115.368 159.628C114.154 159.628 113.17 158.573 113.17 157.271V153.311C113.17 152.01 114.154 150.954 115.368 150.954C116.582 150.954 117.566 152.01 117.566 153.311Z" fill="#21972B"/>
</g>
<path d="M158.245 181.507L112.735 224.915H109.217V222.621L155.629 178.355L158.245 181.507Z" fill="#05510E"/>
<path d="M230.673 222.926V224.915H226.837L181.328 181.507L183.944 178.355L230.673 222.926Z" fill="#05510E"/>
<path d="M230.67 134.947L212.27 152.495L173.945 189.046C171.663 191.225 168.222 191.225 165.938 189.046L127.621 152.501L109.214 134.947H230.67Z" fill="#05510E"/>
<path d="M212.271 120.573V152.494L200.593 163.631L196.568 167.47L190.321 173.428L186.297 177.267L180.05 183.224L176.025 187.064L173.946 189.046C171.664 191.225 168.223 191.225 165.94 189.046L163.861 187.064L159.836 183.224L153.589 177.267L149.563 173.428L143.316 167.47L139.292 163.631L127.622 152.501V120.573C127.622 117.698 129.794 115.367 132.476 115.367H207.417C210.098 115.367 212.271 117.698 212.271 120.573Z" fill="#68A16C" fill-opacity="0.3"/>
<path d="M158.285 127.797H137.776C136.883 127.797 136.159 127.02 136.159 126.062V125.691C136.159 124.733 136.883 123.957 137.776 123.957H158.285C159.178 123.957 159.902 124.733 159.902 125.691V126.062C159.903 127.021 159.179 127.797 158.285 127.797Z" fill="#68A16C" fill-opacity="0.76"/>
<path d="M204.657 138.078H137.949C136.96 138.078 136.159 137.219 136.159 136.158C136.159 135.098 136.96 134.239 137.949 134.239H204.657C205.646 134.239 206.447 135.098 206.447 136.158C206.447 137.219 205.646 138.078 204.657 138.078Z" fill="#68A16C" fill-opacity="0.76"/>
<path d="M204.657 147.876H137.949C136.96 147.876 136.159 147.017 136.159 145.956C136.159 144.896 136.96 144.036 137.949 144.036H204.657C205.646 144.036 206.447 144.896 206.447 145.956C206.447 147.016 205.646 147.876 204.657 147.876Z" fill="#68A16C" fill-opacity="0.76"/>
<path d="M204.657 157.672H137.949C136.96 157.672 136.159 156.813 136.159 155.753C136.159 154.692 136.96 153.833 137.949 153.833H204.657C205.646 153.833 206.447 154.692 206.447 155.753C206.447 156.813 205.646 157.672 204.657 157.672Z" fill="#68A16C" fill-opacity="0.76"/>
<path d="M200.593 163.631L196.568 167.47H143.317L139.291 163.631H200.593Z" fill="#68A16C" fill-opacity="0.76"/>
<path d="M190.321 173.428L186.296 177.267H153.588L149.563 173.428H190.321Z" fill="#68A16C" fill-opacity="0.76"/>
<path d="M180.049 183.224L176.024 187.064H163.86L159.835 183.224H180.049Z" fill="#68A16C" fill-opacity="0.76"/>
<path d="M211.42 125.634H210.764C204.956 125.634 200.247 120.584 200.247 114.356V113.653C200.247 107.424 204.956 102.374 210.764 102.374H211.42C217.228 102.374 221.937 107.424 221.937 113.653V114.356C221.937 120.585 217.228 125.634 211.42 125.634Z" fill="#21972B"/>
<path d="M213.337 125.634H212.681C206.873 125.634 202.164 120.584 202.164 114.356V113.653C202.164 107.424 206.873 102.374 212.681 102.374H213.337C219.145 102.374 223.854 107.424 223.854 113.653V114.356C223.854 120.585 219.145 125.634 213.337 125.634Z" fill="#6BCB77"/>
<path d="M211.859 118.756L210.776 108.35H217.279L216.195 118.756H211.859ZM214.027 125.452C213.096 125.452 212.333 125.171 211.739 124.609C211.145 124.031 210.848 123.348 210.848 122.562C210.848 121.759 211.145 121.084 211.739 120.538C212.333 119.992 213.096 119.719 214.027 119.719C214.975 119.719 215.737 119.992 216.316 120.538C216.91 121.084 217.207 121.759 217.207 122.562C217.207 123.348 216.91 124.031 216.316 124.609C215.737 125.171 214.975 125.452 214.027 125.452Z" fill="white"/>
<path d="M321.067 244.649V245.596C321.067 250.306 319.659 254.661 317.267 258.203C313.62 263.613 307.685 267.132 300.984 267.132H37.4402C30.7385 267.132 24.8037 263.613 21.1568 258.203C18.765 254.661 17.3564 250.306 17.3564 245.596V244.649H321.067Z" fill="#08550E"/>
<path d="M135.173 244.649V244.866C135.173 246.571 136.238 247.953 137.551 247.953H199.553C200.866 247.953 201.931 246.571 201.931 244.866V244.649H135.173Z" fill="white"/>
<path d="M317.267 258.203C313.62 263.613 307.685 267.132 300.984 267.132H37.4401C30.7384 267.132 24.8036 263.613 21.1567 258.203H317.267Z" fill="#06310B"/>
<path d="M40.4364 230.749L37.7764 236.854L43.4005 236.948L45.5701 231.392L40.4364 230.749Z" fill="#FAB083"/>
<path d="M39.5469 236.472C39.5469 236.472 38.392 234.808 37.4746 234.879C36.5572 234.951 29.4806 240.984 27.0559 241.483C24.6312 241.981 24.8564 244.63 25.871 244.63C28.7935 244.63 44.8875 244.504 44.8875 244.504C44.8875 244.504 45.4065 238.472 44.7888 236.628C44.1711 234.784 41.4431 236.909 39.5469 236.472Z" fill="#6BCB77"/>
<path d="M35.6351 240.682C35.7206 240.71 35.8171 240.701 35.9004 240.65C36.0634 240.55 36.1197 240.329 36.0276 240.153C35.9969 240.094 35.2564 238.715 34.2594 238.177C32.9334 237.459 31.8998 238.262 31.8559 238.298C31.7053 238.417 31.6739 238.646 31.7857 238.807C31.8976 238.969 32.1103 239.002 32.2609 238.882C32.2887 238.86 33.0087 238.319 33.9531 238.828C34.7652 239.267 35.4304 240.502 35.437 240.514C35.4823 240.599 35.5547 240.656 35.6351 240.682Z" fill="white"/>
<path d="M36.6478 239.657C36.7333 239.684 36.8291 239.676 36.9131 239.625C37.0761 239.525 37.1332 239.303 37.0403 239.128C37.0089 239.069 36.2691 237.69 35.2721 237.152C33.9453 236.433 32.9125 237.237 32.8686 237.272C32.718 237.391 32.6866 237.62 32.7984 237.781C32.9095 237.943 33.123 237.976 33.2736 237.856C33.3021 237.835 34.0221 237.293 34.9658 237.802C35.7816 238.243 36.4431 239.476 36.4489 239.488C36.495 239.573 36.5666 239.631 36.6478 239.657Z" fill="white"/>
<path d="M34.263 241.515C34.3493 241.542 34.445 241.533 34.5284 241.483C34.6914 241.383 34.7484 241.16 34.6556 240.986C34.6241 240.928 33.8844 239.548 32.8873 239.009C31.5606 238.291 30.5277 239.095 30.4838 239.129C30.3333 239.249 30.3018 239.477 30.4137 239.639C30.5255 239.8 30.7382 239.834 30.8888 239.714C30.9173 239.692 31.6373 239.15 32.581 239.66C33.3968 240.101 34.0583 241.334 34.0642 241.346C34.1102 241.431 34.1826 241.489 34.263 241.515Z" fill="white"/>
<path d="M38.8345 232.739L41.3264 233.611L42.7116 233.699L45.0924 233.849C48.2378 231.182 56.7223 223.154 58.3758 218.42C58.3758 218.42 66.2967 241.531 81.3907 241.531C82.3702 241.531 82.7781 232.097 80.3176 229.281C80.3176 229.281 66.4049 201.476 57.386 204.427C53.3466 205.748 49.2605 212.054 38.8345 232.739Z" fill="#08550E"/>
<path d="M41.3262 233.611L42.7114 233.699C51.97 226.181 56.2594 219.815 58.2338 215.737C58.3017 215.595 58.4129 215.55 58.4874 215.551C58.5517 215.554 58.5985 215.591 58.6285 215.672C63.0619 226.863 68.3827 233.58 72.0654 237.246C76.0792 241.24 79.0155 242.557 79.1369 242.612L79.3065 242.168L79.4761 241.725C79.4476 241.711 76.5346 240.398 72.6297 236.501C69.023 232.902 63.809 226.302 59.4501 215.296C59.2842 214.872 58.9355 214.61 58.521 214.593C58.0744 214.573 57.6563 214.849 57.4399 215.294C55.4495 219.406 51.0387 225.905 41.3262 233.611Z" fill="#06310B"/>
<path d="M47.5884 232.028C47.1922 232.823 46.5117 233.945 45.8611 234.487C45.8611 234.487 40.5293 234.223 37.9365 232.826L39.0995 229.92C39.0995 229.92 43.3436 231.581 47.5884 232.028Z" fill="#06310B"/>
<path d="M81.0126 182.006C81.0126 182.006 70.6802 195.233 66.3404 197.405C64.4355 198.359 62.5539 198.696 61.1643 198.749C60.698 198.768 59.4845 198.662 59.418 198.66C59.4122 198.66 59.407 198.662 59.407 198.662C54.2514 197.977 48.1916 196.313 40.6099 193.002L41.74 189.236C41.74 189.236 46.2954 190.274 51.8779 190.701C53.9364 190.856 58.6848 191.09 60.4406 191.394C60.8756 191.185 61.3039 190.958 61.7213 190.713C69.4259 186.253 74.5106 177.174 74.5106 177.174C76.9491 178.155 79.7488 179.989 81.0126 182.006Z" fill="#21972B"/>
<path d="M41.9322 188.936C41.9322 188.936 40.8767 186.077 39.4403 185.261C38.004 184.445 33.9163 181.571 33.0443 182.431C32.1722 183.291 32.352 187.42 36.0164 190.871C38.3504 193.07 40.7027 192.976 40.7027 192.976L41.9322 188.936Z" fill="#FAB083"/>
<path d="M32.7812 185.058L38.8147 191.102C39.0413 191.331 39.4506 191.396 39.7306 191.251L43.4286 189.334C43.5434 189.274 43.6187 189.187 43.6509 189.09L43.6596 189.059L43.8409 188.396L42.8599 187.998L33.3674 184.131L32.8528 183.924L32.6598 184.624L32.6452 184.672C32.6423 184.678 32.6415 184.683 32.6437 184.689C32.6211 184.812 32.6679 184.946 32.7812 185.058Z" fill="#08550E"/>
<path d="M39.9154 190.579L43.6149 188.661C43.8941 188.516 43.9365 188.216 43.7107 187.99L37.6764 181.945C37.4505 181.719 37.0412 181.652 36.762 181.797L33.0625 183.715C32.7832 183.86 32.7408 184.16 32.9674 184.387L39.001 190.431C39.2276 190.658 39.6369 190.724 39.9154 190.579Z" fill="#06310B"/>
<path d="M39.4664 189.496L42.3326 188.01C42.6118 187.866 42.6542 187.565 42.4283 187.338L37.7355 182.637C37.5096 182.411 37.0995 182.344 36.821 182.489L33.9548 183.975C33.6763 184.12 33.6332 184.421 33.8598 184.647L38.5527 189.348C38.7786 189.575 39.1879 189.641 39.4664 189.496Z" fill="#58619B"/>
<path d="M39.5429 183.815C39.5429 183.815 38.6832 183.958 38.5955 184.751C38.5078 185.543 39.3075 185.228 39.8214 185.054C40.3353 184.88 40.7987 185.055 40.8689 185.144C41.094 185.427 41.0553 183.579 39.5429 183.815Z" fill="#FAB083"/>
<path d="M35.7004 188.117C35.7004 188.117 34.3517 185.74 33.3181 184.442C32.6295 183.577 32.2779 184.832 32.7494 185.707C33.2209 186.582 34.1507 188.363 35.7004 188.117Z" fill="#FAB083"/>
<path d="M88.266 168.305C88.266 168.305 94.7776 168.34 97.7461 171.218C100.715 174.095 97.8813 179.942 94.6614 180.692C91.4414 181.441 81.3867 180.163 80.3414 178.315C79.2954 176.467 79.9584 168.447 88.266 168.305Z" fill="#6BCB77"/>
<path d="M98.5343 230.969L101.699 209.082L101.013 178.888L93.4401 176.142L93.0336 175.995L91.3341 175.379L89.9847 174.89L81.9892 176.072L80.6881 176.263L80.229 176.331L74.5091 177.175C74.455 196.581 76.1926 200.772 72.8476 216.558C71.1663 222.509 77.3417 243.596 98.5343 230.969Z" fill="#6BCB77"/>
<path d="M87.723 180.776C93.4517 180.754 94.7814 175.339 94.7946 175.284C94.8231 175.163 94.7544 175.04 94.6411 175.009C94.5285 174.978 94.413 175.052 94.3845 175.174C94.3348 175.385 93.114 180.301 87.723 180.322C87.6931 180.322 87.6638 180.322 87.6339 180.322C87.5206 180.329 87.4219 180.423 87.4219 180.547C87.4211 180.673 87.5155 180.775 87.6324 180.776C87.6624 180.776 87.6938 180.776 87.723 180.776Z" fill="#21972B"/>
<path d="M82.3402 179.928C82.455 179.927 82.5493 179.829 82.5508 179.705C82.5522 179.58 82.4594 179.477 82.3432 179.474C82.2679 179.473 80.602 179.401 80.1714 176.986C80.1495 176.863 80.0398 176.782 79.9243 176.806C79.8096 176.829 79.7343 176.949 79.757 177.071C80.2548 179.862 82.3154 179.927 82.3366 179.927C82.3366 179.927 82.3388 179.928 82.3402 179.928Z" fill="#21972B"/>
<path d="M91.5903 210.56C91.5903 210.56 92.5208 218.177 90.6261 221.905C90.6261 221.905 81.2045 222.612 74.3545 219.724C74.3545 219.724 76.0657 214.407 76.092 209.216L91.5903 210.56Z" fill="#21972B"/>
<path d="M86.5589 202.499C86.5647 202.499 86.5713 202.499 86.5771 202.498C86.6933 202.487 86.7796 202.377 86.7686 202.252C86.295 196.605 88.2679 182.349 88.2876 182.205C88.3052 182.081 88.2255 181.966 88.11 181.947C87.9945 181.928 87.887 182.014 87.8695 182.138C87.849 182.282 85.8688 196.592 86.3476 202.292C86.3578 202.41 86.4499 202.5 86.5589 202.499Z" fill="white"/>
<path d="M79.5905 201.393C79.5963 201.393 79.6029 201.393 79.6087 201.392C79.725 201.381 79.8105 201.271 79.8003 201.146C79.3266 195.499 81.366 181.131 81.3865 180.987C81.404 180.863 81.3251 180.748 81.2096 180.729C81.0941 180.71 80.9866 180.795 80.9684 180.919C80.9479 181.064 78.9004 195.487 79.3785 201.188C79.3894 201.305 79.4823 201.394 79.5905 201.393Z" fill="white"/>
<path d="M106.721 238.611C106.721 238.611 104.375 242.022 104.568 243.787C104.762 245.552 106.886 248.878 108.584 249.039C110.282 249.2 106.633 244.764 107.494 244.908C108.536 245.081 115.572 251.271 117.057 251.271C118.542 251.271 115.31 248.395 114.052 247.667C114.052 247.667 117.381 249.264 118.155 250.095C118.93 250.926 119.492 249.144 115.62 246.617C115.62 246.617 119.172 248.779 119.414 248.814C120.204 248.927 117.95 246.092 116.009 245.067C116.009 245.067 118.856 246.554 119.146 246.56C119.546 246.57 118.688 245.57 116.574 244.314C114.672 243.183 111.556 237.994 111.556 237.994L106.721 238.611Z" fill="#FAB083"/>
<path d="M101.014 178.888C101.014 178.888 108.91 195.152 110.709 212.163L111.556 237.994C111.556 237.994 110.744 239.835 106.72 238.611L102.829 212.783L99.8462 200.966C99.8462 200.966 98.4902 186.423 101.014 178.888Z" fill="#6BCB77"/>
<path d="M76.762 161.303C77.6012 166.392 82.1274 169.788 86.8722 168.888C91.617 167.989 94.7836 163.135 93.9452 158.046C93.106 152.958 88.5798 149.563 83.835 150.462C79.0902 151.361 75.9236 156.215 76.762 161.303Z" fill="#06310B"/>
<path d="M76.6302 159.624C76.6302 159.624 74.0784 159.365 73.9819 156.772C73.9 154.564 76.4913 155.514 76.006 153.87C75.5206 152.225 74.8072 150.781 76.7698 149.974C78.4869 149.269 78.7318 150.569 80.753 148.232C83.1411 145.47 86.114 150.252 88.6008 149.942C92.2681 149.483 93.0897 151.598 93.7366 153.291C94.3836 154.985 93.1906 156.485 93.1906 156.485L76.6302 159.624Z" fill="#06310B"/>
<path d="M78.6303 163.608C78.6303 163.608 76.9483 161.92 76.202 163.721C75.4549 165.521 77.669 170.003 79.9556 168.373L78.6303 163.608Z" fill="#FC8664"/>
<path d="M79.1731 167.007C79.0817 167.024 78.9867 166.975 78.9443 166.881C78.3186 165.487 76.8032 165.161 76.7879 165.158C76.6724 165.134 76.5971 165.015 76.619 164.891C76.641 164.767 76.7521 164.687 76.8668 164.709C76.9377 164.723 78.6073 165.078 79.328 166.683C79.3785 166.797 79.3346 166.933 79.2286 166.987C79.2104 166.997 79.1921 167.004 79.1731 167.007Z" fill="#FD664D"/>
<path d="M77.6203 166.539C77.5816 166.546 77.5406 166.542 77.5012 166.525C77.393 166.476 77.3418 166.342 77.3871 166.226C77.3944 166.207 77.5779 165.749 78.0611 165.398C78.1576 165.327 78.2906 165.355 78.3564 165.459C78.4222 165.563 78.3973 165.705 78.2994 165.775C77.9259 166.047 77.7804 166.399 77.7797 166.403C77.7504 166.477 77.689 166.526 77.6203 166.539Z" fill="#FD664D"/>
<path d="M89.9676 170.632L90.7469 175.358C90.7469 175.358 89.2783 177.784 87.5276 178.285C85.7791 178.788 84.3259 176.731 84.3259 176.731L83.5767 172.186L89.9676 170.632Z" fill="#FAB083"/>
<path d="M89.9679 170.632L90.3136 172.729C89.3553 174.375 87.2954 175.131 84.0791 175.229L83.5776 172.187L89.9679 170.632Z" fill="#FC8664"/>
<path d="M92.6131 157.614C92.8339 159.466 93.0495 161.793 93.0254 163.692C93.0196 164.165 92.9984 164.614 92.9589 165.02C92.6051 168.678 91.2703 175.09 84.3655 173.834C81.3158 173.279 79.4219 170.105 78.2552 166.733C77.4636 164.443 77.0082 162.064 76.756 160.349C76.4994 158.599 77.1244 156.837 78.3985 155.708C81.848 152.651 86.0365 152.753 88.8807 153.346C90.8544 153.756 92.3588 155.478 92.6131 157.614Z" fill="#FAB083"/>
<path d="M81.9971 163.606C82.0804 164.11 81.905 164.565 81.606 164.622C81.3071 164.678 80.9971 164.315 80.9138 163.811C80.8305 163.307 81.0059 162.852 81.3049 162.795C81.6038 162.738 81.9138 163.101 81.9971 163.606Z" fill="#06310B"/>
<path d="M88.3394 162.403C88.4227 162.908 88.2473 163.363 87.9483 163.419C87.6493 163.476 87.3394 163.113 87.2561 162.609C87.1727 162.104 87.3482 161.649 87.6472 161.593C87.9461 161.536 88.2561 161.899 88.3394 162.403Z" fill="#06310B"/>
<path d="M79.2317 161.237C79.2317 161.237 81.3289 159.854 83.1973 160.329L83.1951 161.22C83.1951 161.22 81.2412 161.127 79.5219 162.212C79.3399 161.836 79.152 161.674 79.2317 161.237Z" fill="#06310B"/>
<path d="M89.5475 159.281C89.5475 159.281 87.136 158.753 85.5322 159.886L85.8195 160.722C85.8195 160.722 87.625 159.916 89.587 160.303C89.6367 159.884 89.7617 159.663 89.5475 159.281Z" fill="#06310B"/>
<path d="M85.5896 166.632C85.9427 166.564 86.2687 166.351 86.3192 166.316C86.4178 166.249 86.4478 166.109 86.3849 166.002C86.3228 165.896 86.1912 165.863 86.0918 165.931C85.9164 166.049 85.4837 166.264 85.2658 166.175C85.2234 166.158 85.1642 166.12 85.1284 165.986C84.9237 165.216 84.6905 162.55 84.6883 162.523C84.6774 162.398 84.5736 162.306 84.4574 162.318C84.3397 162.329 84.2541 162.44 84.2651 162.566C84.2746 162.677 84.5041 165.301 84.7198 166.111C84.8009 166.416 84.9793 166.546 85.1145 166.602C85.2636 166.662 85.4296 166.662 85.5896 166.632Z" fill="#FC8664"/>
<path d="M83.1826 168.504C83.5057 169.395 84.3544 170.986 86.271 170.622C88.1913 170.258 88.4742 168.604 88.483 167.499L83.1826 168.504Z" fill="white"/>
<path d="M86.4376 171.8C86.9792 171.697 87.39 171.315 87.4076 171.299C87.496 171.216 87.5048 171.072 87.4273 170.978C87.3498 170.883 87.2153 170.874 87.1276 170.957C87.1247 170.96 86.7863 171.271 86.3638 171.351C85.9763 171.425 85.5663 171.256 85.5619 171.255C85.4529 171.209 85.3294 171.265 85.2856 171.383C85.2424 171.499 85.2951 171.632 85.4047 171.679C85.4259 171.687 85.9259 171.897 86.4376 171.8Z" fill="#FC8664"/>
<path d="M78.6624 165.146C78.3517 164.25 77.9979 163.084 78.0111 162.45C78.0366 161.328 78.7684 160.531 78.3166 159.539C77.8649 158.543 78.7099 157.223 79.4387 156.893C80.1653 156.561 82.0051 156.63 83.6031 155.411C85.1286 154.246 88.1242 154.305 88.7857 155.362C89.5854 156.642 88.8303 156.92 90.6358 158.126C91.3551 158.606 90.8749 160.299 90.9363 161.33C90.9655 161.804 90.9962 162.032 91.0956 162.529L91.1439 162.781L93.0086 162.428C92.956 160.821 92.7886 159.071 92.6146 157.614C92.3602 155.479 90.8544 153.758 88.8807 153.346C86.0358 152.753 81.8487 152.65 78.3977 155.708C77.1251 156.837 76.4994 158.598 76.7567 160.349C76.9562 161.708 77.2845 163.487 77.8071 165.309L78.6624 165.146Z" fill="#06310B"/>
<path d="M92.3244 163.447C92.2323 162.925 92.1804 162.395 92.1812 161.865C92.1812 161.138 92.2667 160.463 92.8902 160.042C93.3924 159.704 93.9691 159.589 94.4874 160.165C95.7644 161.582 95.4625 166.803 92.7937 166.113L92.3244 163.447Z" fill="#FAB083"/>
<path d="M93.0323 164.564C93.1186 164.527 93.1763 164.433 93.1668 164.328C93.025 162.788 94.1617 161.665 94.1727 161.654C94.2597 161.569 94.2662 161.425 94.188 161.332C94.1098 161.238 93.9753 161.23 93.8883 161.315C93.835 161.367 92.5806 162.6 92.7436 164.374C92.7553 164.499 92.8591 164.59 92.9761 164.578C92.9958 164.575 93.0148 164.571 93.0323 164.564Z" fill="#FC8664"/>
<path d="M94.1323 163.298C94.1688 163.282 94.2025 163.256 94.2273 163.219C94.296 163.117 94.2748 162.975 94.1798 162.901C94.1637 162.888 93.7858 162.6 93.2025 162.569C93.0855 162.563 92.9854 162.66 92.9802 162.786C92.9744 162.911 93.065 163.019 93.182 163.025C93.633 163.048 93.9276 163.268 93.9305 163.27C93.9905 163.317 94.0672 163.325 94.1323 163.298Z" fill="#FC8664"/>
<path d="M99.0641 235.864C98.9266 236.532 98.6869 237.216 98.3199 237.896C97.2154 239.941 94.9508 241.982 90.7462 243.621C82.0307 247.016 65.3651 245.421 65.3651 245.421C65.5669 252.393 50.073 275.88 50.073 275.88L49.312 275.353L48.5957 274.856L45.6089 272.785C45.6089 272.785 55.8433 233.333 62.8023 232.204C87.4217 228.208 98.5341 230.969 98.5341 230.969C99.0677 232.287 99.4471 234.021 99.0641 235.864Z" fill="#06310B"/>
<path d="M99.064 235.864C98.9266 236.532 98.6868 237.216 98.3199 237.896C94.7322 241.008 88.3456 242.813 79.2873 243.274C72.5974 243.612 66.5076 243.07 64.898 242.906C63.3073 254.912 51.741 271.896 49.312 275.354C49.0817 275.681 48.9348 275.885 48.8844 275.956C48.8018 276.073 48.6753 276.134 48.5488 276.134C48.4582 276.134 48.3661 276.101 48.2886 276.036C48.1037 275.885 48.07 275.598 48.2133 275.4C48.2265 275.382 48.3624 275.194 48.5956 274.857C50.8968 271.567 62.7891 254.059 64.11 242.357C64.1363 242.108 64.3453 241.932 64.5756 241.958C64.849 241.991 91.7981 245.013 99.064 235.864Z" fill="#08550E"/>
<path d="M46.1854 272.784L42.543 277.355L46.893 280.148L50.0728 275.879L46.1854 272.784Z" fill="#FAB083"/>
<path d="M51.1577 275.786C50.6219 277.129 50.2484 277.562 49.4004 278.225C49.4004 278.225 46.66 276.877 43.8442 274.244L45.6081 271.69C45.6081 271.69 47.6921 273.121 51.1577 275.786Z" fill="#58619B"/>
<path d="M43.7781 277.669C43.7781 277.669 43.5545 275.609 42.727 275.178C41.8995 274.748 32.9567 276.173 30.6249 275.303C28.293 274.432 27.2521 276.846 28.13 277.391C30.6599 278.959 44.6517 287.489 44.6517 287.489C44.6517 287.489 47.9155 282.545 48.2422 280.616C48.5704 278.689 45.216 279.064 43.7781 277.669Z" fill="#6BCB77"/>
<path d="M38.427 279.215C38.4884 279.285 38.5753 279.329 38.6718 279.329C38.8597 279.33 39.0117 279.169 39.0139 278.967C39.0147 278.9 39.0169 277.309 38.405 276.308C37.5922 274.974 36.3217 275.115 36.2684 275.122C36.082 275.145 35.9482 275.326 35.9701 275.526C35.9913 275.726 36.1602 275.869 36.3466 275.846C36.3809 275.842 37.2574 275.759 37.8371 276.707C38.3356 277.523 38.3349 278.949 38.3349 278.963C38.3341 279.061 38.3692 279.149 38.427 279.215Z" fill="white"/>
<path d="M39.7822 278.87C39.8436 278.94 39.9306 278.984 40.0271 278.984C40.2149 278.985 40.3677 278.824 40.3692 278.622C40.3699 278.555 40.3721 276.964 39.761 275.963C38.9474 274.628 37.6777 274.77 37.6243 274.777C37.4379 274.799 37.3042 274.98 37.3261 275.18C37.3473 275.38 37.5154 275.524 37.7025 275.5C37.7369 275.497 38.6133 275.414 39.193 276.362C39.6937 277.181 39.6901 278.603 39.6901 278.618C39.6893 278.716 39.7244 278.804 39.7822 278.87Z" fill="white"/>
<path d="M36.8503 279.199C36.9117 279.269 36.9987 279.313 37.0952 279.314C37.283 279.314 37.4358 279.153 37.4373 278.951C37.4373 278.884 37.4402 277.293 36.8284 276.292C36.0155 274.958 34.7458 275.099 34.6917 275.106C34.5053 275.128 34.3715 275.31 34.3935 275.509C34.4147 275.709 34.5835 275.853 34.7699 275.829C34.8043 275.826 35.6815 275.743 36.2604 276.691C36.7604 277.51 36.7582 278.933 36.7575 278.947C36.7575 279.044 36.7925 279.133 36.8503 279.199Z" fill="white"/>
<path d="M245.025 270.552L244.008 275.542C244.008 275.542 246.797 277.761 248.767 276.56L249.791 271.687L245.025 270.552Z" fill="#FAB083"/>
<path d="M244.959 275.244C244.959 275.244 244.179 273.545 243.344 273.446C242.51 273.348 235.225 277.508 232.972 277.524C230.718 277.541 230.365 280.478 231.172 280.967C232.092 281.523 248.319 284.14 248.319 284.14C248.319 284.14 249.91 278.08 249.641 276.314C249.371 274.548 246.594 275.972 244.959 275.244Z" fill="#6BCB77"/>
<path d="M240.798 278.329C240.87 278.369 240.958 278.378 241.041 278.347C241.203 278.287 241.288 278.097 241.232 277.924C241.213 277.866 240.761 276.496 239.95 275.836C238.871 274.956 237.818 275.494 237.774 275.517C237.62 275.598 237.556 275.797 237.632 275.962C237.707 276.126 237.893 276.194 238.047 276.114C238.075 276.099 238.806 275.741 239.575 276.365C240.236 276.903 240.642 278.13 240.646 278.142C240.673 278.226 240.73 278.291 240.798 278.329Z" fill="white"/>
<path d="M241.865 277.588C241.937 277.628 242.025 277.638 242.108 277.606C242.27 277.546 242.356 277.356 242.299 277.183C242.28 277.125 241.828 275.756 241.017 275.096C239.937 274.214 238.886 274.753 238.841 274.776C238.687 274.857 238.624 275.056 238.699 275.222C238.774 275.386 238.96 275.455 239.114 275.374C239.143 275.36 239.873 275.001 240.642 275.625C241.307 276.166 241.709 277.39 241.714 277.402C241.741 277.486 241.796 277.55 241.865 277.588Z" fill="white"/>
<path d="M239.437 278.832C239.51 278.872 239.597 278.882 239.681 278.85C239.842 278.79 239.928 278.6 239.871 278.427C239.852 278.369 239.401 277 238.589 276.339C237.509 275.458 236.458 275.997 236.413 276.02C236.26 276.1 236.196 276.3 236.271 276.465C236.347 276.63 236.532 276.698 236.687 276.617C236.715 276.603 237.446 276.244 238.214 276.869C238.878 277.41 239.282 278.633 239.286 278.646C239.313 278.73 239.369 278.795 239.437 278.832Z" fill="white"/>
<path d="M268.044 194.315C267.627 196.237 267.211 198.216 266.787 200.245C264.294 212.232 261.595 226.014 257.627 239.809C256.178 252.179 253.652 260.038 250.252 272.493C249.915 272.565 249.425 272.579 248.856 272.543C248.644 272.528 248.42 272.507 248.188 272.472C246.773 272.288 245.079 271.791 244.008 270.925C244.008 270.925 246.071 255.846 248.929 238.872C250.45 229.815 253.149 207.635 254.432 196.896C254.869 193.208 255.14 190.874 255.14 190.874L265.961 193.761L266.139 193.803L266.602 193.931L268.044 194.315Z" fill="#06310B"/>
<path d="M268.044 194.314C267.627 196.236 267.211 198.216 266.787 200.244L254.432 196.896C254.868 193.208 255.139 190.875 255.139 190.875L265.96 193.762L266.138 193.804L266.601 193.932L268.044 194.314Z" fill="#08550E"/>
<path d="M266.6 193.924V193.931L256.348 239.596C256.335 239.716 254.35 254.668 248.854 272.543C248.642 272.528 248.418 272.507 248.186 272.471C253.69 254.597 255.68 239.617 255.7 239.461L265.958 193.761L266.137 193.803L266.6 193.924Z" fill="#08550E"/>
<path d="M275.59 270.131L276.004 276.686L280.468 275.539V270.131H275.59Z" fill="#FAB083"/>
<path d="M277.571 275.331C277.571 275.331 279.942 274.656 280.597 274.67C281.252 274.685 285.635 279.953 287.113 280.265C289.793 280.83 289.792 285.319 288.161 285.539C283.442 286.178 275.375 284.031 275.375 284.031C275.375 284.031 274.637 278.271 274.962 276.465C275.287 274.659 276.252 275.861 277.571 275.331Z" fill="#6BCB77"/>
<path d="M281.472 280.252C281.388 280.272 281.296 280.256 281.219 280.2C281.069 280.092 281.03 279.874 281.131 279.714C281.164 279.661 281.967 278.394 282.959 277.954C284.28 277.367 285.217 278.219 285.257 278.255C285.394 278.381 285.408 278.603 285.29 278.749C285.172 278.896 284.965 278.912 284.829 278.785C284.803 278.761 284.149 278.186 283.208 278.602C282.4 278.96 281.679 280.094 281.671 280.105C281.624 280.183 281.551 280.233 281.472 280.252Z" fill="white"/>
<path d="M280.569 279.19C280.485 279.209 280.394 279.194 280.317 279.138C280.167 279.03 280.128 278.812 280.229 278.652C280.262 278.598 281.066 277.332 282.058 276.892C283.379 276.305 284.316 277.156 284.355 277.193C284.492 277.319 284.506 277.541 284.388 277.687C284.27 277.834 284.063 277.849 283.927 277.722C283.902 277.7 283.247 277.123 282.307 277.54C281.495 277.9 280.778 279.031 280.77 279.043C280.721 279.121 280.648 279.171 280.569 279.19Z" fill="white"/>
<path d="M282.732 281.156C282.648 281.175 282.557 281.16 282.48 281.104C282.33 280.996 282.291 280.778 282.392 280.617C282.425 280.564 283.228 279.297 284.221 278.857C285.542 278.27 286.479 279.122 286.518 279.158C286.655 279.285 286.669 279.506 286.551 279.652C286.433 279.799 286.227 279.815 286.091 279.688C286.065 279.665 285.41 279.089 284.47 279.505C283.658 279.865 282.941 280.997 282.933 281.008C282.885 281.088 282.812 281.138 282.732 281.156Z" fill="white"/>
<path d="M281.078 270.84C280.033 271.322 278.525 271.464 277.07 271.436C276.845 271.436 276.62 271.429 276.402 271.408C275.866 271.386 275.35 271.337 274.881 271.28L268.485 200.159L267.962 194.315L269.192 194.215L269.854 194.166L280.827 193.307C280.827 193.307 280.821 194.74 280.821 197.074C280.814 205.089 280.854 223.758 281.277 231.822C281.818 242.241 281.078 270.84 281.078 270.84Z" fill="#06310B"/>
<path d="M280.827 193.307C280.827 193.307 280.82 194.74 280.82 197.074L268.484 200.159L267.961 194.315L269.192 194.215L269.853 194.166L280.827 193.307Z" fill="#08550E"/>
<path d="M277.068 271.436C276.843 271.436 276.619 271.429 276.4 271.407L269.19 194.215L269.852 194.166L277.068 271.436Z" fill="#08550E"/>
<path d="M278.163 152.752L281.113 162.914L284.344 172.575C284.863 174.597 286.945 175.638 288.724 174.767C288.755 174.752 288.786 174.738 288.817 174.723C291.89 173.164 290.196 166.702 290.196 166.702L289.615 166.653C289.379 165.944 288.741 164.14 287.929 161.872C287.831 161.593 287.728 161.306 287.624 161.016C287.452 160.534 287.273 160.037 287.091 159.526C286.831 158.805 286.564 158.061 286.292 157.311C284.301 151.772 282.651 145.761 282.651 145.761L281.276 141.384L278.163 152.752Z" fill="#FAB083"/>
<path d="M286.89 168.92C286.89 168.92 287.313 161.558 288.778 159.993C290.243 158.427 291.58 157.83 292.954 157.883C294.327 157.937 295.62 158.119 295.535 158.725C295.535 158.725 298.691 158.214 300.1 159.091C301.509 159.968 295.927 160.735 294.27 160.781C292.613 160.828 291.737 161.821 291.67 162.88C291.603 163.939 290.647 170.954 290.647 170.954L286.89 168.92Z" fill="#FAB083"/>
<path d="M278.62 155.454C278.62 155.454 283.833 173.304 285.027 174.517C286.221 175.73 288.903 176.971 290.366 173.705C291.83 170.439 292.122 161.717 292.122 161.717L288.482 159.9L287.912 161.823L281.334 141.339C281.334 141.339 278.997 154.107 278.62 155.454Z" fill="#6BCB77"/>
<path d="M286.449 168.771C286.463 168.772 286.473 168.772 286.487 168.773C286.604 168.774 286.709 168.683 286.727 168.554C287.176 165.491 287.613 163.179 287.912 161.823C287.813 161.544 287.745 161.273 287.642 160.983C287.362 162.179 286.792 164.76 286.247 168.473C286.227 168.615 286.317 168.747 286.449 168.771Z" fill="#21972B"/>
<path d="M285.218 159.202L306.134 159.352C306.921 159.357 307.562 158.678 307.568 157.835V157.822C307.573 156.978 306.94 156.29 306.154 156.284L285.237 156.134C284.451 156.128 283.809 156.807 283.803 157.651V157.664C283.797 158.507 284.431 159.196 285.218 159.202Z" fill="#08550E"/>
<path d="M307.553 159.362L312.132 141.456C312.389 140.45 311.687 139.456 310.714 139.449L300.885 139.378C300.222 139.374 299.636 139.842 299.453 140.526L294.417 159.268L307.553 159.362Z" fill="#06310B"/>
<path d="M299.453 140.525L294.458 159.113L293.335 159.105L298.329 140.518C298.514 139.834 299.098 139.364 299.762 139.369L300.885 139.377C300.222 139.372 299.637 139.842 299.453 140.525Z" fill="#08550E"/>
<path d="M301.92 150.157C301.657 151.338 302.338 152.302 303.441 152.31C304.544 152.318 305.653 151.366 305.915 150.185C306.178 149.004 305.496 148.04 304.393 148.032C303.29 148.024 302.183 148.976 301.92 150.157Z" fill="#58619B"/>
<path d="M222.993 134.319C222.582 134.37 222.188 134.322 221.853 134.134C220.969 133.637 220.233 133.144 219.808 132.845C219.556 132.66 219.412 132.553 219.412 132.553C219.412 132.553 219.401 132.553 219.394 132.56C219.297 132.578 218.821 132.653 218.02 132.164C217.118 131.608 216.648 130.671 216.762 130.156C216.873 129.641 217.498 129.508 217.498 129.508C217.498 129.508 217.183 129.019 217.339 128.486C217.495 127.949 218.493 127.674 218.493 127.674C218.493 127.674 218.213 127 218.713 126.56C219.19 126.134 220.25 126.942 220.344 127.004C220.202 126.845 217.025 123.275 217.967 123.253C218.931 123.231 222.277 126.515 222.436 126.59C222.591 126.667 223.406 126.608 224.197 126.723C224.987 126.834 225.378 127.223 225.734 128.504C226.09 129.785 225.976 131.853 225.976 131.853C226.221 132.049 226.695 132.507 226.979 132.729C226.979 132.729 227.153 132.83 227.17 132.841C227.764 133.208 237.085 138.795 240.073 141.295C240.076 141.295 240.076 141.299 240.079 141.299C240.186 141.388 240.356 141.462 240.58 141.529C243.65 142.421 256.88 141.351 256.88 141.351L257.564 149.109C257.564 149.109 244.279 149.954 237.945 146.572C232.948 143.906 224.94 135.878 224.94 135.878L222.993 134.319Z" fill="#FAB083"/>
<path d="M224.076 130.14C224.111 130.149 224.147 130.151 224.184 130.141C224.301 130.112 224.374 129.984 224.347 129.858L224.109 128.786C224.095 128.722 224.056 128.667 224.002 128.635C223.948 128.603 223.885 128.596 223.826 128.617C223.815 128.621 222.684 129.011 221.857 128.52C221.604 128.369 221.452 128.196 221.418 128.019C221.378 127.819 221.495 127.65 221.497 127.649C221.569 127.546 221.552 127.398 221.457 127.319C221.362 127.24 221.226 127.257 221.151 127.358C221.126 127.392 220.91 127.698 220.986 128.107C221.046 128.429 221.268 128.707 221.644 128.932C222.401 129.383 223.315 129.237 223.735 129.132L223.92 129.967C223.939 130.054 224.001 130.118 224.076 130.14Z" fill="#FC8664"/>
<path d="M219.392 132.558C219.404 132.553 219.41 132.552 219.41 132.552C219.41 132.552 219.554 132.662 219.809 132.842C220.299 132.478 220.467 131.923 220.609 131.457C220.732 131.052 220.839 130.7 221.106 130.499C221.383 130.292 221.541 130.021 221.627 129.743C221.714 129.476 221.731 129.202 221.721 128.973C221.718 128.887 221.712 128.807 221.703 128.738C221.682 128.556 221.65 128.435 221.646 128.419C221.613 128.294 221.491 128.22 221.375 128.257C221.258 128.292 221.19 128.422 221.223 128.547C221.224 128.549 221.228 128.568 221.235 128.603C221.265 128.745 221.325 129.134 221.231 129.509C221.175 129.735 221.062 129.956 220.853 130.114C220.466 130.405 220.325 130.865 220.19 131.311C220.037 131.816 219.891 132.298 219.392 132.558Z" fill="#FC8664"/>
<path d="M222.766 131.717C222.845 131.74 222.934 131.713 222.991 131.642C223.069 131.542 223.057 131.394 222.964 131.31C222.953 131.3 221.858 130.285 222.053 128.963C222.072 128.834 221.989 128.713 221.87 128.693C221.75 128.672 221.638 128.76 221.619 128.889C221.385 130.477 222.627 131.622 222.681 131.67C222.706 131.693 222.736 131.708 222.766 131.717Z" fill="#FC8664"/>
<path d="M281.936 193.525C276.71 194.821 272.486 195.483 268.315 195.524C268.289 195.524 268.263 195.527 268.239 195.524C268.213 195.527 268.188 195.524 268.161 195.524C263.989 195.483 259.768 194.821 254.539 193.525C253.808 183.476 257.009 177.115 256.653 165.851C256.65 165.754 256.647 165.655 256.644 165.558C256.628 165.071 256.607 164.589 256.585 164.108C256.544 163.195 256.493 162.291 256.435 161.402C256.404 160.915 256.37 160.431 256.335 159.953C255.614 150.221 254.176 142.511 254.956 141.456C255.802 140.31 257.956 138.958 260.144 137.703C262.22 136.515 264.326 135.414 265.382 134.661C266.429 135.15 267.263 135.417 268.161 135.413C268.185 135.413 268.212 135.413 268.239 135.41C268.263 135.413 268.29 135.413 268.315 135.413C269.212 135.418 270.047 135.15 271.095 134.661C272.074 135.359 273.919 136.333 275.8 137.396C278.087 138.689 280.429 140.112 281.333 141.338C282.146 142.438 280.689 150.869 280.042 161.217C280.014 161.681 279.987 162.149 279.961 162.621C279.906 163.641 279.86 164.677 279.826 165.723C279.825 165.765 279.823 165.808 279.822 165.849C279.809 166.263 279.8 166.67 279.797 167.07C279.695 177.587 282.64 183.845 281.936 193.525Z" fill="#6BCB77"/>
<path d="M276.696 180.821H276.695C271.427 180.796 266.93 178.226 264.086 176.073C261.01 173.746 259.145 171.387 259.127 171.364C259.037 171.249 259.051 171.078 259.158 170.98C259.265 170.884 259.425 170.899 259.515 171.013C259.533 171.037 261.363 173.35 264.39 175.637C267.172 177.74 271.566 180.253 276.696 180.277C276.837 180.278 276.949 180.4 276.949 180.55C276.949 180.7 276.836 180.821 276.696 180.821Z" fill="#21972B"/>
<path d="M271.207 182.741C266.635 182.741 262.077 179.947 261.87 179.818C261.749 179.743 261.708 179.577 261.778 179.447C261.848 179.317 262.003 179.273 262.124 179.347C262.178 179.38 267.542 182.665 272.297 182.138C272.439 182.121 272.561 182.231 272.576 182.38C272.591 182.529 272.489 182.663 272.35 182.679C271.969 182.721 271.588 182.741 271.207 182.741Z" fill="#21972B"/>
<path d="M267.159 148.399C267.04 148.399 266.933 148.308 266.911 148.178C266.884 148.03 266.975 147.888 267.113 147.86C273.535 146.553 275.471 142.123 275.49 142.078C275.547 141.942 275.697 141.881 275.825 141.943C275.952 142.005 276.009 142.165 275.952 142.303C275.87 142.495 273.886 147.036 267.207 148.395C267.191 148.397 267.175 148.399 267.159 148.399Z" fill="#21972B"/>
<path d="M268.77 139.91C265.081 140.318 263.73 135.529 263.716 135.48C263.688 135.375 263.743 135.267 263.841 135.237C263.938 135.207 264.039 135.266 264.067 135.37C264.12 135.562 265.399 140.08 268.946 139.491C272.05 138.977 271.877 135.243 271.868 135.085C271.863 134.976 271.938 134.883 272.039 134.877C272.14 134.871 272.227 134.952 272.233 135.06C272.235 135.103 272.437 139.31 269.001 139.878C268.923 139.891 268.846 139.902 268.77 139.91Z" fill="white"/>
<path d="M261.253 123.938C261.253 123.938 258.217 118.373 260.777 114.077C263.337 109.78 268.774 110.186 270.183 110.523C271.591 110.861 279.7 114.938 274.795 124.826L261.253 123.938Z" fill="#06310B"/>
<path d="M261.761 122.363C261.761 122.363 260.532 120.606 259.618 122.059C258.704 123.511 259.996 127.802 262.233 126.755L261.761 122.363Z" fill="#FC8664"/>
<path d="M261.744 125.429C261.662 125.429 261.586 125.37 261.562 125.281C261.216 123.956 259.936 123.419 259.923 123.414C259.825 123.374 259.776 123.257 259.813 123.152C259.85 123.048 259.959 122.995 260.056 123.035C260.116 123.059 261.526 123.646 261.925 125.172C261.954 125.279 261.895 125.391 261.795 125.422C261.778 125.426 261.761 125.429 261.744 125.429Z" fill="#FD664D"/>
<path d="M260.453 124.762C260.418 124.762 260.383 124.752 260.35 124.73C260.263 124.669 260.237 124.544 260.294 124.449C260.304 124.433 260.53 124.063 261.004 123.836C261.099 123.79 261.211 123.836 261.254 123.938C261.296 124.04 261.254 124.16 261.159 124.206C260.793 124.382 260.614 124.666 260.613 124.668C260.576 124.729 260.515 124.762 260.453 124.762Z" fill="#FD664D"/>
<path d="M274.422 122.363C274.422 122.363 275.651 120.606 276.565 122.059C277.479 123.511 276.187 127.802 273.95 126.755L274.422 122.363Z" fill="#FC8664"/>
<path d="M274.438 125.429C274.521 125.429 274.597 125.37 274.62 125.281C274.967 123.956 276.247 123.419 276.26 123.414C276.357 123.374 276.407 123.257 276.37 123.152C276.332 123.048 276.224 122.995 276.126 123.035C276.066 123.059 274.656 123.646 274.257 125.172C274.229 125.279 274.288 125.391 274.388 125.422C274.404 125.426 274.422 125.429 274.438 125.429Z" fill="#FD664D"/>
<path d="M275.73 124.762C275.765 124.762 275.801 124.752 275.833 124.73C275.92 124.669 275.946 124.544 275.889 124.449C275.879 124.433 275.653 124.063 275.179 123.836C275.084 123.79 274.972 123.836 274.929 123.938C274.887 124.04 274.929 124.16 275.024 124.206C275.39 124.382 275.569 124.666 275.57 124.668C275.607 124.729 275.668 124.762 275.73 124.762Z" fill="#FD664D"/>
<path d="M271.116 130.394V134.661C271.116 134.661 269.93 136.833 268.325 136.982C266.722 137.131 265.297 135.11 265.297 135.11V130.693L271.116 130.394Z" fill="#FAB083"/>
<path d="M271.116 130.394V132.287C270.039 133.569 268.127 133.888 265.297 133.44V130.693L271.116 130.394Z" fill="#FC8664"/>
<path d="M275.311 119.436C275.237 121.094 275.09 123.168 274.795 124.826C274.721 125.24 274.638 125.629 274.546 125.977C273.708 129.122 271.614 134.514 265.75 132.267C263.16 131.276 261.96 128.183 261.425 125.037C261.062 122.9 261.007 120.741 261.034 119.199C261.062 117.625 261.863 116.185 263.141 115.409C266.602 113.305 270.254 114.089 272.659 115.08C274.328 115.767 275.396 117.524 275.311 119.436Z" fill="#FAB083"/>
<path d="M266.511 113.361C266.511 113.361 274.249 126.67 275.316 121.789C276.828 114.871 272.206 110.591 266.511 113.361Z" fill="#06310B"/>
<path d="M266.189 113.36C261.04 113.401 258.479 119.675 260.867 120.418C264.19 121.452 267.071 116.408 267.958 114.658C267.362 114.236 266.764 113.815 266.189 113.36Z" fill="#06310B"/>
<path d="M275.57 110.376C275.57 113.392 273.29 115.837 270.478 115.837C267.666 115.837 265.386 113.392 265.386 110.376C265.386 107.361 267.666 104.916 270.478 104.916C273.29 104.915 275.57 107.36 275.57 110.376Z" fill="#06310B"/>
<path d="M261.934 119.822C261.934 119.822 262.334 121.491 261.787 122.613C261.241 123.736 261.541 125.659 261.787 127.821C261.787 127.821 260.918 126.504 260.868 124.393C260.817 122.281 261.139 120.524 260.868 119.68L261.934 119.822Z" fill="#06310B"/>
<path d="M274.091 119.822C274.091 119.822 273.691 121.491 274.237 122.613C274.784 123.736 274.484 125.659 274.237 127.821C274.237 127.821 275.107 126.504 275.157 124.393C275.207 122.281 274.886 120.524 275.157 119.68L274.091 119.822Z" fill="#06310B"/>
<path d="M265.509 122.613C265.509 123.069 265.29 123.438 265.02 123.438C264.751 123.438 264.531 123.069 264.531 122.613C264.531 122.158 264.751 121.789 265.02 121.789C265.291 121.789 265.509 122.158 265.509 122.613Z" fill="#06310B"/>
<path d="M271.547 122.613C271.547 123.069 271.328 123.438 271.058 123.438C270.789 123.438 270.569 123.069 270.569 122.613C270.569 122.158 270.789 121.789 271.058 121.789C271.328 121.789 271.547 122.158 271.547 122.613Z" fill="#06310B"/>
<path d="M264.052 120.158C264.458 120.035 265.278 119.825 266.143 119.822C266.371 119.821 266.545 120.038 266.505 120.279L266.504 120.285C266.471 120.477 266.311 120.613 266.13 120.603C265.541 120.574 263.996 120.663 263.266 120.98C263.251 120.843 263.326 120.694 263.433 120.563C263.594 120.362 263.814 120.229 264.052 120.158Z" fill="#06310B"/>
<path d="M271.952 120.174C271.545 120.051 270.725 119.841 269.86 119.838C269.632 119.837 269.458 120.054 269.498 120.295L269.499 120.301C269.531 120.493 269.691 120.629 269.873 120.62C270.461 120.59 272.007 120.679 272.737 120.996C272.751 120.86 272.677 120.711 272.57 120.579C272.41 120.379 272.189 120.247 271.952 120.174Z" fill="#06310B"/>
<path d="M268.157 126.376C268.013 126.376 267.867 126.348 267.746 126.271C267.636 126.2 267.499 126.056 267.472 125.775C267.4 125.031 267.578 122.695 267.585 122.596C267.594 122.485 267.684 122.402 267.789 122.41C267.893 122.42 267.97 122.518 267.961 122.629C267.959 122.652 267.779 125.026 267.847 125.733C267.859 125.856 267.906 125.9 267.94 125.922C268.118 126.036 268.528 125.92 268.698 125.845C268.795 125.803 268.905 125.853 268.945 125.957C268.984 126.06 268.938 126.178 268.841 126.221C268.792 126.243 268.476 126.376 268.157 126.376Z" fill="#FC8664"/>
<path d="M265.756 127.656C265.899 128.427 266.374 129.845 267.974 129.845C269.578 129.845 270.028 128.549 270.182 127.656H265.756Z" fill="white"/>
<path d="M267.952 131.029C267.49 131.029 267.082 130.762 267.065 130.751C266.977 130.692 266.949 130.567 267.004 130.472C267.059 130.377 267.175 130.347 267.263 130.406C267.266 130.408 267.599 130.624 267.951 130.624C268.332 130.624 268.673 130.407 268.677 130.405C268.766 130.347 268.882 130.378 268.936 130.474C268.99 130.57 268.962 130.693 268.873 130.751C268.856 130.763 268.441 131.029 267.952 131.029Z" fill="#FC8664"/>
<path d="M226.985 132.504L224.354 136.228C224.354 136.228 234.27 145.34 239.169 147.141C244.069 148.943 255.435 150.613 255.435 150.613C256.262 147.564 255.876 144.511 254.958 141.456C254.958 141.456 243.256 141.753 239.894 139.934C232.691 136.038 226.985 132.504 226.985 132.504Z" fill="#6BCB77"/>
<path d="M223.429 41.8187C223.363 41.8257 223.295 41.8163 223.23 41.7873C222.54 41.4753 222.136 41.3295 222.132 41.3287C221.921 41.2527 221.806 41.0081 221.877 40.7816C221.948 40.5551 222.176 40.4328 222.387 40.508C222.404 40.5143 222.821 40.664 223.543 40.9909C223.748 41.0834 223.844 41.3374 223.757 41.5576C223.699 41.7066 223.57 41.8022 223.429 41.8187Z" fill="#68A16C" fill-opacity="0.3"/>
<path d="M243.986 65.0189C244.26 65.8036 244.517 66.6133 244.75 67.4246C244.807 67.6261 244.989 67.7491 245.177 67.728C245.203 67.7248 245.228 67.7194 245.253 67.7115C245.466 67.641 245.586 67.3995 245.52 67.1714C245.283 66.3429 245.021 65.5175 244.741 64.7164C244.663 64.4929 244.431 64.3793 244.222 64.4632C244.013 64.5463 243.908 64.7955 243.986 65.0189Z" fill="#68A16C" fill-opacity="0.3"/>
<path d="M245.378 69.8757C245.563 70.6886 245.73 71.525 245.874 72.363C245.913 72.5864 246.105 72.7376 246.313 72.7141C246.323 72.7133 246.334 72.711 246.344 72.7094C246.563 72.6655 246.708 72.4398 246.667 72.2054C246.52 71.3518 246.349 70.4997 246.161 69.6712C246.109 69.4391 245.89 69.2972 245.674 69.3537C245.458 69.4093 245.325 69.6437 245.378 69.8757Z" fill="#68A16C" fill-opacity="0.3"/>
<path d="M246.59 74.39C246.369 74.4214 246.213 74.6377 246.242 74.8745C246.29 75.2656 246.333 75.6607 246.371 76.0487C246.416 76.4963 246.454 76.9541 246.487 77.4071C246.505 77.6454 246.698 77.8234 246.921 77.8046C246.924 77.8038 246.928 77.8038 246.932 77.803C247.148 77.7787 247.308 77.5733 247.291 77.339C247.258 76.878 247.217 76.4124 247.173 75.957C247.134 75.5619 247.09 75.1598 247.042 74.7616C247.013 74.528 246.817 74.3626 246.6 74.3869C246.597 74.39 246.594 74.39 246.59 74.39Z" fill="#68A16C" fill-opacity="0.3"/>
<path d="M243.086 62.6689C243.159 62.8437 243.327 62.9417 243.497 62.9229C243.538 62.9182 243.579 62.9064 243.619 62.8876C243.822 62.7904 243.913 62.5341 243.823 62.3162C243.494 61.5284 243.139 60.7429 242.765 59.9818C242.661 59.7702 242.418 59.6894 242.22 59.8C242.023 59.9113 241.947 60.1731 242.051 60.3839C242.416 61.1294 242.764 61.8984 243.086 62.6689Z" fill="#68A16C" fill-opacity="0.3"/>
<path d="M225.372 42.8613C226.065 43.2407 226.764 43.6538 227.45 44.0897C227.527 44.1391 227.614 44.1571 227.698 44.1477C227.82 44.1336 227.935 44.0599 228.002 43.9376C228.116 43.7322 228.052 43.4665 227.861 43.345C227.16 42.9005 226.446 42.478 225.739 42.0908C225.541 41.9826 225.297 42.0665 225.196 42.2789C225.095 42.4921 225.174 42.7532 225.372 42.8613Z" fill="#68A16C" fill-opacity="0.3"/>
<path d="M231.384 46.9352C231.47 47.0049 231.573 47.0324 231.671 47.0214C231.778 47.0096 231.88 46.9524 231.949 46.8536C232.084 46.6639 232.051 46.3927 231.874 46.2477C231.235 45.7249 230.573 45.2153 229.907 44.7341C229.723 44.6008 229.473 44.6525 229.348 44.8509C229.223 45.0492 229.272 45.318 229.456 45.4513C230.109 45.9224 230.758 46.4225 231.384 46.9352Z" fill="#68A16C" fill-opacity="0.3"/>
<path d="M238.161 54.0166C238.25 54.1357 238.386 54.1914 238.519 54.1765C238.592 54.1679 238.665 54.1373 238.728 54.084C238.902 53.9351 238.93 53.6623 238.79 53.4757C238.289 52.8047 237.761 52.14 237.219 51.5011C237.069 51.3248 236.814 51.3114 236.649 51.4721C236.484 51.6328 236.472 51.9064 236.622 52.0828C237.152 52.7091 237.67 53.3597 238.161 54.0166Z" fill="#68A16C" fill-opacity="0.3"/>
<path d="M234.975 50.2556C235.064 50.3489 235.184 50.3889 235.299 50.3755C235.389 50.3654 235.477 50.3222 235.545 50.247C235.7 50.0761 235.697 49.8017 235.537 49.6356C234.963 49.0367 234.363 48.4472 233.752 47.8828C233.583 47.7268 233.329 47.7472 233.183 47.9283C233.038 48.1094 233.057 48.3822 233.226 48.5381C233.824 49.0916 234.413 49.6693 234.975 50.2556Z" fill="#68A16C" fill-opacity="0.3"/>
<path d="M240.882 58.175C240.966 58.3224 241.119 58.3969 241.269 58.3796C241.327 58.3733 241.384 58.353 241.436 58.3185C241.626 58.1938 241.686 57.9273 241.57 57.7235C241.151 56.9882 240.705 56.2577 240.244 55.5522C240.116 55.357 239.865 55.3092 239.682 55.4464C239.5 55.5835 239.455 55.8532 239.583 56.0492C240.035 56.7398 240.472 57.4554 240.882 58.175Z" fill="#68A16C" fill-opacity="0.3"/>
<path d="M206.218 29.0162L202.968 42.1847L220.746 47.2292L223.995 34.0607L206.218 29.0162Z" fill="#21972B"/>
<path d="M215.143 38.8338L220.236 47.0778L220.751 47.2236L220.834 46.8881L215.64 38.4811L215.143 38.8338Z" fill="#05510E"/>
<path d="M203.045 41.8878L202.973 42.1794L203.535 42.3385L211.764 37.8752L211.495 37.3053L203.045 41.8878Z" fill="#05510E"/>
<path d="M224.001 34.0552L213.02 40.0103L206.223 29.0103L224.001 34.0552Z" fill="#6BCB77"/>
<path d="M274.79 57.7579C272.339 57.7579 270.345 55.6195 270.345 52.9912C270.345 50.3629 272.339 48.2245 274.79 48.2245C277.241 48.2245 279.235 50.3629 279.235 52.9912C279.235 55.6195 277.241 57.7579 274.79 57.7579ZM274.79 49.7201C273.108 49.7201 271.74 51.1875 271.74 52.9912C271.74 54.7949 273.108 56.2623 274.79 56.2623C276.472 56.2623 277.841 54.7949 277.841 52.9912C277.841 51.1875 276.472 49.7201 274.79 49.7201Z" fill="#6BCB77"/>
<path d="M297.381 62.6072C294.93 62.6072 292.936 60.4688 292.936 57.8405C292.936 55.2121 294.93 53.0737 297.381 53.0737C299.832 53.0737 301.826 55.2121 301.826 57.8405C301.826 60.4688 299.831 62.6072 297.381 62.6072ZM297.381 54.5694C295.699 54.5694 294.331 56.0368 294.331 57.8405C294.331 59.6441 295.699 61.1116 297.381 61.1116C299.063 61.1116 300.432 59.6441 300.432 57.8405C300.431 56.0368 299.063 54.5694 297.381 54.5694Z" fill="#21972B"/>
<path d="M308.085 72.3387C307.699 72.3387 307.387 72.004 307.387 71.5909V68.294C307.387 67.8809 307.699 67.5461 308.085 67.5461C308.47 67.5461 308.782 67.8809 308.782 68.294V71.5909C308.782 72.0048 308.47 72.3387 308.085 72.3387Z" fill="#6BCB77"/>
<path d="M308.085 78.1089C307.699 78.1089 307.387 77.7742 307.387 77.3611V74.0641C307.387 73.651 307.699 73.3163 308.085 73.3163C308.47 73.3163 308.782 73.651 308.782 74.0641V77.3611C308.782 77.7742 308.47 78.1089 308.085 78.1089Z" fill="#6BCB77"/>
<path d="M312.401 73.5758H309.638C309.253 73.5758 308.941 73.2411 308.941 72.828C308.941 72.4149 309.253 72.0802 309.638 72.0802H312.401C312.786 72.0802 313.098 72.4149 313.098 72.828C313.098 73.2411 312.786 73.5758 312.401 73.5758Z" fill="#6BCB77"/>
<path d="M306.532 73.5758H303.769C303.384 73.5758 303.072 73.2411 303.072 72.828C303.072 72.4149 303.384 72.0802 303.769 72.0802H306.532C306.917 72.0802 307.229 72.4149 307.229 72.828C307.228 73.2411 306.916 73.5758 306.532 73.5758Z" fill="#6BCB77"/>
<path d="M284.345 66.9623C283.96 66.9623 283.647 66.6276 283.647 66.2145V62.9175C283.647 62.5044 283.96 62.1697 284.345 62.1697C284.73 62.1697 285.042 62.5044 285.042 62.9175V66.2145C285.042 66.6276 284.73 66.9623 284.345 66.9623Z" fill="#21972B"/>
<path d="M284.345 72.7323C283.96 72.7323 283.647 72.3976 283.647 71.9845V68.6875C283.647 68.2744 283.96 67.9397 284.345 67.9397C284.73 67.9397 285.042 68.2744 285.042 68.6875V71.9845C285.042 72.3976 284.73 72.7323 284.345 72.7323Z" fill="#21972B"/>
<path d="M288.66 68.1984H285.898C285.513 68.1984 285.201 67.8637 285.201 67.4506C285.201 67.0375 285.513 66.7028 285.898 66.7028H288.66C289.046 66.7028 289.358 67.0375 289.358 67.4506C289.358 67.8645 289.046 68.1984 288.66 68.1984Z" fill="#21972B"/>
<path d="M282.792 68.1984H280.029C279.644 68.1984 279.332 67.8637 279.332 67.4506C279.332 67.0375 279.644 66.7028 280.029 66.7028H282.792C283.177 66.7028 283.489 67.0375 283.489 67.4506C283.488 67.8645 283.176 68.1984 282.792 68.1984Z" fill="#21972B"/>
<path d="M14.7559 164.112C14.7559 166.74 12.7618 168.879 10.3108 168.879C7.85984 168.879 5.86572 166.74 5.86572 164.112C5.86572 161.484 7.85984 159.345 10.3108 159.345C12.7618 159.346 14.7559 161.485 14.7559 164.112ZM7.26043 164.112C7.26043 165.916 8.62883 167.383 10.3108 167.383C11.9928 167.383 13.3612 165.916 13.3612 164.112C13.3612 162.308 11.9928 160.841 10.3108 160.841C8.62883 160.841 7.26043 162.308 7.26043 164.112Z" fill="#6BCB77"/>
<path d="M19.2779 139.887C19.2779 142.516 17.2838 144.654 14.8328 144.654C12.3818 144.654 10.3877 142.516 10.3877 139.887C10.3877 137.259 12.3818 135.121 14.8328 135.121C17.2838 135.121 19.2779 137.259 19.2779 139.887ZM11.7824 139.887C11.7824 141.691 13.1508 143.158 14.8328 143.158C16.5148 143.158 17.8832 141.691 17.8832 139.887C17.8832 138.084 16.5148 136.616 14.8328 136.616C13.1508 136.616 11.7824 138.084 11.7824 139.887Z" fill="#21972B"/>
<path d="M28.3535 128.408C28.3535 128.821 28.0414 129.156 27.6561 129.156H24.5816C24.1964 129.156 23.8843 128.821 23.8843 128.408C23.8843 127.995 24.1964 127.661 24.5816 127.661H27.6561C28.0414 127.661 28.3535 127.996 28.3535 128.408Z" fill="#6BCB77"/>
<path d="M33.7339 128.408C33.7339 128.821 33.4217 129.156 33.0365 129.156H29.962C29.5768 129.156 29.2646 128.821 29.2646 128.408C29.2646 127.995 29.5768 127.661 29.962 127.661H33.0365C33.4217 127.661 33.7339 127.996 33.7339 128.408Z" fill="#6BCB77"/>
<path d="M29.5065 123.78V126.743C29.5065 127.156 29.1944 127.49 28.8092 127.49C28.4239 127.49 28.1118 127.156 28.1118 126.743V123.78C28.1118 123.367 28.4239 123.033 28.8092 123.033C29.1944 123.033 29.5065 123.368 29.5065 123.78Z" fill="#6BCB77"/>
<path d="M29.5065 130.075V133.037C29.5065 133.45 29.1944 133.785 28.8092 133.785C28.4239 133.785 28.1118 133.45 28.1118 133.037V130.075C28.1118 129.662 28.4239 129.327 28.8092 129.327C29.1944 129.327 29.5065 129.662 29.5065 130.075Z" fill="#6BCB77"/>
<path d="M23.3393 153.867C23.3393 154.28 23.0272 154.615 22.642 154.615H19.5675C19.1822 154.615 18.8701 154.28 18.8701 153.867C18.8701 153.454 19.1822 153.119 19.5675 153.119H22.642C23.0272 153.119 23.3393 153.454 23.3393 153.867Z" fill="#21972B"/>
<path d="M28.7202 153.867C28.7202 154.28 28.4081 154.615 28.0228 154.615H24.9483C24.5631 154.615 24.251 154.28 24.251 153.867C24.251 153.454 24.5631 153.119 24.9483 153.119H28.0228C28.4081 153.119 28.7202 153.454 28.7202 153.867Z" fill="#21972B"/>
<path d="M24.4924 149.238V152.2C24.4924 152.613 24.1802 152.948 23.795 152.948C23.4098 152.948 23.0977 152.613 23.0977 152.2V149.238C23.0977 148.825 23.4098 148.49 23.795 148.49C24.181 148.49 24.4924 148.826 24.4924 149.238Z" fill="#21972B"/>
<path d="M24.4924 155.533V158.495C24.4924 158.908 24.1802 159.243 23.795 159.243C23.4098 159.243 23.0977 158.908 23.0977 158.495V155.533C23.0977 155.12 23.4098 154.785 23.795 154.785C24.181 154.785 24.4924 155.12 24.4924 155.533Z" fill="#21972B"/>
<path d="M84.876 50.7305V65.4955C84.876 67.4473 86.3526 69.0308 88.1727 69.0308H113.173L120.72 71.9342C121.495 72.2329 122.237 71.4161 121.94 70.5938L119.085 62.6869V50.7297C119.085 48.7779 117.609 47.1945 115.787 47.1945H88.1727C86.3526 47.1952 84.876 48.7787 84.876 50.7305Z" fill="#6BCB77"/>
<path d="M106.595 58.5332C106.595 59.9457 107.663 61.091 108.979 61.091C110.296 61.091 111.364 59.9457 111.364 58.5332C111.364 57.1207 110.296 55.9762 108.979 55.9762C107.662 55.9762 106.595 57.1207 106.595 58.5332Z" fill="#21972B"/>
<path d="M99.0449 58.5332C99.0449 59.9457 100.113 61.091 101.429 61.091C102.747 61.091 103.814 59.9457 103.814 58.5332C103.814 57.1207 102.747 55.9762 101.429 55.9762C100.113 55.9754 99.0449 57.1207 99.0449 58.5332Z" fill="#21972B"/>
<path d="M91.4961 58.5332C91.4961 59.9457 92.5641 61.091 93.8813 61.091C95.1985 61.091 96.2665 59.9457 96.2665 58.5332C96.2665 57.1207 95.1985 55.9762 93.8813 55.9762C92.5633 55.9754 91.4961 57.1207 91.4961 58.5332Z" fill="#21972B"/>
</svg>
