<svg width="349" height="357" viewBox="0 0 349 357" fill="none" xmlns="http://www.w3.org/2000/svg">
<path d="M301.306 84.1028C304.524 82.722 306.812 79.3276 306.831 75.3285C306.852 70.0892 302.976 65.823 298.173 65.8009C293.372 65.778 289.461 70.007 289.44 75.2464C289.424 79.2826 291.728 82.7177 294.981 84.1028C281.599 86.1649 282.206 101.042 282.206 101.042L313.85 101.192C313.85 101.192 314.571 86.152 301.306 84.1028Z" fill="#F5F5F5"/>
<path d="M114.346 28.5029L93.6668 21.0223L73.1889 28.4022C70.5749 29.646 68.2812 30.3907 68.2812 32.844V45.0584C68.2812 53.5408 70.4876 61.9467 75.0267 69.3673C78.8469 75.6119 84.7617 82.0422 93.8671 86.1291C102.238 83.3902 108.486 76.0889 112.306 69.8442C116.845 62.4236 119.051 54.0177 119.051 45.5354V34.5505C119.052 31.0526 117.212 29.344 114.346 28.5029Z" fill="#F5F5F5"/>
<path d="M100.535 48.2214C100.535 44.987 97.9716 42.3645 94.8097 42.3645C91.6477 42.3645 89.084 44.987 89.084 48.2214C89.084 50.8982 90.8499 53.1309 93.2476 53.8299V62.5864H96.3711V53.8299C98.7694 53.1309 100.535 50.8982 100.535 48.2214Z" fill="#EBEBEB"/>
<path d="M290.187 141.724L293.714 143.677L292.128 146.391L288.569 144.239L288.634 148.244H285.592L285.625 144.206L282.065 146.391L280.512 143.677L284.039 141.724L280.512 139.738L282.065 137.024L285.625 139.209L285.592 135.171H288.634L288.569 139.209L292.128 137.024L293.714 139.738L290.187 141.724Z" fill="#E0E0E0"/>
<path d="M304.874 141.724L308.401 143.677L306.815 146.391L303.256 144.239L303.321 148.244H300.28L300.312 144.206L296.753 146.391L295.199 143.677L298.726 141.724L295.199 139.738L296.753 137.024L300.312 139.209L300.28 135.171H303.321L303.256 139.209L306.815 137.024L308.401 139.738L304.874 141.724Z" fill="#E0E0E0"/>
<path d="M319.562 141.724L323.089 143.677L321.503 146.391L317.944 144.239L318.009 148.244H314.968L315 144.206L311.441 146.391L309.887 143.677L313.414 141.724L309.887 139.738L311.441 137.024L315 139.209L314.968 135.171H318.009L317.944 139.209L321.503 137.024L323.089 139.738L319.562 141.724Z" fill="#E0E0E0"/>
<path d="M170.127 312.629V334.808H201.834H236.804V312.629H170.127Z" fill="#F5F5F5"/>
<path d="M167.33 306.428V312.628H239.136V306.428H201.834H167.33Z" fill="#EBEBEB"/>
<path d="M203.233 334.807H236.804V312.628H239.136V306.428H201.834V312.055L203.233 334.807Z" fill="#EBEBEB"/>
<path d="M192.974 316.205H179.453V319.544H192.974V316.205Z" fill="#E0E0E0"/>
<path d="M195.075 323.718H177.712V330.768H195.075V323.718Z" fill="white"/>
<path d="M180.385 284.278V306.457H212.091H247.062V284.278H180.385Z" fill="#F5F5F5"/>
<path d="M177.588 278.078V284.278H249.394V278.078H212.091H177.588Z" fill="#EBEBEB"/>
<path d="M213.491 306.457H247.063V284.278H249.394V278.078H212.091V283.705L213.491 306.457Z" fill="#EBEBEB"/>
<path d="M203.233 287.856H189.711V291.194H203.233V287.856Z" fill="#E0E0E0"/>
<path d="M205.333 295.368H187.971V302.418H205.333V295.368Z" fill="white"/>
<path d="M323.92 334.977C323.92 335.08 257.017 335.163 174.507 335.163C91.9687 335.163 25.0801 335.079 25.0801 334.977C25.0801 334.875 91.9687 334.792 174.507 334.792C257.017 334.792 323.92 334.875 323.92 334.977Z" fill="#263238"/>
<path d="M262.243 161.191H137.556C135.027 161.191 132.977 159.093 132.977 156.507V39.1615C132.977 36.5747 135.027 34.4769 137.556 34.4769H262.243C264.772 34.4769 266.822 36.5739 266.822 39.1615V156.506C266.823 159.093 264.772 161.191 262.243 161.191Z" fill="white"/>
<path d="M262.243 161.191C262.243 161.191 262.354 161.178 262.573 161.164C262.79 161.149 263.116 161.103 263.531 160.98C263.941 160.849 264.443 160.633 264.954 160.24C265.461 159.85 265.987 159.283 266.341 158.502C266.737 157.731 266.817 156.755 266.777 155.689C266.775 154.622 266.772 153.454 266.769 152.191C266.764 149.662 266.759 146.744 266.752 143.461C266.738 130.319 266.719 111.311 266.694 87.8249C266.687 76.0796 266.68 63.2155 266.672 49.4053C266.666 45.956 266.66 42.4474 266.653 38.8831C266.572 37.1538 265.406 35.5258 263.788 34.9289C262.987 34.5876 262.11 34.6426 261.212 34.6405C260.32 34.6412 259.423 34.6412 258.525 34.6419C251.334 34.6441 243.932 34.6469 236.342 34.6498C205.981 34.654 172.603 34.659 137.569 34.6648C136.514 34.6662 135.472 35.0603 134.68 35.7665C133.881 36.464 133.347 37.4651 133.208 38.5254C133.136 39.0466 133.165 39.6092 133.159 40.1654V41.8319C133.159 42.9422 133.159 44.0503 133.159 45.1563C133.159 49.5816 133.158 53.9777 133.158 58.3424C133.157 67.0711 133.156 75.6712 133.155 84.1221C133.152 101.024 133.148 117.327 133.145 132.857C133.142 140.622 133.14 148.194 133.137 155.551C133.14 156.008 133.125 156.479 133.157 156.914C133.204 157.352 133.291 157.788 133.458 158.196C133.78 159.014 134.34 159.725 135.042 160.225C135.746 160.722 136.587 161.006 137.437 161.025C138.314 161.027 139.189 161.03 140.059 161.032C143.548 161.033 146.981 161.036 150.357 161.037C163.858 161.045 176.435 161.053 187.917 161.06C210.877 161.085 229.457 161.105 242.303 161.119C248.72 161.134 253.704 161.146 257.089 161.154C258.776 161.162 260.063 161.168 260.935 161.173C261.799 161.178 262.243 161.191 262.243 161.191C262.243 161.191 261.799 161.203 260.933 161.21C260.062 161.214 258.775 161.22 257.088 161.228C253.703 161.236 248.719 161.248 242.301 161.263C229.455 161.278 210.875 161.298 187.915 161.323C176.433 161.33 163.857 161.337 150.355 161.345C146.98 161.347 143.546 161.349 140.058 161.351C139.184 161.349 138.307 161.347 137.427 161.345C136.517 161.326 135.615 161.023 134.86 160.491C134.108 159.955 133.507 159.195 133.161 158.318C132.983 157.881 132.888 157.414 132.838 156.943C132.803 156.462 132.82 156.015 132.816 155.552C132.813 148.195 132.811 140.623 132.808 132.858C132.805 117.327 132.801 101.024 132.798 84.1228C132.797 75.6719 132.796 67.0711 132.795 58.3431C132.795 53.9792 132.794 49.5824 132.794 45.157C132.794 44.0503 132.794 42.9422 132.794 41.8326V40.1661C132.801 39.6128 132.769 39.0566 132.847 38.4739C132.998 37.3258 133.577 36.2413 134.44 35.4866C135.297 34.7226 136.429 34.2942 137.567 34.2942C172.602 34.2992 205.98 34.3042 236.34 34.3085C243.931 34.3113 251.332 34.3135 258.524 34.3163C259.423 34.3163 260.318 34.317 261.21 34.317C262.083 34.3199 263.036 34.2613 263.897 34.6283C265.63 35.2702 266.877 37.0131 266.962 38.8652C266.966 42.4366 266.969 45.951 266.972 49.4067C266.964 63.2169 266.957 76.081 266.95 87.8263C266.925 111.313 266.906 130.32 266.892 143.462C266.886 146.746 266.88 149.663 266.875 152.192C266.872 153.456 266.869 154.623 266.867 155.691C266.901 156.748 266.813 157.761 266.405 158.537C266.04 159.328 265.502 159.898 264.986 160.287C264.465 160.68 263.955 160.891 263.539 161.019C263.12 161.136 262.791 161.176 262.572 161.185C262.354 161.191 262.243 161.191 262.243 161.191Z" fill="#263238"/>
<path d="M143.077 43.2591C143.077 44.5665 142.042 45.626 140.764 45.626C139.486 45.626 138.45 44.5665 138.45 43.2591C138.45 41.9518 139.486 40.8922 140.764 40.8922C142.042 40.8922 143.077 41.9518 143.077 43.2591Z" fill="#263238"/>
<path d="M147.522 45.626C148.8 45.626 149.836 44.5663 149.836 43.2591C149.836 41.9519 148.8 40.8922 147.522 40.8922C146.244 40.8922 145.208 41.9519 145.208 43.2591C145.208 44.5663 146.244 45.626 147.522 45.626Z" fill="#263238"/>
<path d="M154.28 45.626C155.558 45.626 156.594 44.5663 156.594 43.2591C156.594 41.9519 155.558 40.8922 154.28 40.8922C153.002 40.8922 151.966 41.9519 151.966 43.2591C151.966 44.5663 153.002 45.626 154.28 45.626Z" fill="#263238"/>
<path d="M266.823 49.9736C266.823 50.0764 236.858 50.1592 199.903 50.1592C162.935 50.1592 132.977 50.0757 132.977 49.9736C132.977 49.8715 162.935 49.788 199.903 49.788C236.858 49.788 266.823 49.8715 266.823 49.9736Z" fill="#263238"/>
<path d="M218.806 97.7074C218.806 97.7074 218.859 97.6317 218.966 97.4875C218.993 97.4511 219.023 97.4111 219.056 97.3661C219.087 97.3197 219.114 97.264 219.147 97.2062C219.212 97.0898 219.293 96.957 219.351 96.7899C219.382 96.7078 219.42 96.6229 219.452 96.5293C219.478 96.4344 219.505 96.3344 219.533 96.2287C219.566 96.1245 219.584 96.0124 219.601 95.8946C219.616 95.7768 219.647 95.6554 219.651 95.5261C219.706 95.0121 219.672 94.4123 219.572 93.7497C219.371 92.421 218.821 90.8566 217.978 89.1566C217.136 87.4522 215.977 85.6194 214.553 83.7087C213.129 81.7974 211.416 79.8239 209.447 77.8418C207.476 75.8619 205.245 73.8734 202.744 71.9884C201.492 71.0474 200.172 70.1349 198.781 69.2759C197.391 68.4141 195.926 67.6109 194.38 66.9147C192.833 66.2272 191.202 65.6281 189.482 65.3439C188.625 65.209 187.74 65.1433 186.87 65.2783C186.436 65.3468 186.01 65.4675 185.608 65.6517C185.213 65.8487 184.849 66.1115 184.549 66.4435C184.261 66.7862 184.045 67.1853 183.898 67.6087C183.764 68.0379 183.694 68.4848 183.677 68.9339C183.644 69.8336 183.808 70.7254 184.037 71.5814C184.508 73.2979 185.276 74.888 186.119 76.3817C186.972 77.8739 187.919 79.2726 188.914 80.5871C189.907 81.9037 190.943 83.1418 192 84.3063C194.116 86.634 196.301 88.676 198.448 90.4539C200.597 92.2296 202.71 93.7454 204.728 94.9757C206.746 96.2052 208.658 97.1741 210.408 97.8359C212.156 98.4992 213.738 98.8805 215.051 98.9334C215.706 98.9598 216.292 98.9255 216.785 98.812C216.91 98.7934 217.024 98.7477 217.136 98.7192C217.249 98.6884 217.356 98.6578 217.453 98.6121C217.552 98.5714 217.646 98.5328 217.735 98.4957C217.822 98.4521 217.901 98.4043 217.977 98.3629C218.133 98.285 218.252 98.1879 218.358 98.1087C218.41 98.0687 218.461 98.0344 218.503 97.998C218.543 97.9595 218.579 97.9238 218.611 97.8923C218.738 97.7703 218.806 97.7074 218.806 97.7074C218.806 97.7074 218.744 97.7745 218.618 97.9031C218.586 97.9352 218.551 97.9709 218.512 98.0109C218.47 98.048 218.419 98.083 218.368 98.1237C218.262 98.2044 218.143 98.3036 217.987 98.3836C217.911 98.4264 217.832 98.475 217.746 98.5192C217.656 98.5571 217.562 98.5971 217.462 98.6385C217.365 98.6849 217.257 98.7163 217.144 98.7484C217.031 98.7777 216.916 98.8248 216.79 98.8441C216.295 98.9619 215.706 98.9998 215.048 98.9762C213.729 98.9298 212.141 98.5528 210.388 97.8931C208.631 97.2355 206.713 96.2694 204.69 95.0421C202.666 93.814 200.548 92.2996 198.394 90.5246C196.241 88.7474 194.05 86.7054 191.93 84.3756C190.871 83.2096 189.831 81.9701 188.835 80.6514C187.837 79.3341 186.887 77.9325 186.031 76.4359C185.183 74.938 184.412 73.3422 183.937 71.6114C183.706 70.7482 183.54 69.8471 183.573 68.9318C183.59 68.4748 183.662 68.0179 183.799 67.5773C183.949 67.1411 184.172 66.7298 184.47 66.375C184.781 66.0315 185.156 65.7602 185.562 65.5574C185.975 65.3675 186.411 65.2447 186.852 65.1747C187.737 65.0376 188.631 65.1047 189.496 65.2411C191.23 65.5274 192.867 66.1301 194.418 66.8205C195.968 67.5195 197.438 68.3256 198.83 69.1895C200.224 70.0521 201.546 70.9667 202.798 71.9106C205.302 73.8006 207.534 75.7948 209.505 77.7797C211.474 79.7675 213.186 81.7467 214.61 83.6638C216.032 85.5801 217.189 87.4194 218.028 89.1294C218.868 90.8366 219.415 92.4074 219.61 93.7433C219.708 94.4087 219.739 95.0121 219.681 95.529C219.676 95.659 219.644 95.781 219.628 95.8996C219.61 96.0181 219.591 96.1309 219.558 96.2359C219.529 96.3415 219.501 96.4415 219.474 96.5372C219.441 96.63 219.402 96.7157 219.369 96.7978C219.309 96.9656 219.227 97.0977 219.16 97.2141C219.126 97.2719 219.098 97.3269 219.066 97.3733C219.032 97.4175 219.002 97.4575 218.974 97.4932C218.865 97.636 218.806 97.7074 218.806 97.7074Z" fill="#21972B"/>
<path d="M225.143 82.0616C225.143 82.0616 225.133 81.9688 225.119 81.7881C225.115 81.7431 225.112 81.6924 225.107 81.636C225.099 81.5803 225.084 81.5204 225.071 81.4547C225.043 81.3233 225.018 81.1698 224.951 81.0056C224.921 80.9227 224.894 80.8335 224.858 80.7421C224.815 80.6536 224.77 80.5607 224.723 80.4629C224.68 80.363 224.62 80.2673 224.556 80.1673C224.491 80.0695 224.436 79.9574 224.354 79.8582C224.06 79.4376 223.645 79.0128 223.139 78.5873C222.124 77.7326 220.696 76.9401 218.96 76.2453C217.222 75.547 215.165 74.968 212.859 74.5117C210.552 74.0555 207.99 73.7485 205.231 73.61C202.472 73.475 199.512 73.51 196.419 73.807C194.873 73.957 193.294 74.1747 191.697 74.481C190.099 74.7845 188.482 75.1836 186.875 75.7163C185.274 76.256 183.667 76.9193 182.199 77.879C181.471 78.3616 180.769 78.9157 180.207 79.6083C179.928 79.9546 179.689 80.3351 179.509 80.7464C179.343 81.1626 179.242 81.606 179.234 82.0587C179.242 82.5114 179.341 82.9555 179.507 83.3718C179.687 83.783 179.925 84.1643 180.205 84.5106C180.766 85.2046 181.469 85.758 182.197 86.2413C183.665 87.2017 185.273 87.8657 186.874 88.4055C188.481 88.9388 190.098 89.3372 191.696 89.6414C193.294 89.9477 194.873 90.1655 196.419 90.3154C199.513 90.6117 202.472 90.6474 205.231 90.5118C207.991 90.3732 210.554 90.0662 212.861 89.61C215.166 89.1537 217.224 88.5747 218.96 87.8764C220.696 87.1817 222.125 86.3891 223.139 85.5345C223.645 85.1089 224.059 84.6834 224.353 84.2636C224.435 84.1643 224.49 84.0529 224.556 83.9544C224.619 83.8544 224.68 83.7588 224.722 83.6588C224.77 83.561 224.815 83.4682 224.857 83.3796C224.893 83.2882 224.921 83.199 224.951 83.1162C225.016 82.9519 225.042 82.7984 225.07 82.667C225.083 82.6014 225.099 82.5414 225.106 82.4857C225.111 82.43 225.115 82.3793 225.118 82.3336C225.133 82.1544 225.143 82.0616 225.143 82.0616C225.143 82.0616 225.14 82.1544 225.129 82.3358C225.127 82.3814 225.124 82.4321 225.12 82.4885C225.113 82.5442 225.099 82.6049 225.087 82.6713C225.061 82.8034 225.037 82.9584 224.972 83.124C224.943 83.2075 224.916 83.2975 224.881 83.3896C224.838 83.4789 224.794 83.5731 224.748 83.6716C224.705 83.7723 224.645 83.8694 224.581 83.9701C224.516 84.0693 224.461 84.1822 224.38 84.2821C224.087 84.7069 223.671 85.1368 223.165 85.5666C222.15 86.4298 220.72 87.2302 218.982 87.9321C217.243 88.6375 215.183 89.2223 212.875 89.6835C210.565 90.1455 207.999 90.4568 205.236 90.5996C202.474 90.7388 199.51 90.7067 196.411 90.4125C194.862 90.2633 193.28 90.0462 191.678 89.7406C190.076 89.4372 188.456 89.0381 186.843 88.504C185.237 87.9628 183.622 87.2973 182.142 86.3299C181.408 85.8422 180.697 85.2839 180.126 84.5784C179.842 84.2257 179.598 83.8359 179.413 83.4139C179.242 82.9855 179.14 82.5271 179.132 82.0594C179.14 81.5918 179.244 81.1334 179.415 80.7057C179.599 80.2837 179.844 79.8946 180.129 79.5419C180.7 78.8372 181.41 78.2781 182.144 77.7919C183.625 76.8251 185.239 76.1596 186.845 75.6192C188.458 75.0851 190.078 74.686 191.68 74.3832C193.281 74.0776 194.863 73.8606 196.412 73.7113C199.51 73.4172 202.474 73.385 205.236 73.5243C207.999 73.6671 210.565 73.9784 212.875 74.4396C215.183 74.9009 217.243 75.4856 218.982 76.1911C220.72 76.8929 222.15 77.6926 223.165 78.5566C223.671 78.9864 224.087 79.4162 224.38 79.841C224.461 79.941 224.516 80.0538 224.581 80.1531C224.645 80.2537 224.705 80.3508 224.748 80.4522C224.794 80.5508 224.839 80.645 224.881 80.7342C224.916 80.8264 224.944 80.9163 224.972 80.9999C225.037 81.1655 225.061 81.3204 225.087 81.4525C225.099 81.5189 225.114 81.5789 225.12 81.6353C225.124 81.6917 225.127 81.7424 225.129 81.7881C225.14 81.9688 225.143 82.0616 225.143 82.0616Z" fill="#21972B"/>
<path d="M216.747 62.5865C216.747 62.5865 216.67 62.5372 216.522 62.438C216.485 62.413 216.443 62.3851 216.397 62.3544C216.35 62.3266 216.294 62.3023 216.235 62.273C216.117 62.2152 215.983 62.1417 215.815 62.0938C215.733 62.0674 215.647 62.0346 215.554 62.0081C215.46 61.9889 215.36 61.9682 215.255 61.946C215.152 61.9196 215.04 61.9096 214.925 61.9003C214.809 61.8932 214.688 61.8696 214.562 61.8746C214.056 61.8546 213.473 61.9296 212.835 62.0781C211.553 62.3744 210.065 63.0442 208.465 64.0216C206.861 64.9977 205.153 66.3071 203.388 67.8915C201.622 69.4766 199.815 71.3608 198.018 73.5064C196.222 75.6541 194.437 78.0682 192.771 80.7506C191.939 82.0923 191.14 83.5024 190.398 84.9818C189.653 86.4598 188.971 88.0106 188.399 89.6364C187.835 91.2614 187.363 92.9672 187.205 94.7422C187.132 95.6268 187.129 96.5336 187.321 97.4118C187.417 97.8495 187.564 98.2765 187.772 98.6735C187.992 99.0633 188.273 99.416 188.618 99.6995C188.972 99.9701 189.376 100.162 189.799 100.284C190.227 100.39 190.668 100.431 191.107 100.417C191.986 100.389 192.845 100.16 193.664 99.8673C195.306 99.2682 196.804 98.375 198.202 97.4118C199.599 96.4394 200.897 95.3769 202.111 94.271C203.327 93.1664 204.462 92.0233 205.525 90.8652C207.65 88.5461 209.491 86.1749 211.076 83.8608C212.66 81.5453 213.993 79.2855 215.054 77.1407C216.114 74.9972 216.927 72.9788 217.452 71.1466C217.978 69.3181 218.241 67.6773 218.202 66.3336C218.183 65.6638 218.109 65.0676 217.964 64.5728C217.938 64.4465 217.885 64.3329 217.85 64.2201C217.812 64.1073 217.774 64.0002 217.724 63.9038C217.677 63.806 217.633 63.7125 217.591 63.6239C217.543 63.539 217.49 63.4619 217.445 63.3869C217.358 63.2334 217.255 63.1184 217.171 63.0156C217.128 62.9649 217.091 62.9156 217.053 62.8757C217.012 62.8378 216.975 62.8035 216.942 62.7736C216.813 62.6507 216.747 62.5865 216.747 62.5865C216.747 62.5865 216.817 62.6457 216.951 62.765C216.984 62.795 217.022 62.8285 217.063 62.8657C217.102 62.9056 217.14 62.9542 217.183 63.0049C217.269 63.107 217.375 63.2212 217.463 63.3747C217.51 63.4497 217.563 63.5261 217.613 63.6118C217.656 63.701 217.701 63.7946 217.749 63.8924C217.8 63.9888 217.839 64.0966 217.878 64.2094C217.915 64.3229 217.968 64.4365 217.996 64.5636C218.144 65.0612 218.222 65.6595 218.244 66.3321C218.29 67.6816 218.031 69.3281 217.509 71.1631C216.989 73.0009 216.179 75.0244 215.121 77.1742C214.063 79.3241 212.731 81.5896 211.148 83.9108C209.563 86.2299 207.723 88.6061 205.596 90.9309C204.532 92.0918 203.396 93.2378 202.178 94.3452C200.962 95.4548 199.661 96.5208 198.26 97.4968C196.857 98.4643 195.354 99.3618 193.699 99.9658C192.873 100.261 192.006 100.493 191.111 100.522C190.664 100.536 190.213 100.494 189.774 100.385C189.339 100.261 188.922 100.063 188.555 99.7823C188.199 99.4896 187.908 99.1247 187.683 98.7242C187.469 98.3165 187.319 97.8802 187.221 97.434C187.026 96.5401 187.03 95.624 187.104 94.7322C187.263 92.9429 187.738 91.2307 188.305 89.6007C188.88 87.9699 189.565 86.4155 190.312 84.9347C191.056 83.4524 191.858 82.0408 192.692 80.6978C194.363 78.0125 196.154 75.597 197.954 73.4486C199.757 71.3023 201.57 69.4188 203.341 67.8344C205.112 66.2507 206.826 64.9434 208.437 63.9702C210.043 62.9949 211.539 62.3287 212.827 62.0374C213.469 61.8918 214.056 61.8189 214.564 61.8425C214.691 61.8382 214.811 61.8625 214.929 61.8703C215.045 61.8811 215.157 61.8918 215.261 61.9189C215.366 61.9417 215.465 61.9632 215.56 61.9839C215.653 62.011 215.74 62.0453 215.822 62.0724C215.99 62.1217 216.124 62.1974 216.242 62.2573C216.301 62.288 216.357 62.313 216.404 62.3416C216.45 62.3737 216.491 62.4023 216.528 62.428C216.674 62.5315 216.747 62.5865 216.747 62.5865Z" fill="#21972B"/>
<path d="M178.932 91.7634C179.266 92.1047 179.266 92.6573 178.932 92.9979C178.599 93.3384 178.058 93.3384 177.725 92.9979C177.392 92.6573 177.392 92.1039 177.725 91.7634C178.059 91.4228 178.599 91.4228 178.932 91.7634Z" fill="#21972B"/>
<path d="M227.085 64.7114C227.085 65.1933 226.703 65.5846 226.232 65.5846C225.76 65.5846 225.378 65.194 225.378 64.7114C225.378 64.2294 225.76 63.8381 226.232 63.8381C226.703 63.8381 227.085 64.2294 227.085 64.7114Z" fill="#21972B"/>
<path d="M184.322 94.6344C184.322 94.7572 184.225 94.8565 184.105 94.8565C183.985 94.8565 183.888 94.7572 183.888 94.6344C183.888 94.5116 183.985 94.4124 184.105 94.4124C184.225 94.4124 184.322 94.5116 184.322 94.6344Z" fill="#21972B"/>
<path d="M188.951 70.1713C188.951 70.2941 188.854 70.3933 188.734 70.3933C188.614 70.3933 188.517 70.2941 188.517 70.1713C188.517 70.0485 188.614 69.9492 188.734 69.9492C188.854 69.9492 188.951 70.0485 188.951 70.1713Z" fill="#21972B"/>
<path d="M222.798 82.0615C222.798 82.1843 222.701 82.2836 222.581 82.2836C222.461 82.2836 222.364 82.1843 222.364 82.0615C222.364 81.9387 222.461 81.8395 222.581 81.8395C222.701 81.8402 222.798 81.9394 222.798 82.0615Z" fill="#21972B"/>
<path d="M225.812 71.7185C225.812 71.8413 225.715 71.9406 225.595 71.9406C225.475 71.9406 225.378 71.8413 225.378 71.7185C225.378 71.5957 225.475 71.4965 225.595 71.4965C225.715 71.4965 225.812 71.5957 225.812 71.7185Z" fill="#21972B"/>
<path d="M211.195 86.9404H208.512V72.007C208.512 68.492 205.717 65.6324 202.28 65.6324C198.844 65.6324 196.049 68.492 196.049 72.007V86.9404H193.366V72.007C193.366 66.9791 197.365 62.8885 202.28 62.8885C207.194 62.8885 211.194 66.9791 211.194 72.007V86.9404H211.195Z" fill="#21972B"/>
<g opacity="0.3">
<path d="M211.195 86.9404H208.512V72.007C208.512 68.492 205.717 65.6324 202.28 65.6324C198.844 65.6324 196.049 68.492 196.049 72.007V86.9404H193.366V72.007C193.366 66.9791 197.365 62.8885 202.28 62.8885C207.194 62.8885 211.194 66.9791 211.194 72.007V86.9404H211.195Z" fill="black"/>
</g>
<path d="M212.721 96.0645H191.839C190.971 96.0645 190.268 95.3448 190.268 94.4566V81.9052C190.268 81.017 190.971 80.2972 191.839 80.2972H212.721C213.589 80.2972 214.293 81.017 214.293 81.9052V94.4566C214.293 95.3441 213.589 96.0645 212.721 96.0645Z" fill="#21972B"/>
<g opacity="0.3">
<path d="M204.288 86.1264C204.288 84.9919 203.389 84.0723 202.28 84.0723C201.171 84.0723 200.272 84.9919 200.272 86.1264C200.272 87.0654 200.891 87.8486 201.732 88.0935V91.1644H202.828V88.0935C203.669 87.8486 204.288 87.0654 204.288 86.1264Z" fill="black"/>
</g>
<path d="M191.549 94.5694C191.494 94.5694 191.449 91.9397 191.449 88.6967C191.449 85.453 191.494 82.8241 191.549 82.8241C191.604 82.8241 191.649 85.453 191.649 88.6967C191.648 91.9397 191.603 94.5694 191.549 94.5694Z" fill="#FAFAFA"/>
<path d="M200.707 88.7597C200.701 88.7697 200.613 88.7275 200.472 88.6233C200.331 88.5198 200.142 88.342 199.954 88.0835C199.579 87.5809 199.237 86.6684 199.459 85.683C199.693 84.6999 200.399 84.0416 200.954 83.7638C201.234 83.6189 201.481 83.5468 201.653 83.5189C201.826 83.4903 201.922 83.4932 201.923 83.5046C201.932 83.5432 201.542 83.5803 201.022 83.8902C200.509 84.1865 199.868 84.8212 199.653 85.7295C199.448 86.6391 199.741 87.5009 200.07 88.0007C200.4 88.5176 200.732 88.729 200.707 88.7597Z" fill="#FAFAFA"/>
<path d="M237.95 123.701H163.976C160.384 123.701 157.473 120.722 157.473 117.048V116.229C157.473 112.555 160.384 109.577 163.976 109.577H237.95C241.542 109.577 244.453 112.555 244.453 116.229V117.048C244.453 120.722 241.542 123.701 237.95 123.701Z" fill="#F5F5F5"/>
<path d="M238.59 143.067H164.616C161.024 143.067 158.113 140.089 158.113 136.415V135.596C158.113 131.922 161.024 128.943 164.616 128.943H238.59C242.182 128.943 245.093 131.922 245.093 135.596V136.415C245.093 140.089 242.181 143.067 238.59 143.067Z" fill="#F5F5F5"/>
<path d="M171.22 116.527V114.481H172.047V116.496C172.047 117.19 172.343 117.477 172.843 117.477C173.348 117.477 173.639 117.19 173.639 116.496V114.481H174.455V116.527C174.455 117.602 173.853 118.197 172.838 118.197C171.822 118.197 171.22 117.602 171.22 116.527Z" fill="#263238"/>
<path d="M174.95 117.874L175.215 117.289C175.46 117.451 175.832 117.56 176.168 117.56C176.536 117.56 176.674 117.461 176.674 117.305C176.674 116.845 175.016 117.315 175.016 116.193C175.016 115.66 175.486 115.285 176.286 115.285C176.663 115.285 177.082 115.373 177.342 115.53L177.077 116.109C176.806 115.953 176.536 115.901 176.286 115.901C175.929 115.901 175.776 116.016 175.776 116.162C175.776 116.642 177.435 116.178 177.435 117.284C177.435 117.806 176.96 118.176 176.139 118.176C175.674 118.176 175.204 118.046 174.95 117.874Z" fill="#263238"/>
<path d="M180.597 116.96H178.521C178.597 117.31 178.887 117.524 179.306 117.524C179.597 117.524 179.806 117.435 179.995 117.252L180.418 117.722C180.163 118.02 179.78 118.176 179.285 118.176C178.336 118.176 177.719 117.566 177.719 116.731C177.719 115.89 178.346 115.285 179.184 115.285C179.989 115.285 180.612 115.839 180.612 116.741C180.613 116.804 180.602 116.893 180.597 116.96ZM178.511 116.486H179.863C179.807 116.131 179.547 115.901 179.189 115.901C178.827 115.901 178.567 116.125 178.511 116.486Z" fill="#263238"/>
<path d="M182.848 115.285V116.037C182.781 116.032 182.73 116.027 182.669 116.027C182.23 116.027 181.939 116.271 181.939 116.809V118.134H181.143V115.327H181.903V115.697C182.097 115.426 182.423 115.285 182.848 115.285Z" fill="#263238"/>
<path d="M186.128 116.527V118.134H185.332V116.652C185.332 116.198 185.127 115.989 184.776 115.989C184.393 115.989 184.117 116.229 184.117 116.746V118.134H183.322V115.327H184.082V115.655C184.296 115.415 184.618 115.285 184.99 115.285C185.638 115.285 186.128 115.672 186.128 116.527Z" fill="#263238"/>
<path d="M189.276 116.533V118.135H188.532V117.785C188.384 118.041 188.098 118.176 187.695 118.176C187.052 118.176 186.669 117.811 186.669 117.326C186.669 116.83 187.011 116.486 187.848 116.486H188.48C188.48 116.136 188.276 115.932 187.848 115.932C187.557 115.932 187.256 116.032 187.057 116.194L186.771 115.625C187.072 115.405 187.515 115.285 187.954 115.285C188.791 115.285 189.276 115.682 189.276 116.533ZM188.48 117.247V116.96H187.934C187.562 116.96 187.445 117.101 187.445 117.289C187.445 117.492 187.613 117.628 187.894 117.628C188.158 117.628 188.388 117.503 188.48 117.247Z" fill="#263238"/>
<path d="M194.632 116.527V118.134H193.836V116.652C193.836 116.198 193.637 115.989 193.316 115.989C192.958 115.989 192.709 116.224 192.709 116.725V118.134H191.913V116.652C191.913 116.198 191.724 115.989 191.393 115.989C191.04 115.989 190.79 116.224 190.79 116.725V118.134H189.995V115.327H190.755V115.65C190.959 115.41 191.264 115.285 191.617 115.285C191.999 115.285 192.326 115.436 192.52 115.744C192.739 115.457 193.096 115.285 193.51 115.285C194.163 115.285 194.632 115.672 194.632 116.527Z" fill="#263238"/>
<path d="M198.051 116.96H195.974C196.05 117.31 196.341 117.524 196.759 117.524C197.05 117.524 197.26 117.435 197.448 117.252L197.871 117.722C197.617 118.02 197.233 118.176 196.738 118.176C195.79 118.176 195.173 117.566 195.173 116.731C195.173 115.89 195.8 115.285 196.637 115.285C197.443 115.285 198.065 115.839 198.065 116.741C198.065 116.804 198.056 116.893 198.051 116.96ZM195.964 116.486H197.316C197.26 116.131 197 115.901 196.642 115.901C196.281 115.901 196.02 116.125 195.964 116.486Z" fill="#263238"/>
<path d="M203.31 116.705C203.31 117.639 202.892 118.171 202.265 118.171C201.918 118.171 201.673 118.015 201.566 117.717C201.387 118.01 201.096 118.171 200.693 118.171C200.035 118.171 199.515 117.639 199.515 116.851C199.515 116.068 200.03 115.536 200.693 115.536C201.03 115.536 201.295 115.656 201.479 115.88V115.572H202.172V117.262C202.172 117.513 202.28 117.597 202.418 117.597C202.653 117.597 202.796 117.32 202.796 116.715C202.796 115.656 202.03 114.925 200.897 114.925C199.76 114.925 198.999 115.718 198.999 116.809C198.999 117.921 199.744 118.709 200.877 118.709C201.199 118.709 201.56 118.641 201.882 118.479L202.045 118.959C201.734 119.121 201.28 119.21 200.876 119.21C199.402 119.21 198.428 118.186 198.428 116.809C198.428 115.447 199.412 114.429 200.897 114.429C202.331 114.429 203.31 115.395 203.31 116.705ZM201.49 116.851C201.49 116.397 201.219 116.141 200.852 116.141C200.48 116.141 200.219 116.408 200.219 116.851C200.219 117.3 200.48 117.571 200.852 117.571C201.219 117.571 201.49 117.31 201.49 116.851Z" fill="#263238"/>
<path d="M208.514 116.527V118.134H207.718V116.652C207.718 116.198 207.519 115.989 207.198 115.989C206.84 115.989 206.591 116.224 206.591 116.725V118.134H205.795V116.652C205.795 116.198 205.605 115.989 205.275 115.989C204.922 115.989 204.672 116.224 204.672 116.725V118.134H203.876V115.327H204.637V115.65C204.84 115.41 205.146 115.285 205.499 115.285C205.881 115.285 206.208 115.436 206.402 115.744C206.621 115.457 206.978 115.285 207.392 115.285C208.045 115.285 208.514 115.672 208.514 116.527Z" fill="#263238"/>
<path d="M211.657 116.533V118.135H210.913V117.785C210.765 118.041 210.48 118.176 210.076 118.176C209.433 118.176 209.051 117.811 209.051 117.326C209.051 116.83 209.392 116.486 210.229 116.486H210.861C210.861 116.136 210.658 115.932 210.229 115.932C209.938 115.932 209.637 116.032 209.438 116.194L209.153 115.625C209.454 115.405 209.897 115.285 210.336 115.285C211.173 115.285 211.657 115.682 211.657 116.533ZM210.861 117.247V116.96H210.316C209.944 116.96 209.826 117.101 209.826 117.289C209.826 117.492 209.994 117.628 210.275 117.628C210.54 117.628 210.769 117.503 210.861 117.247Z" fill="#263238"/>
<path d="M212.28 114.481C212.28 114.226 212.479 114.027 212.775 114.027C213.071 114.027 213.27 114.215 213.27 114.466C213.27 114.737 213.071 114.936 212.775 114.936C212.479 114.936 212.28 114.737 212.28 114.481ZM212.377 115.327H213.172V118.134H212.377V115.327Z" fill="#263238"/>
<path d="M213.912 114.262H214.708V118.134H213.912V114.262Z" fill="#263238"/>
<path d="M215.254 117.665C215.254 117.362 215.473 117.164 215.749 117.164C216.025 117.164 216.244 117.362 216.244 117.665C216.244 117.962 216.025 118.176 215.749 118.176C215.474 118.176 215.254 117.962 215.254 117.665Z" fill="#263238"/>
<path d="M216.544 116.731C216.544 115.885 217.182 115.285 218.075 115.285C218.652 115.285 219.106 115.541 219.305 116L218.687 116.339C218.539 116.073 218.32 115.953 218.07 115.953C217.667 115.953 217.351 116.24 217.351 116.731C217.351 117.221 217.667 117.508 218.07 117.508C218.319 117.508 218.539 117.393 218.687 117.122L219.305 117.466C219.106 117.914 218.652 118.176 218.075 118.176C217.182 118.176 216.544 117.576 216.544 116.731Z" fill="#263238"/>
<path d="M219.524 116.731C219.524 115.885 220.161 115.285 221.034 115.285C221.906 115.285 222.539 115.885 222.539 116.731C222.539 117.576 221.906 118.176 221.034 118.176C220.161 118.176 219.524 117.576 219.524 116.731ZM221.733 116.731C221.733 116.245 221.432 115.953 221.034 115.953C220.637 115.953 220.33 116.245 220.33 116.731C220.33 117.216 220.637 117.508 221.034 117.508C221.432 117.508 221.733 117.216 221.733 116.731Z" fill="#263238"/>
<path d="M227.707 116.527V118.134H226.912V116.652C226.912 116.198 226.713 115.989 226.391 115.989C226.034 115.989 225.784 116.224 225.784 116.725V118.134H224.988V116.652C224.988 116.198 224.799 115.989 224.468 115.989C224.115 115.989 223.866 116.224 223.866 116.725V118.134H223.07V115.327H223.83V115.65C224.034 115.41 224.339 115.285 224.692 115.285C225.074 115.285 225.401 115.436 225.595 115.744C225.814 115.457 226.171 115.285 226.585 115.285C227.238 115.285 227.707 115.672 227.707 116.527Z" fill="#263238"/>
<path d="M181.88 136.081L183.172 136.797L182.591 137.791L181.287 137.003L181.311 138.47H180.196L180.209 136.991L178.905 137.791L178.336 136.797L179.628 136.081L178.336 135.354L178.905 134.359L180.209 135.16L180.196 133.68H181.311L181.287 135.16L182.591 134.359L183.172 135.354L181.88 136.081Z" fill="#263238"/>
<path d="M187.259 136.081L188.551 136.797L187.97 137.791L186.666 137.003L186.69 138.47H185.576L185.588 136.991L184.284 137.791L183.715 136.797L185.008 136.081L183.715 135.354L184.284 134.359L185.588 135.16L185.576 133.68H186.69L186.666 135.16L187.97 134.359L188.551 135.354L187.259 136.081Z" fill="#263238"/>
<path d="M192.638 136.081L193.93 136.797L193.349 137.791L192.045 137.003L192.069 138.47H190.954L190.967 136.991L189.663 137.791L189.094 136.797L190.387 136.081L189.094 135.354L189.663 134.359L190.967 135.16L190.954 133.68H192.069L192.045 135.16L193.349 134.359L193.93 135.354L192.638 136.081Z" fill="#263238"/>
<path d="M198.017 136.081L199.309 136.797L198.729 137.791L197.425 137.003L197.449 138.47H196.334L196.346 136.991L195.043 137.791L194.474 136.797L195.766 136.081L194.474 135.354L195.043 134.359L196.346 135.16L196.334 133.68H197.449L197.425 135.16L198.729 134.359L199.309 135.354L198.017 136.081Z" fill="#263238"/>
<path d="M203.397 136.081L204.689 136.797L204.108 137.791L202.804 137.003L202.828 138.47H201.713L201.726 136.991L200.422 137.791L199.853 136.797L201.146 136.081L199.853 135.354L200.422 134.359L201.726 135.16L201.713 133.68H202.828L202.804 135.16L204.108 134.359L204.689 135.354L203.397 136.081Z" fill="#263238"/>
<path d="M208.776 136.081L210.068 136.797L209.488 137.791L208.184 137.003L208.208 138.47H207.093L207.105 136.991L205.801 137.791L205.232 136.797L206.525 136.081L205.232 135.354L205.801 134.359L207.105 135.16L207.093 133.68H208.208L208.184 135.16L209.488 134.359L210.068 135.354L208.776 136.081Z" fill="#263238"/>
<path d="M214.155 136.081L215.447 136.797L214.866 137.791L213.562 137.003L213.586 138.47H212.472L212.484 136.991L211.18 137.791L210.611 136.797L211.904 136.081L210.611 135.354L211.18 134.359L212.484 135.16L212.472 133.68H213.586L213.562 135.16L214.866 134.359L215.447 135.354L214.155 136.081Z" fill="#263238"/>
<path d="M219.535 136.081L220.826 136.797L220.245 137.791L218.941 137.003L218.965 138.47H217.85L217.863 136.991L216.559 137.791L215.99 136.797L217.283 136.081L215.99 135.354L216.559 134.359L217.863 135.16L217.85 133.68H218.965L218.941 135.16L220.245 134.359L220.826 135.354L219.535 136.081Z" fill="#263238"/>
<path d="M278.359 239.633H174.339C171.88 239.633 169.887 237.594 169.887 235.079V180.001C169.887 177.486 171.88 175.447 174.339 175.447H278.359C280.817 175.447 282.811 177.486 282.811 180.001V235.079C282.811 237.594 280.817 239.633 278.359 239.633Z" fill="white"/>
<path d="M278.359 239.633C278.357 239.613 278.662 239.638 279.237 239.524C279.798 239.398 280.664 239.099 281.478 238.275C281.878 237.864 282.247 237.317 282.487 236.645C282.617 236.312 282.685 235.941 282.736 235.555C282.765 235.167 282.759 234.755 282.757 234.327C282.752 232.613 282.746 230.638 282.74 228.416C282.726 219.514 282.707 206.644 282.682 190.743C282.68 188.755 282.678 186.72 282.676 184.638C282.675 183.598 282.674 182.546 282.673 181.482C282.648 180.418 282.783 179.329 282.357 178.356C281.972 177.381 281.23 176.547 280.293 176.067C279.826 175.825 279.313 175.672 278.787 175.617C278.268 175.577 277.702 175.603 277.156 175.596C274.95 175.598 272.704 175.6 270.419 175.601C261.277 175.606 251.509 175.613 241.23 175.618C220.672 175.623 198.071 175.628 174.347 175.633C173.634 175.636 172.928 175.82 172.302 176.161C171.685 176.517 171.142 177.014 170.76 177.623C170.383 178.232 170.131 178.931 170.086 179.652C170.052 180.374 170.077 181.146 170.069 181.889C170.069 184.885 170.068 187.862 170.068 190.817C170.068 196.728 170.066 202.551 170.065 208.274C170.064 213.996 170.063 219.617 170.061 225.122C170.06 227.875 170.058 230.598 170.058 233.29C170.063 233.959 170.047 234.643 170.068 235.295C170.097 235.939 170.266 236.571 170.559 237.137C171.147 238.27 172.235 239.102 173.446 239.364C174.044 239.508 174.683 239.448 175.326 239.461C175.965 239.461 176.602 239.462 177.236 239.462C178.505 239.463 179.766 239.464 181.018 239.464C183.522 239.466 185.993 239.467 188.428 239.469C193.298 239.472 198.026 239.475 202.597 239.478C211.74 239.486 220.255 239.494 228.03 239.501C243.575 239.526 256.155 239.546 264.857 239.56C269.2 239.575 272.573 239.587 274.869 239.595C276.009 239.603 276.879 239.609 277.472 239.613C278.059 239.621 278.359 239.633 278.359 239.633C278.359 239.633 278.059 239.646 277.472 239.652C276.878 239.656 276.007 239.662 274.868 239.671C272.572 239.678 269.199 239.691 264.856 239.706C256.154 239.72 243.574 239.74 228.029 239.765C220.254 239.772 211.739 239.779 202.596 239.788C198.025 239.791 193.297 239.793 188.427 239.797C185.992 239.798 183.522 239.8 181.017 239.801C179.765 239.802 178.504 239.803 177.235 239.803C176.601 239.803 175.964 239.804 175.326 239.804C174.696 239.791 174.038 239.855 173.376 239.701C172.069 239.419 170.895 238.524 170.26 237.301C169.944 236.69 169.76 236.006 169.728 235.313C169.705 234.628 169.721 233.968 169.716 233.291C169.716 230.598 169.714 227.875 169.714 225.123C169.712 219.618 169.711 213.997 169.709 208.275C169.709 202.553 169.707 196.728 169.707 190.818C169.707 187.863 169.706 184.886 169.706 181.889C169.714 181.134 169.687 180.404 169.724 179.624C169.773 178.842 170.045 178.082 170.455 177.421C170.87 176.76 171.458 176.22 172.128 175.835C172.807 175.465 173.576 175.265 174.347 175.261C198.07 175.266 220.671 175.271 241.23 175.276C251.509 175.281 261.277 175.287 270.419 175.293C272.704 175.294 274.951 175.296 277.156 175.298C277.712 175.306 278.245 175.279 278.816 175.323C279.377 175.382 279.924 175.547 280.422 175.805C281.421 176.319 282.21 177.209 282.617 178.248C282.825 178.766 282.934 179.322 282.943 179.875C282.945 180.414 282.946 180.949 282.948 181.482C282.947 182.545 282.946 183.597 282.945 184.638C282.943 186.719 282.941 188.755 282.939 190.742C282.915 206.643 282.895 219.513 282.881 228.415C282.875 230.638 282.869 232.613 282.864 234.326C282.864 234.754 282.867 235.165 282.834 235.565C282.779 235.96 282.707 236.338 282.571 236.676C282.321 237.36 281.94 237.914 281.529 238.328C280.694 239.156 279.811 239.445 279.244 239.561C278.952 239.607 278.731 239.633 278.582 239.63C278.434 239.636 278.359 239.633 278.359 239.633Z" fill="#263238"/>
<path d="M209.23 198.127V198.929H205.963V194.612H209.151V195.414H206.933V196.351H208.892V197.129H206.933V198.127H209.23Z" fill="#263238"/>
<path d="M213.88 194.612V198.929H213.078L210.974 196.308V198.929H210.009V194.612H210.817L212.915 197.233V194.612H213.88Z" fill="#263238"/>
<path d="M215.755 195.426H214.404V194.611H218.082V195.426H216.731V198.928H215.755V195.426Z" fill="#263238"/>
<path d="M221.874 198.127V198.929H218.607V194.612H221.795V195.414H219.577V196.351H221.536V197.129H219.577V198.127H221.874Z" fill="#263238"/>
<path d="M225.341 198.929L224.527 197.726H224.48H223.63V198.929H222.653V194.612H224.48C225.607 194.612 226.312 195.211 226.312 196.179C226.312 196.826 225.993 197.3 225.445 197.541L226.39 198.928H225.341V198.929ZM224.426 195.426H223.63V196.931H224.426C225.022 196.931 225.324 196.646 225.324 196.178C225.324 195.704 225.022 195.426 224.426 195.426Z" fill="#263238"/>
<path d="M228.526 196.771C228.526 195.47 229.503 194.538 230.817 194.538C231.547 194.538 232.155 194.809 232.553 195.303L231.926 195.895C231.643 195.561 231.287 195.389 230.865 195.389C230.075 195.389 229.514 195.956 229.514 196.771C229.514 197.585 230.075 198.152 230.865 198.152C231.286 198.152 231.642 197.979 231.926 197.64L232.553 198.232C232.155 198.731 231.547 199.003 230.811 199.003C229.503 199.003 228.526 198.072 228.526 196.771Z" fill="#263238"/>
<path d="M232.856 196.771C232.856 195.488 233.832 194.538 235.165 194.538C236.491 194.538 237.474 195.481 237.474 196.771C237.474 198.059 236.492 199.003 235.165 199.003C233.832 199.003 232.856 198.053 232.856 196.771ZM236.485 196.771C236.485 195.95 235.919 195.389 235.164 195.389C234.411 195.389 233.844 195.95 233.844 196.771C233.844 197.59 234.411 198.152 235.164 198.152C235.919 198.152 236.485 197.591 236.485 196.771Z" fill="#263238"/>
<path d="M238.21 194.612H240.127C241.508 194.612 242.454 195.463 242.454 196.771C242.454 198.078 241.509 198.928 240.127 198.928H238.21V194.612ZM240.08 198.109C240.917 198.109 241.466 197.597 241.466 196.771C241.466 195.944 240.917 195.433 240.08 195.433H239.188V198.109H240.08Z" fill="#263238"/>
<path d="M246.458 198.127V198.929H243.191V194.612H246.379V195.414H244.161V196.351H246.12V197.129H244.161V198.127H246.458Z" fill="#263238"/>
<path d="M193.219 227.792H182.969C181.446 227.792 180.211 226.529 180.211 224.971V208.642C180.211 207.084 181.446 205.821 182.969 205.821H193.219C194.743 205.821 195.977 207.084 195.977 208.642V224.971C195.977 226.529 194.742 227.792 193.219 227.792Z" fill="#EBEBEB"/>
<path d="M212.907 227.792H202.658C201.134 227.792 199.899 226.529 199.899 224.971V208.642C199.899 207.084 201.134 205.821 202.658 205.821H212.907C214.431 205.821 215.666 207.084 215.666 208.642V224.971C215.666 226.529 214.431 227.792 212.907 227.792Z" fill="#EBEBEB"/>
<path d="M232.596 227.792H222.347C220.823 227.792 219.588 226.529 219.588 224.971V208.642C219.588 207.084 220.824 205.821 222.347 205.821H232.596C234.119 205.821 235.354 207.084 235.354 208.642V224.971C235.355 226.529 234.119 227.792 232.596 227.792Z" fill="#EBEBEB"/>
<path d="M252.285 227.792H242.035C240.512 227.792 239.277 226.529 239.277 224.971V208.642C239.277 207.084 240.512 205.821 242.035 205.821H252.285C253.809 205.821 255.043 207.084 255.043 208.642V224.971C255.043 226.529 253.809 227.792 252.285 227.792Z" fill="#EBEBEB"/>
<path d="M271.973 227.792H261.724C260.2 227.792 258.965 226.529 258.965 224.971V208.642C258.965 207.084 260.2 205.821 261.724 205.821H271.973C273.497 205.821 274.732 207.084 274.732 208.642V224.971C274.732 226.529 273.497 227.792 271.973 227.792Z" fill="#EBEBEB"/>
<path d="M191.529 218.504C191.529 220.073 190.343 221.09 188.737 221.09C186.533 221.09 185.371 219.472 185.371 216.788C185.371 213.884 186.88 212.388 189.097 212.388C189.815 212.388 190.487 212.511 191.002 212.829L190.75 213.332C190.319 213.05 189.732 212.939 189.097 212.939C187.216 212.939 185.981 214.202 185.981 216.69C185.981 216.947 185.994 217.327 186.054 217.719C186.402 216.592 187.456 215.954 188.726 215.954C190.403 215.954 191.529 216.96 191.529 218.504ZM190.918 218.515C190.918 217.29 190.056 216.493 188.641 216.493C187.263 216.493 186.316 217.388 186.316 218.54C186.316 219.545 187.144 220.55 188.713 220.55C190.019 220.55 190.918 219.754 190.918 218.515Z" fill="#21972B"/>
<path d="M211.006 218.651H209.245V221.029H208.646V218.651H203.865V218.197L208.418 212.449H209.1L204.632 218.099H208.658V216.003H209.245V218.099H211.006V218.651Z" fill="#21972B"/>
<path d="M231.312 222.246C231.312 222.349 229.676 222.432 227.659 222.432C225.64 222.432 224.005 222.348 224.005 222.246C224.005 222.143 225.64 222.061 227.659 222.061C229.676 222.061 231.312 222.144 231.312 222.246Z" fill="#21972B"/>
<path d="M177.056 183.602C178 183.602 178.765 182.819 178.765 181.853C178.765 180.887 178 180.104 177.056 180.104C176.112 180.104 175.347 180.887 175.347 181.853C175.347 182.819 176.112 183.602 177.056 183.602Z" fill="#263238"/>
<path d="M183.693 181.853C183.693 182.819 182.928 183.602 181.984 183.602C181.039 183.602 180.274 182.818 180.274 181.853C180.274 180.888 181.039 180.104 181.984 180.104C182.928 180.104 183.693 180.887 183.693 181.853Z" fill="#263238"/>
<path d="M186.822 183.602C187.766 183.602 188.531 182.819 188.531 181.853C188.531 180.887 187.766 180.104 186.822 180.104C185.878 180.104 185.112 180.887 185.112 181.853C185.112 182.819 185.878 183.602 186.822 183.602Z" fill="#263238"/>
<path d="M282.98 186.781C282.98 186.884 257.697 186.967 226.516 186.967C195.324 186.967 170.046 186.883 170.046 186.781C170.046 186.678 195.324 186.595 226.516 186.595C257.697 186.595 282.98 186.678 282.98 186.781Z" fill="#263238"/>
<path d="M156.14 96.6428H101.769C100.207 96.6428 98.9404 97.938 98.9404 99.536V124.874C98.9404 126.472 100.207 127.767 101.769 127.767H124.579L129.423 134.122L133.461 127.767H156.141C157.703 127.767 158.969 126.472 158.969 124.874V99.536C158.968 97.938 157.702 96.6428 156.14 96.6428Z" fill="white"/>
<path d="M156.14 96.6428C156.14 96.6428 156.23 96.6378 156.409 96.6421C156.586 96.6606 156.855 96.6864 157.185 96.8184C157.511 96.9455 157.908 97.1669 158.26 97.5624C158.618 97.9466 158.921 98.5178 159.005 99.2153C159.057 101.976 159.048 105.987 159.071 111.071C159.077 113.612 159.084 116.418 159.091 119.462C159.094 120.984 159.097 122.566 159.1 124.205C159.093 124.609 159.129 125.03 159.045 125.468C158.964 125.897 158.784 126.309 158.527 126.666C158.021 127.388 157.173 127.87 156.273 127.903C149.433 127.913 141.761 127.925 133.461 127.937L133.601 127.86C132.334 129.858 130.964 132.016 129.568 134.218L129.436 134.426L129.286 134.23C127.756 132.225 126.112 130.069 124.439 127.877L124.578 127.947C118.295 127.949 111.721 127.95 104.976 127.952C104.188 127.952 103.403 127.952 102.62 127.952C102.223 127.945 101.854 127.97 101.429 127.931C101.016 127.884 100.614 127.747 100.258 127.533C99.5409 127.108 99.0125 126.373 98.8345 125.551C98.7368 125.134 98.7633 124.716 98.7591 124.332V123.154C98.7598 120.016 98.7612 116.925 98.7619 113.887C98.7633 110.849 98.7647 107.865 98.7661 104.942C98.7668 103.481 98.7682 102.036 98.7689 100.606L98.7696 99.5374C98.7717 99.1611 98.8394 98.7855 98.972 98.4371C99.2345 97.7374 99.7538 97.1512 100.397 96.8134C100.718 96.6442 101.067 96.5321 101.425 96.4943C101.791 96.46 102.117 96.4779 102.456 96.4736C103.13 96.4743 103.799 96.475 104.464 96.4757C105.794 96.4771 107.105 96.4786 108.398 96.48C110.983 96.4836 113.493 96.4864 115.919 96.4893C120.772 96.4979 125.293 96.505 129.421 96.5121C137.666 96.5371 144.343 96.5571 148.97 96.5714C151.27 96.5864 153.058 96.5985 154.286 96.6064C154.885 96.6142 155.345 96.6207 155.668 96.6249C155.981 96.6299 156.14 96.6428 156.14 96.6428C156.14 96.6428 155.98 96.6556 155.669 96.6621C155.345 96.6664 154.886 96.6728 154.287 96.6806C153.059 96.6885 151.271 96.7006 148.972 96.7156C144.344 96.7299 137.668 96.7499 129.422 96.7749C125.294 96.782 120.773 96.7892 115.921 96.7977C113.494 96.8006 110.984 96.8034 108.399 96.807C107.107 96.8084 105.795 96.8099 104.465 96.8113C103.801 96.812 103.131 96.8127 102.458 96.8134C102.124 96.8177 101.773 96.8027 101.464 96.8334C101.146 96.8677 100.836 96.9677 100.552 97.1183C99.9813 97.4196 99.5206 97.9409 99.2896 98.562C99.173 98.8719 99.113 99.2039 99.1116 99.5388L99.1123 100.608C99.113 102.037 99.1144 103.483 99.1151 104.944C99.1165 107.866 99.1179 110.85 99.1193 113.888C99.12 116.926 99.1214 120.018 99.1221 123.155V124.334C99.1256 124.735 99.1032 125.115 99.1891 125.471C99.3455 126.193 99.811 126.84 100.441 127.213C100.755 127.4 101.108 127.521 101.471 127.563C101.823 127.596 102.237 127.575 102.622 127.581C103.404 127.581 104.19 127.581 104.977 127.581C111.722 127.583 118.297 127.584 124.58 127.585H124.666L124.719 127.655C126.39 129.85 128.033 132.006 129.56 134.013L129.278 134.025C130.678 131.826 132.05 129.67 133.321 127.673L133.37 127.595H133.461C141.756 127.603 149.423 127.61 156.26 127.616C157.076 127.589 157.845 127.155 158.308 126.501C158.541 126.177 158.707 125.804 158.782 125.414C158.86 125.031 158.828 124.617 158.837 124.205C158.84 122.566 158.843 120.984 158.846 119.462C158.853 116.418 158.86 113.612 158.866 111.071C158.879 106.002 158.89 101.988 158.897 99.2275C158.824 98.5556 158.54 97.998 158.199 97.6188C157.863 97.229 157.481 97.0041 157.164 96.8706C156.517 96.61 156.135 96.6721 156.14 96.6428Z" fill="#263238"/>
<path d="M118.774 103.793V104.731H118.175V103.786L117.174 102.085H117.81L118.501 103.26L119.192 102.085H119.779L118.774 103.793Z" fill="#263238"/>
<path d="M119.76 103.407C119.76 102.622 120.359 102.039 121.175 102.039C121.988 102.039 122.591 102.618 122.591 103.407C122.591 104.198 121.988 104.776 121.175 104.776C120.359 104.776 119.76 104.194 119.76 103.407ZM121.984 103.407C121.984 102.905 121.637 102.56 121.175 102.56C120.713 102.56 120.365 102.904 120.365 103.407C120.365 103.91 120.713 104.255 121.175 104.255C121.637 104.254 121.984 103.91 121.984 103.407Z" fill="#263238"/>
<path d="M123.022 103.566V102.085H123.621V103.544C123.621 104.047 123.836 104.255 124.198 104.255C124.564 104.255 124.774 104.047 124.774 103.544V102.085H125.366V103.566C125.366 104.345 124.929 104.776 124.194 104.776C123.459 104.776 123.022 104.345 123.022 103.566Z" fill="#263238"/>
<path d="M127.608 104.731L127.109 103.994H127.08H126.558V104.731H125.959V102.085H127.08C127.771 102.085 128.203 102.452 128.203 103.045C128.203 103.442 128.007 103.733 127.671 103.881L128.251 104.731H127.608ZM127.046 102.583H126.558V103.506H127.046C127.412 103.506 127.597 103.332 127.597 103.044C127.597 102.753 127.413 102.583 127.046 102.583Z" fill="#263238"/>
<path d="M129.563 103.407C129.563 102.61 130.162 102.039 130.968 102.039C131.415 102.039 131.788 102.205 132.032 102.508L131.648 102.87C131.474 102.667 131.255 102.56 130.997 102.56C130.513 102.56 130.169 102.908 130.169 103.407C130.169 103.906 130.513 104.255 130.997 104.255C131.256 104.255 131.474 104.149 131.648 103.941L132.032 104.304C131.788 104.611 131.415 104.777 130.964 104.777C130.162 104.776 129.563 104.205 129.563 103.407Z" fill="#263238"/>
<path d="M132.219 103.407C132.219 102.622 132.818 102.039 133.635 102.039C134.448 102.039 135.05 102.618 135.05 103.407C135.05 104.198 134.448 104.776 133.635 104.776C132.818 104.776 132.219 104.194 132.219 103.407ZM134.444 103.407C134.444 102.905 134.097 102.56 133.635 102.56C133.173 102.56 132.825 102.904 132.825 103.407C132.825 103.91 133.173 104.255 133.635 104.255C134.097 104.254 134.444 103.91 134.444 103.407Z" fill="#263238"/>
<path d="M135.504 102.084H136.679C137.526 102.084 138.106 102.605 138.106 103.407C138.106 104.208 137.526 104.73 136.679 104.73H135.504V102.084ZM136.65 104.228C137.164 104.228 137.5 103.914 137.5 103.407C137.5 102.9 137.164 102.587 136.65 102.587H136.103V104.228H136.65Z" fill="#263238"/>
<path d="M140.563 104.239V104.731H138.56V102.085H140.515V102.576H139.155V103.151H140.357V103.627H139.155V104.239H140.563Z" fill="#263238"/>
<path d="M150.836 122.03H107.073C105.706 122.03 104.599 120.897 104.599 119.499V110.042C104.599 108.644 105.706 107.511 107.073 107.511H150.836C152.202 107.511 153.31 108.644 153.31 110.042V119.499C153.31 120.896 152.202 122.03 150.836 122.03Z" fill="#F5F5F5"/>
<path d="M114.501 115.659C114.501 116.945 113.529 117.779 112.213 117.779C110.406 117.779 109.454 116.453 109.454 114.252C109.454 111.872 110.691 110.646 112.508 110.646C113.097 110.646 113.647 110.747 114.069 111.008L113.863 111.42C113.509 111.189 113.028 111.098 112.508 111.098C110.967 111.098 109.955 112.133 109.955 114.172C109.955 114.384 109.964 114.694 110.013 115.016C110.298 114.092 111.162 113.57 112.203 113.57C113.579 113.57 114.501 114.394 114.501 115.659ZM114.001 115.669C114.001 114.665 113.294 114.012 112.135 114.012C111.006 114.012 110.23 114.745 110.23 115.69C110.23 116.513 110.908 117.337 112.194 117.337C113.264 117.337 114.001 116.684 114.001 115.669Z" fill="#21972B"/>
<path d="M123.626 115.779H122.182V117.729H121.691V115.779H117.773V115.408L121.504 110.697H122.064L118.401 115.327H121.701V113.61H122.182V115.327H123.625L123.626 115.779Z" fill="#21972B"/>
<path d="M131.257 115.749C131.257 116.915 130.432 117.779 128.851 117.779C127.84 117.779 126.907 117.397 126.426 116.835L126.681 116.443C127.104 116.935 127.908 117.307 128.851 117.307C130.089 117.307 130.746 116.704 130.746 115.749C130.746 114.806 130.118 114.192 128.743 114.192H128.311V113.821L130.344 111.158H126.681V110.697H130.991V111.058L128.93 113.761C130.491 113.801 131.257 114.605 131.257 115.749Z" fill="#21972B"/>
<path d="M139.566 110.697V111.058L136.61 117.729H136.06L138.987 111.159H135.128V112.506H134.637V110.698H139.566V110.697Z" fill="#21972B"/>
<path d="M143.073 114.213C143.073 112.013 144.183 110.647 145.763 110.647C147.344 110.647 148.454 112.013 148.454 114.213C148.454 116.413 147.344 117.779 145.763 117.779C144.183 117.779 143.073 116.413 143.073 114.213ZM147.954 114.213C147.954 112.254 147.06 111.119 145.763 111.119C144.467 111.119 143.574 112.254 143.574 114.213C143.574 116.171 144.467 117.307 145.763 117.307C147.06 117.307 147.954 116.171 147.954 114.213Z" fill="#21972B"/>
<path d="M292.743 298.106C301.881 294.139 312.46 286.334 317.18 276.763C307.323 280.813 298.631 288.405 292.743 298.106Z" fill="#263238"/>
<path d="M294.686 283.254C303.824 279.286 314.403 271.481 319.123 261.91C309.266 265.962 300.574 273.553 294.686 283.254Z" fill="#263238"/>
<path d="M297.33 268.807C306.468 264.84 317.047 257.035 321.767 247.464C311.91 251.515 303.218 259.106 297.33 268.807Z" fill="#263238"/>
<path d="M300.645 253.684C309.266 248.451 318.875 239.215 322.456 229.068C313.13 234.486 305.371 243.242 300.645 253.684Z" fill="#263238"/>
<path d="M304.186 242.112C310.469 233.707 316.324 221.2 316.247 210.362C309.369 219.232 305.079 230.524 304.186 242.112Z" fill="#263238"/>
<path d="M302.43 247.613C301.161 236.249 296.84 221.959 289.502 213.437C290.668 225.615 295.266 237.771 302.43 247.613Z" fill="#263238"/>
<path d="M299.476 260.045C297.24 248.327 291.586 233.835 283.256 225.616C285.45 238.19 291.219 250.436 299.476 260.045Z" fill="#263238"/>
<path d="M296.083 275.204C293.847 263.487 288.193 248.995 279.863 240.776C282.057 253.349 287.826 265.595 296.083 275.204Z" fill="#263238"/>
<path d="M293.36 293.816C291.124 282.099 285.471 267.607 277.14 259.388C279.334 271.961 285.104 284.207 293.36 293.816Z" fill="#263238"/>
<path d="M304.612 239.885C304.606 239.883 304.582 239.943 304.542 240.06C304.496 240.198 304.439 240.37 304.369 240.584C304.215 241.074 304.004 241.752 303.735 242.611C303.185 244.372 302.442 246.936 301.573 250.119C300.697 253.301 299.735 257.112 298.742 261.363C297.767 265.617 296.773 270.315 295.856 275.271C294.951 280.23 294.211 284.977 293.61 289.304C293.025 293.634 292.571 297.543 292.256 300.833C291.935 304.121 291.717 306.787 291.603 308.631C291.548 309.531 291.504 310.241 291.472 310.755C291.463 310.981 291.454 311.162 291.447 311.308C291.444 311.433 291.445 311.497 291.451 311.497C291.457 311.498 291.468 311.434 291.484 311.311C291.5 311.166 291.519 310.985 291.544 310.76C291.591 310.248 291.657 309.541 291.74 308.642C291.897 306.802 292.154 304.142 292.506 300.86C292.853 297.577 293.333 293.675 293.935 289.351C294.554 285.031 295.303 280.291 296.207 275.338C297.123 270.388 298.105 265.694 299.062 261.439C300.037 257.189 300.972 253.374 301.817 250.187C302.654 246.998 303.36 244.424 303.868 242.652C304.11 241.784 304.299 241.1 304.437 240.605C304.494 240.387 304.54 240.211 304.577 240.07C304.606 239.95 304.618 239.886 304.612 239.885Z" fill="#263238"/>
<path d="M288.291 304.295C292.165 295.994 294.985 284.323 293.082 275.212C288.784 284.019 287.079 294.364 288.291 304.295Z" fill="#455A64"/>
<path d="M281.845 293.546C285.72 285.244 288.539 273.573 286.636 264.462C282.338 273.27 280.633 283.615 281.845 293.546Z" fill="#455A64"/>
<path d="M276.064 282.615C279.938 274.314 282.758 262.643 280.855 253.532C276.557 262.34 274.853 272.684 276.064 282.615Z" fill="#455A64"/>
<path d="M270.367 270.829C273.249 262.042 274.696 250.064 271.754 241.301C268.511 250.651 268.018 261.154 270.367 270.829Z" fill="#455A64"/>
<path d="M266.662 261.176C266.378 251.828 263.69 240.119 258.016 233.216C258.153 243.237 261.228 253.182 266.662 261.176Z" fill="#455A64"/>
<path d="M268.376 265.811C261.654 259.323 251.432 252.881 242.245 252.038C249.322 259.113 258.617 264.012 268.376 265.811Z" fill="#455A64"/>
<path d="M272.91 275.644C265.376 269.539 254.184 263.807 244.509 263.784C252.459 270.465 262.561 274.684 272.91 275.644Z" fill="#455A64"/>
<path d="M278.574 287.504C271.041 281.398 259.849 275.666 250.174 275.643C258.124 282.325 268.225 286.543 278.574 287.504Z" fill="#455A64"/>
<path d="M286.466 301.154C278.932 295.049 267.74 289.317 258.065 289.295C266.016 295.976 276.117 300.194 286.466 301.154Z" fill="#455A64"/>
<path d="M265.782 259.48C265.777 259.482 265.791 259.534 265.825 259.634C265.867 259.752 265.919 259.897 265.981 260.074C266.135 260.485 266.346 261.046 266.611 261.754C267.16 263.213 267.999 265.307 269.074 267.876C271.225 273.015 274.41 280.027 278.367 287.539C280.352 291.293 282.338 294.815 284.199 297.984C286.077 301.142 287.817 303.956 289.334 306.282C290.845 308.611 292.098 310.475 292.992 311.743C293.426 312.358 293.77 312.845 294.022 313.202C294.132 313.352 294.223 313.476 294.297 313.577C294.361 313.66 294.396 313.701 294.4 313.697C294.405 313.694 294.38 313.646 294.326 313.556C294.259 313.45 294.178 313.32 294.079 313.162C293.839 312.795 293.513 312.296 293.101 311.666C292.241 310.375 291.019 308.492 289.536 306.147C288.046 303.807 286.329 300.983 284.469 297.819C282.624 294.645 280.649 291.123 278.667 287.374C274.715 279.872 271.5 272.888 269.295 267.779C268.193 265.224 267.32 263.147 266.734 261.704C266.443 261.006 266.213 260.454 266.044 260.049C265.969 259.877 265.907 259.737 265.857 259.621C265.813 259.525 265.788 259.478 265.782 259.48Z" fill="#263238"/>
<path d="M269.833 305.297H308.336V312.888H304.38L301.047 334.537H277.248L273.821 312.888H269.833V305.297Z" fill="#21972B"/>
<path d="M269.833 312.73C269.833 312.629 278.391 312.547 288.945 312.547C299.502 312.547 308.057 312.629 308.057 312.73C308.057 312.831 299.502 312.913 288.945 312.913C278.391 312.913 269.833 312.831 269.833 312.73Z" fill="#263238"/>
<path d="M49.2887 334.55H43.0395L40.7222 305.774H48.0812L49.2887 334.55Z" fill="#263238"/>
<path d="M103.447 334.55H109.697L112.014 305.774H104.655L103.447 334.55Z" fill="#263238"/>
<path d="M116.308 309.417L35.873 311.348L33.4251 258.205C33.1857 253.001 37.2453 248.648 42.3379 248.648H110.869C116.04 248.648 120.128 253.13 119.77 258.407L116.308 309.417Z" fill="#21972B"/>
<path d="M120.432 258.023C120.432 258.029 120.356 258.035 120.207 258.043C120.039 258.048 119.822 258.054 119.547 258.063C118.943 258.072 118.094 258.085 117.012 258.102C114.786 258.11 111.606 258.122 107.688 258.136C99.8148 258.15 88.9372 258.059 76.9323 258.344C64.9204 258.752 54.0344 258.682 46.163 258.56C42.2263 258.497 39.0413 258.418 36.8405 258.35C35.7593 258.312 34.9106 258.282 34.3068 258.262C34.0332 258.248 33.8161 258.237 33.6479 258.229C33.4992 258.22 33.4238 258.211 33.4238 258.205C33.4238 258.198 33.4999 258.193 33.6486 258.19C33.8168 258.19 34.0346 258.188 34.3082 258.186C34.912 258.19 35.7614 258.197 36.8433 258.205C39.0693 258.227 42.2479 258.257 46.1658 258.296C54.0386 258.351 64.9134 258.379 76.9232 257.971C88.9379 257.686 99.8162 257.818 107.688 257.872C111.607 257.907 114.786 257.936 117.012 257.955C118.094 257.968 118.943 257.979 119.547 257.986C119.821 257.993 120.039 257.998 120.207 258.003C120.356 258.01 120.432 258.016 120.432 258.023Z" fill="#263238"/>
<path d="M62.765 249.479C62.7873 249.603 60.2445 249.647 57.5426 251.082C54.8204 252.478 53.2938 254.558 53.2087 254.467C53.1766 254.442 53.506 253.895 54.2047 253.145C54.8992 252.395 55.9965 251.474 57.3778 250.75C58.7613 250.031 60.1335 249.663 61.1345 249.528C62.1375 249.389 62.765 249.438 62.765 249.479Z" fill="#263238"/>
<path d="M95.8465 152.854L105.68 171.227L120.084 162.986L127.088 165.351C127.088 165.351 109.416 184.951 106.549 185.949C103.682 186.947 98.2525 187.129 95.1478 183.156C92.3209 179.538 84.0942 160.54 84.0942 160.54L95.8465 152.854Z" fill="#FFBE9D"/>
<path d="M136.327 140.86C136.071 140.536 135.668 140.372 135.264 140.43L128.414 141.393C127.813 141.488 127.281 141.84 126.949 142.362L112.725 164.726L113.818 165.351L121.392 165.108L136.542 141.134L136.327 140.86Z" fill="#263238"/>
<path d="M131.479 143.765C131.624 143.896 131.881 143.84 132.052 143.641C132.223 143.442 132.243 143.174 132.097 143.044C131.951 142.913 131.694 142.968 131.523 143.167C131.352 143.366 131.333 143.634 131.479 143.765Z" fill="white"/>
<path d="M136.542 141.133C136.546 141.162 136.074 141.256 135.218 141.401C134.292 141.547 133.068 141.741 131.588 141.975C130.814 142.092 129.975 142.217 129.079 142.352C128.647 142.392 128.265 142.62 128.02 142.99C127.757 143.408 127.486 143.836 127.209 144.275C126.089 146.042 124.863 147.974 123.577 150.003C120.989 154.061 118.628 157.722 116.901 160.359C116.06 161.629 115.365 162.678 114.839 163.472C114.344 164.201 114.059 164.598 114.035 164.581C114.012 164.566 114.251 164.139 114.704 163.382C115.202 162.569 115.861 161.495 116.657 160.197C118.321 157.517 120.644 153.831 123.231 149.772C124.528 147.75 125.762 145.824 126.891 144.062C127.174 143.625 127.451 143.197 127.72 142.78C128.02 142.321 128.546 142.04 129.023 142.006C129.923 141.89 130.766 141.78 131.543 141.68C133.033 141.499 134.264 141.35 135.196 141.237C136.059 141.144 136.538 141.104 136.542 141.133Z" fill="#455A64"/>
<path d="M128.944 149.128C128.944 149.128 128.333 149.016 127.999 150.725C127.665 152.433 126.588 157.333 126.588 157.333L123.389 155.595L119.388 156.128C119.388 156.128 118.515 156.954 119.155 157.402C119.795 157.85 122.325 158.312 122.325 158.312L124.191 161.056L118.836 158.416C118.836 158.416 117.05 158.892 117.573 160.007C118.096 161.123 121.707 164.612 121.707 164.612L119.024 164.404L115.834 162.423C115.834 162.423 114.856 162.469 115.221 163.321C115.586 164.174 118.903 167.254 118.903 167.254L122.925 169.251C122.925 169.251 125.121 169.074 125.332 168.415C125.543 167.755 125.597 166.814 125.597 166.814C125.597 166.814 126.762 166.493 126.98 165.914C127.198 165.336 127.057 164.421 127.057 164.421C127.057 164.421 128.887 164.75 129.114 163.707C129.342 162.663 129.151 160.608 128.966 159.805C128.782 159.003 129.747 151.543 129.671 151.318C129.596 151.092 130.091 148.635 128.944 149.128Z" fill="#FFBE9D"/>
<path d="M125.472 168.423C125.486 168.472 125.097 168.647 124.423 168.757C123.752 168.869 122.791 168.88 121.772 168.633C120.753 168.383 119.9 167.931 119.351 167.522C118.798 167.113 118.527 166.778 118.561 166.74C118.637 166.635 119.911 167.764 121.868 168.223C123.815 168.715 125.451 168.293 125.472 168.423Z" fill="#EB996E"/>
<path d="M124.519 166.948C124.457 167.042 123.744 166.66 122.983 166.021C122.221 165.383 121.715 164.743 121.794 164.662C121.875 164.578 122.498 165.071 123.244 165.696C123.99 166.321 124.584 166.85 124.519 166.948Z" fill="#EB996E"/>
<path d="M126.635 163.397C126.574 163.492 125.867 163.12 125.153 162.444C124.438 161.77 124.018 161.078 124.106 161.008C124.197 160.934 124.744 161.485 125.433 162.134C126.12 162.786 126.701 163.299 126.635 163.397Z" fill="#EB996E"/>
<path d="M128.861 160.537C128.752 160.585 128.348 159.812 127.71 158.971C127.079 158.125 126.453 157.527 126.526 157.431C126.588 157.339 127.366 157.817 128.036 158.714C128.712 159.607 128.964 160.499 128.861 160.537Z" fill="#EB996E"/>
<path d="M131.582 292.956C131.606 292.954 131.629 292.712 131.563 292.279C131.494 291.85 131.321 291.222 130.894 290.557C130.785 290.395 130.676 290.22 130.496 290.06C130.325 289.901 130.031 289.78 129.747 289.887C129.606 289.933 129.465 290.065 129.416 290.227C129.363 290.392 129.389 290.554 129.431 290.687C129.524 290.959 129.663 291.154 129.779 291.378C130.039 291.825 130.253 292.269 130.585 292.773C130.752 293.031 131.129 293.243 131.474 293.182C131.812 293.138 132.086 292.971 132.332 292.793C132.81 292.438 133.231 292.034 133.593 291.604C133.774 291.389 133.94 291.167 134.09 290.942C134.233 290.719 134.4 290.492 134.464 290.182C134.528 289.883 134.417 289.489 134.085 289.353C133.748 289.229 133.473 289.401 133.286 289.538C132.904 289.861 132.675 290.193 132.443 290.514C132 291.155 131.755 291.743 131.617 292.153C131.482 292.567 131.45 292.806 131.474 292.812C131.542 292.841 131.769 291.888 132.668 290.684C132.891 290.399 133.168 290.052 133.477 289.81C133.635 289.694 133.833 289.62 133.952 289.682C134.078 289.728 134.148 289.922 134.107 290.108C134.068 290.301 133.926 290.507 133.78 290.722C133.634 290.934 133.474 291.142 133.301 291.345C132.954 291.749 132.551 292.131 132.101 292.465C131.884 292.624 131.649 292.756 131.429 292.783C131.208 292.811 131.035 292.721 130.89 292.529C130.614 292.119 130.35 291.612 130.095 291.191C129.973 290.971 129.826 290.757 129.761 290.574C129.694 290.38 129.731 290.255 129.863 290.202C130.166 290.074 130.461 290.424 130.665 290.721C131.516 291.955 131.505 292.981 131.582 292.956Z" fill="#263238"/>
<path d="M114.429 293.556L105.912 312.438L92.168 305.943L100.977 282.574L114.429 293.556Z" fill="#FFBE9D"/>
<path d="M107.522 311.178L102.546 320.885C102.546 320.885 115.284 334.358 114.087 337.369L84.1431 322.683L92.3697 303.213L107.522 311.178Z" fill="#455A64"/>
<path d="M93.908 315.016C93.2525 314.894 92.5399 315.364 92.3933 316.029C92.2474 316.693 92.7081 317.439 93.3614 317.573C94.0147 317.707 94.8872 317.169 94.9598 316.492C95.0324 315.814 94.444 314.969 93.7788 315" fill="#E0E0E0"/>
<g opacity="0.6">
<path d="M84.1431 322.683L85.389 320.242L113.634 335.236C113.634 335.236 114.689 336.483 114.088 337.369L84.1431 322.683Z" fill="white"/>
</g>
<path d="M103.104 320.967C103.029 321.114 102.266 320.824 101.321 320.952C100.373 321.055 99.698 321.521 99.5912 321.396C99.4705 321.301 100.107 320.513 101.254 320.379C102.399 320.233 103.2 320.845 103.104 320.967Z" fill="#263238"/>
<path d="M105.622 323.836C105.588 323.997 104.835 323.941 104.042 324.33C103.237 324.696 102.791 325.318 102.649 325.24C102.5 325.196 102.81 324.27 103.805 323.806C104.796 323.333 105.685 323.692 105.622 323.836Z" fill="#263238"/>
<path d="M105.603 328.556C105.455 328.523 105.602 327.676 106.362 327.041C107.117 326.401 107.958 326.416 107.962 326.571C107.987 326.734 107.337 326.956 106.721 327.487C106.093 328.002 105.755 328.613 105.603 328.556Z" fill="#263238"/>
<path d="M104.532 317.228C104.407 317.334 103.833 316.799 102.979 316.451C102.133 316.086 101.356 316.053 101.34 315.888C101.306 315.738 102.194 315.492 103.194 315.917C104.196 316.333 104.659 317.145 104.532 317.228Z" fill="#263238"/>
<path d="M110.327 308.658L132.777 251.184C132.777 251.184 132.273 241.378 130.507 238.282C128.741 235.185 75.2594 217.121 75.2594 217.121C75.2594 217.121 61.6365 213.766 52.5548 217.121C43.4731 220.475 36.6614 232.088 37.9227 238.539C39.1839 244.991 44.5069 249.73 44.5069 249.73L83.8364 250.926L105.273 258.926L90.8366 301.247L110.327 308.658Z" fill="#263238"/>
<path d="M130.296 269.384L130.802 290.173L115.667 290.552L113.486 265.604L130.296 269.384Z" fill="#FFBE9D"/>
<path d="M131.702 288.315L131.426 299.272C131.426 299.272 148.669 305.609 148.896 308.851L115.69 309.196L114.668 288.01L131.702 288.315Z" fill="#455A64"/>
<path d="M121.144 297.907C120.503 298.094 120.066 298.838 120.222 299.5C120.377 300.163 121.113 300.624 121.757 300.449C122.401 300.274 122.952 299.398 122.725 298.757C122.498 298.116 121.605 297.624 121.021 297.952" fill="#E0E0E0"/>
<g opacity="0.6">
<path d="M115.689 309.196L115.754 306.442L147.568 307.142C147.568 307.142 149.052 307.785 148.896 308.851L115.689 309.196Z" fill="white"/>
</g>
<path d="M131.963 299.094C131.959 299.26 131.149 299.343 130.357 299.885C129.551 300.406 129.146 301.128 128.996 301.064C128.846 301.033 129.079 300.039 130.05 299.401C131.014 298.753 131.996 298.941 131.963 299.094Z" fill="#263238"/>
<path d="M135.46 300.531C135.499 300.691 134.799 300.981 134.256 301.688C133.692 302.379 133.56 303.139 133.399 303.133C133.246 303.161 133.125 302.191 133.817 301.324C134.502 300.453 135.456 300.373 135.46 300.531Z" fill="#263238"/>
<path d="M137.48 304.775C137.333 304.812 137.099 303.985 137.507 303.072C137.908 302.156 138.669 301.79 138.739 301.928C138.832 302.063 138.345 302.555 138.021 303.31C137.681 304.057 137.642 304.757 137.48 304.775Z" fill="#263238"/>
<path d="M131.631 295.093C131.564 295.245 130.818 295.024 129.902 295.098C128.985 295.152 128.275 295.474 128.189 295.333C128.094 295.213 128.784 294.593 129.864 294.522C130.943 294.442 131.71 294.963 131.631 295.093Z" fill="#263238"/>
<path d="M121.457 211.668C121.457 211.668 130.526 210.926 131.534 220.991C132.544 231.055 133.534 278.022 133.534 278.022L112.343 279.829L109.064 231.83L75.2588 217.121C75.2588 217.121 115.403 210.378 121.457 211.668Z" fill="#263238"/>
<path d="M84.0808 198.087C84.0808 198.087 89.5845 213.871 88.5361 215.63C87.4877 217.389 73.3357 224.627 73.3357 224.627L37.9234 238.54C37.9234 238.54 34.2861 232.621 34.2861 223.531C34.2861 214.44 46.6037 198.087 46.6037 198.087H84.0808Z" fill="#263238"/>
<path d="M73.584 216.316C73.5819 216.321 73.6378 216.352 73.7502 216.407C73.88 216.468 74.0454 216.547 74.2527 216.645C74.7197 216.857 75.3751 217.155 76.2141 217.537C77.9528 218.312 80.4496 219.424 83.5752 220.817C89.8914 223.598 98.7442 227.497 108.989 232.008L108.874 231.843C109.195 236.584 109.543 241.705 109.902 247.003C110.764 259.387 111.558 270.805 112.186 279.839L112.197 280.002L112.357 279.988C118.802 279.41 124.091 278.935 127.794 278.602C129.615 278.428 131.046 278.291 132.045 278.196C132.515 278.146 132.884 278.107 133.156 278.078C133.406 278.049 133.535 278.029 133.534 278.022C133.533 278.013 133.403 278.017 133.151 278.029C132.878 278.047 132.509 278.071 132.037 278.101C131.036 278.176 129.603 278.284 127.779 278.42C124.072 278.719 118.78 279.146 112.329 279.667L112.5 279.817C111.893 270.781 111.127 259.36 110.296 246.975C109.932 241.678 109.579 236.557 109.253 231.817L109.244 231.698L109.137 231.652C98.8705 227.194 89.9982 223.341 83.6687 220.593C80.5243 219.244 78.0129 218.167 76.2644 217.417C75.4149 217.061 74.7518 216.783 74.2786 216.583C74.0657 216.498 73.8954 216.429 73.7627 216.376C73.6469 216.331 73.5861 216.311 73.584 216.316Z" fill="#455A64"/>
<path d="M45.4206 217.895C45.4297 217.921 45.7836 217.821 46.4145 217.617C47.1181 217.385 48.0123 217.09 49.0809 216.738C51.3306 216.008 54.452 214.99 58.0041 214.431C61.5563 213.871 64.8431 214.044 67.1389 214.551C69.4451 215.039 70.7706 215.712 70.7999 215.636C70.8096 215.614 70.4893 215.429 69.8785 215.159C69.2692 214.886 68.3583 214.556 67.1989 214.271C64.8864 213.684 61.5409 213.462 57.9448 214.031C54.3501 214.597 51.2224 215.666 48.9909 216.466C47.8741 216.872 46.9785 217.219 46.3622 217.468C45.7473 217.718 45.4115 217.869 45.4206 217.895Z" fill="#455A64"/>
<path d="M50.4268 209.575C50.4366 209.639 51.6127 209.404 53.5231 209.557C54.4766 209.625 55.6116 209.775 56.8749 209.924C58.1362 210.077 59.5211 210.251 60.9548 210.529C63.8319 211.053 66.3077 212.079 67.8936 213.162C69.4948 214.228 70.2451 215.2 70.2996 215.145C70.3149 215.132 70.153 214.871 69.7851 214.464C69.418 214.057 68.8491 213.493 68.0499 212.925C66.4724 211.757 63.9415 210.661 61.0287 210.132C59.5769 209.85 58.1809 209.687 56.9147 209.553C55.6493 209.424 54.5066 209.303 53.5371 209.271C52.569 209.235 51.7816 209.292 51.2456 209.375C50.7088 209.458 50.4219 209.551 50.4268 209.575Z" fill="#455A64"/>
<path d="M66.0685 82.7348C61.9936 82.0265 58.4122 83.6316 54.9752 85.9806C51.539 88.3304 48.9508 91.8762 47.4571 95.8181C45.8831 99.9701 45.5006 104.642 46.7095 108.92C47.9191 113.198 50.783 117.027 54.6646 119.044C59.9652 121.798 66.7435 120.837 71.4857 117.17C76.2279 113.502 78.9389 107.438 79.1665 101.361C79.3228 97.1747 78.345 92.8915 76.0583 89.4157C73.771 85.9407 70.1211 83.3438 66.0685 82.7348Z" fill="#263238"/>
<path d="M54.4802 96.9084C55.0763 95.314 54.8453 93.5333 55.0812 91.8433C55.6005 88.1219 58.5321 85.1374 61.9223 83.6865C65.0759 82.3371 68.9281 82.6312 72.7273 83.8879C75.3316 84.749 77.783 86.2505 79.5189 88.4146C81.823 91.2871 82.6354 95.3447 81.6192 98.9119L63.0049 96.1387C61.262 97.6138 59.4779 99.1132 57.3644 99.9357C56.7438 100.177 56.0765 100.358 55.4211 100.253C54.7657 100.146 54.1284 99.6908 53.9735 99.0304C53.8039 98.31 54.2213 97.6017 54.4802 96.9084Z" fill="#263238"/>
<path d="M73.1255 89.145L56.874 92.6672C55.3021 92.7743 54.0715 94.0945 54.0415 95.706L54.2369 131.682C54.2502 134.139 55.0557 136.524 56.5278 138.465L58.0773 140.51C61.6113 145.172 68.7693 144.702 71.4685 139.49C71.6569 139.126 71.7875 138.807 71.8426 138.548C71.897 138.225 71.9808 138.011 71.9955 137.736L72.3054 134.229C72.4638 131.026 72.4855 127.771 72.4862 127.801C72.4862 127.801 79.1367 126.941 80.8405 118.176C81.6879 113.817 81.7458 106.617 81.6062 100.725C81.4813 95.4197 78.3005 88.7916 73.1255 89.145Z" fill="#FFBE9D"/>
<path d="M79.1334 107.475C79.1313 108.073 78.6344 108.564 78.0243 108.574C77.4149 108.583 76.9208 108.107 76.9229 107.508C76.925 106.91 77.4219 106.418 78.0313 106.409C78.642 106.4 79.1355 106.877 79.1334 107.475Z" fill="#263238"/>
<path d="M79.9389 104.404C79.7965 104.546 78.9826 103.878 77.7925 103.834C76.6045 103.773 75.7076 104.365 75.5841 104.21C75.5226 104.142 75.6734 103.881 76.0636 103.613C76.4489 103.346 77.0973 103.097 77.8386 103.129C78.5799 103.163 79.1927 103.467 79.5403 103.767C79.8949 104.069 80.0087 104.34 79.9389 104.404Z" fill="#263238"/>
<path d="M68.4687 107.202C68.4666 107.8 67.9696 108.292 67.3595 108.301C66.7502 108.31 66.2567 107.834 66.2588 107.236C66.2609 106.638 66.7579 106.146 67.3672 106.137C67.9773 106.127 68.4708 106.604 68.4687 107.202Z" fill="#263238"/>
<path d="M68.6396 104.108C68.4965 104.25 67.682 103.582 66.4926 103.539C65.3046 103.477 64.4076 104.068 64.2841 103.914C64.2234 103.846 64.3721 103.585 64.7643 103.317C65.1496 103.05 65.7981 102.801 66.5393 102.833C67.2799 102.867 67.8928 103.171 68.2411 103.471C68.5949 103.773 68.7094 104.044 68.6396 104.108Z" fill="#263238"/>
<path d="M72.2102 113.365C72.2075 113.295 72.9515 113.194 74.1563 113.085C74.4613 113.065 74.7517 113.015 74.8103 112.804C74.8906 112.582 74.7761 112.242 74.6428 111.875C74.3859 111.112 74.1165 110.312 73.8338 109.473C72.7142 106.054 71.9157 103.247 72.0511 103.202C72.1858 103.157 73.2035 105.892 74.3231 109.311C74.5918 110.154 74.8487 110.958 75.0937 111.726C75.1956 112.084 75.3778 112.492 75.2054 112.952C75.1146 113.181 74.885 113.34 74.6881 113.387C74.4913 113.44 74.3203 113.436 74.1695 113.44C72.9606 113.458 72.2123 113.434 72.2102 113.365Z" fill="#263238"/>
<path d="M72.4851 127.8C72.4851 127.8 66.67 127.952 61.0581 124.191C61.0581 124.191 63.7294 130.411 72.3901 129.929L72.4851 127.8Z" fill="#EB996E"/>
<path d="M71.5952 116.278C71.189 115.683 70.4519 115.335 69.7043 115.387C69.1857 115.424 68.6545 115.657 68.3244 116.076C67.9942 116.493 67.9056 117.102 68.175 117.523C68.4786 117.998 69.1452 118.131 69.7197 117.988C70.2941 117.846 70.7967 117.483 71.2755 117.12C71.4082 117.02 71.5436 116.915 71.6287 116.774C71.7146 116.633 71.739 116.445 71.6441 116.321" fill="#EB996E"/>
<path d="M68.6762 114.068C68.8702 114.064 68.822 115.385 69.8928 116.367C70.96 117.352 72.3428 117.258 72.3455 117.443C72.3602 117.527 72.0294 117.688 71.4479 117.681C70.877 117.678 70.0519 117.458 69.3972 116.858C68.7446 116.256 68.4835 115.477 68.4605 114.933C68.4319 114.378 68.5882 114.056 68.6762 114.068Z" fill="#263238"/>
<path d="M68.5737 100.495C68.4439 100.821 67.2614 100.617 65.8592 100.734C64.4541 100.822 63.3129 101.195 63.1384 100.891C63.0609 100.745 63.2696 100.443 63.7365 100.14C64.2 99.838 64.9315 99.5624 65.7726 99.5003C66.6144 99.4396 67.3766 99.6059 67.8771 99.838C68.3817 100.069 68.6295 100.34 68.5737 100.495Z" fill="#263238"/>
<path d="M79.7954 99.0683C79.5755 99.336 78.7672 99.0168 77.7817 98.964C76.7982 98.8762 75.9543 99.0775 75.7735 98.7805C75.6946 98.637 75.8363 98.365 76.2112 98.1179C76.5804 97.8716 77.1898 97.6824 77.8661 97.7302C78.5425 97.7795 79.1197 98.0529 79.452 98.35C79.7898 98.647 79.8931 98.9369 79.7954 99.0683Z" fill="#263238"/>
<path d="M51.5012 94.3415C53.1862 89.2792 60.5424 82.382 65.7488 82.8604L73.9754 88.1383C73.4149 91.03 71.175 93.5125 68.4019 94.3151C66.9207 94.7435 65.1457 94.8334 64.2453 96.1108C63.3253 97.4146 63.8104 99.3509 62.9519 100.698C61.7618 102.564 58.6117 102.41 57.7071 104.437C57.312 105.324 57.4886 106.395 57.0775 107.273C56.5303 108.443 53.5791 109.88 52.3779 109.464C51.1773 109.048 51.2143 106.942 50.8409 105.831C50.2022 103.933 50.4996 102.962 50.7425 101.913C51.3169 99.4302 50.6978 96.7563 51.5012 94.3415Z" fill="#263238"/>
<path d="M55.9238 110.579C55.9469 109.922 55.2635 108.344 54.6332 108.217C52.9503 107.88 49.8931 107.898 49.6977 112.296C49.431 118.308 55.3864 117.342 55.4045 117.17C55.4178 117.035 55.8429 112.846 55.9238 110.579Z" fill="#FFBE9D"/>
<path d="M53.7096 114.808C53.6845 114.788 53.6043 114.877 53.4277 114.95C53.2553 115.02 52.9628 115.062 52.6613 114.93C52.0505 114.668 51.5724 113.636 51.5919 112.551C51.601 112.003 51.7364 111.488 51.9451 111.065C52.144 110.634 52.4358 110.339 52.7506 110.297C53.0647 110.238 53.2776 110.439 53.3418 110.612C53.413 110.784 53.3704 110.903 53.4011 110.914C53.4165 110.931 53.5317 110.819 53.4954 110.569C53.4758 110.449 53.4137 110.304 53.2811 110.182C53.145 110.058 52.9405 109.988 52.7213 110.002C52.2669 110.014 51.8397 110.421 51.6108 110.885C51.3567 111.35 51.192 111.929 51.1815 112.544C51.1654 113.757 51.721 114.919 52.56 115.21C52.9684 115.339 53.3195 115.227 53.5037 115.094C53.6929 114.953 53.7292 114.821 53.7096 114.808Z" fill="#EB996E"/>
<path d="M50.2426 92.7823C50.2622 90.9016 47.9657 89.6714 46.1747 89.2451C44.3836 88.8196 42.4899 89.3765 40.8775 90.2804C39.9338 90.8088 38.9839 91.5613 38.7731 92.6402C38.5616 93.719 39.5772 95.0049 40.5844 94.6187C38.6544 95.2941 37.6758 97.9309 38.6809 99.7466C39.6861 101.562 42.3999 102.06 43.9585 100.715C43.4553 102.438 42.3566 103.972 40.9027 104.982C43.9257 105.423 47.1358 104.103 49.0183 101.643C50.9015 99.1833 51.3852 95.679 50.2426 92.7823Z" fill="#263238"/>
<path d="M46.163 102.344C46.1211 102.351 45.9641 101.669 45.9431 100.54C45.9194 99.4146 46.0827 97.8409 46.6202 96.2016C47.1625 94.563 47.9638 93.2092 48.6479 92.3282C49.3319 91.4421 49.8603 90.9965 49.8903 91.0272C49.9985 91.1051 48.0267 93.1028 46.9894 96.3287C45.9075 99.5374 46.2956 102.349 46.163 102.344Z" fill="#21972B"/>
<path d="M72.2671 86.3205C72.808 88.7681 76.4446 91.9068 78.0409 93.8125C81.087 97.4481 81.6873 98.6555 81.6573 106.784C83.0952 103.976 84.1966 101.226 84.0863 98.0586C83.976 94.8913 82.8355 91.7183 80.6829 89.4392C78.5309 87.1594 75.3334 85.8656 72.2671 86.3205Z" fill="#263238"/>
<path d="M97.1935 153.211C97.1935 153.211 90.8592 142.407 89.1016 140.222C87.4536 138.173 85.3303 136.965 83.9127 136.33C83.1239 135.977 82.2947 135.734 81.4466 135.584L72.337 133.52C72.337 133.52 72.321 139.881 65.8058 140.274C59.2907 140.667 53.8051 131.384 53.8051 131.384C53.8051 131.384 43.2807 133.049 40.7623 134.374C38.2439 135.699 34.2862 137.382 32.1092 148.537L30.5806 159.45L48.7279 161.166L50.4645 188.75L59.4645 195.161C59.4645 195.161 84.4152 201.796 86.0094 202.236C87.6037 202.674 88.1321 161.166 88.1321 161.166C88.1321 161.166 94.5411 156.927 97.1935 153.211Z" fill="#263238"/>
<path d="M85.2493 148.572C85.273 148.563 85.3965 148.846 85.5997 149.368C85.807 149.888 86.0715 150.654 86.3661 151.612C86.9573 153.526 87.6057 156.233 87.9729 159.279C88.3344 162.326 88.3435 165.114 88.2213 167.117C88.1613 168.119 88.0852 168.928 88.0064 169.484C87.9317 170.04 87.8786 170.345 87.8542 170.343C87.8291 170.34 87.8347 170.029 87.8661 169.471C87.9017 168.913 87.938 168.104 87.9645 167.107C88.0203 165.111 87.9708 162.349 87.612 159.325C87.2476 156.303 86.6446 153.61 86.119 151.687C85.8579 150.725 85.6318 149.95 85.4656 149.417C85.3044 148.881 85.2255 148.581 85.2493 148.572Z" fill="#455A64"/>
<path d="M84.4753 193.757L50.3068 186.149L48.728 161.167L33.5332 159.73C33.5332 159.73 34.0951 176.809 34.68 181.887C35.5204 189.189 39.7405 199.153 42.2086 201.145C44.6775 203.135 86.0095 202.238 86.0095 202.238L84.4753 193.757Z" fill="#FFBE9D"/>
<path d="M103.871 198.285C103.631 198.773 103.131 199.09 102.599 199.043C102.493 199.034 102.382 199.013 102.268 198.975C101.512 198.727 101.583 197.153 101.583 197.153L97.9621 196.548C97.9621 196.548 93.2534 199.654 91.5782 201.713C89.903 203.771 85.6291 202.104 85.6291 202.104L84.1479 194.21L90.8131 188.044C90.8131 188.044 90.4041 188.411 90.8634 187.258C91.3234 186.105 93.4174 186.541 93.4174 186.541C93.7434 185.971 95.1114 185.766 95.1114 185.766L100.958 186.455C102.163 186.598 103.24 187.29 103.887 188.338L106.36 192.342C106.36 192.342 107.666 195.223 107.456 195.894C107.139 196.905 106.093 196.68 106.093 196.68C106.093 196.68 105.805 198.575 105.319 198.641C104.832 198.706 103.871 198.285 103.871 198.285Z" fill="#FFBE9D"/>
<path d="M91.4283 192.614C91.4345 192.677 92.2121 192.604 93.4608 192.659C94.7068 192.721 96.4301 192.944 98.2317 193.572C99.1321 193.882 99.9627 194.256 100.691 194.648C101.398 195.055 102.135 195.389 102.361 195.915C102.475 196.173 102.424 196.435 102.298 196.628C102.174 196.821 102.006 196.947 101.856 197.009C101.549 197.138 101.35 197.05 101.344 197.086C101.329 197.095 101.526 197.25 101.904 197.149C102.087 197.098 102.298 196.973 102.468 196.751C102.642 196.539 102.741 196.162 102.606 195.815C102.48 195.466 102.189 195.196 101.879 194.974C101.56 194.761 101.227 194.543 100.855 194.338C100.12 193.92 99.2731 193.528 98.351 193.21C96.5069 192.567 94.7333 192.382 93.4664 192.388C92.194 192.403 91.422 192.573 91.4283 192.614Z" fill="#EB996E"/>
<path d="M91.0186 196.428C91.0255 196.541 93.4043 196.439 96.3276 196.615C99.2522 196.779 101.604 197.155 101.623 197.044C101.632 196.995 101.053 196.837 100.101 196.666C99.1496 196.494 97.8227 196.32 96.3485 196.234C94.875 196.149 93.5377 196.168 92.573 196.228C91.6084 196.289 91.0158 196.378 91.0186 196.428Z" fill="#EB996E"/>
<path d="M103.837 198.134C103.856 198.13 103.882 197.91 103.91 197.497C103.934 197.086 103.959 196.487 103.913 195.745C103.889 195.375 103.85 194.967 103.75 194.532C103.657 194.095 103.453 193.636 103.176 193.229C102.649 192.414 101.916 191.568 100.985 190.934C100.056 190.308 99.128 189.779 98.1884 189.489C97.2559 189.2 96.3841 189.129 95.6631 189.095C94.9399 189.069 94.3578 189.085 93.9558 189.101C93.5537 189.118 93.3318 189.139 93.3311 189.166C93.3283 189.227 94.2224 189.258 95.6463 189.364C96.3548 189.431 97.2015 189.53 98.0858 189.823C98.9632 190.111 99.8755 190.642 100.773 191.248C101.672 191.863 102.356 192.637 102.892 193.428C103.458 194.182 103.563 195.047 103.65 195.768C103.792 197.217 103.756 198.136 103.837 198.134Z" fill="#EB996E"/>
<path d="M95.3921 187.285C95.3914 187.342 96.2667 187.366 97.6641 187.53C99.0091 187.741 101.162 187.842 102.388 189.738C103.716 191.463 104.845 193.093 105.339 194.429C105.862 195.757 105.816 196.675 105.892 196.669C105.912 196.669 105.947 196.444 105.926 196.035C105.91 195.626 105.824 195.031 105.586 194.336C105.137 192.926 104.014 191.235 102.679 189.5C102.339 189.064 101.97 188.651 101.543 188.325C101.117 187.992 100.622 187.799 100.167 187.664C99.2451 187.397 98.397 187.319 97.6892 187.261C96.2695 187.164 95.3914 187.237 95.3921 187.285Z" fill="#EB996E"/>
<path d="M92.8562 200.439C92.8639 200.447 92.9833 200.354 93.2032 200.167C93.4537 199.962 93.7783 199.695 94.1818 199.363C95.0452 198.68 96.3288 197.708 98.0242 196.656L97.9412 196.672C99.021 196.86 100.239 197.073 101.558 197.302L101.434 197.146C101.426 197.448 101.443 197.743 101.502 198.05C101.562 198.351 101.657 198.676 101.912 198.941C102.045 199.069 102.235 199.145 102.392 199.166C102.554 199.208 102.728 199.225 102.901 199.197C103.247 199.146 103.571 198.961 103.802 198.687C103.861 198.62 103.912 198.545 103.959 198.468L103.992 198.409L104.008 198.379L104.017 198.364L104.017 198.361C104.064 198.343 103.613 198.512 103.805 198.441L103.809 198.442L103.817 198.445L103.931 198.493C104.084 198.555 104.239 198.611 104.399 198.662C104.559 198.713 104.722 198.758 104.895 198.788C104.981 198.803 105.069 198.816 105.163 198.818C105.251 198.822 105.357 198.825 105.498 198.752C105.702 198.604 105.776 198.428 105.853 198.262C105.926 198.094 105.984 197.925 106.033 197.753C106.133 197.41 106.205 197.064 106.266 196.705L106.054 196.855C106.524 196.939 107.077 196.824 107.403 196.384C107.549 196.18 107.669 195.928 107.651 195.639C107.639 195.38 107.583 195.153 107.523 194.923C107.269 194.015 106.911 193.143 106.524 192.26L106.52 192.25L106.513 192.238C106.092 191.557 105.646 190.834 105.195 190.103C104.914 189.648 104.635 189.197 104.359 188.75C104.081 188.316 103.832 187.829 103.441 187.439C103.066 187.05 102.615 186.747 102.129 186.547C101.647 186.334 101.111 186.281 100.638 186.23C98.7013 186.007 96.8544 185.794 95.1275 185.596L95.1038 185.593L95.0843 185.597C94.7457 185.655 94.4288 185.737 94.1175 185.857C93.8146 185.982 93.4935 186.124 93.2778 186.458L93.4803 186.393C92.8611 186.133 92.1443 186.13 91.6026 186.5C91.0582 186.866 90.8069 187.458 90.6736 188.014L90.7176 187.936C88.8037 189.697 87.2415 191.134 86.124 192.162C85.6089 192.647 85.1971 193.035 84.8865 193.328C84.6066 193.598 84.4635 193.745 84.4726 193.755C84.4816 193.766 84.6422 193.639 84.9395 193.389C85.2627 193.111 85.6906 192.742 86.2259 192.28C87.363 191.275 88.9523 189.87 90.9005 188.148L90.9319 188.121L90.9444 188.07C91.0673 187.579 91.3144 187.04 91.7639 186.755C92.2008 186.454 92.8283 186.463 93.3469 186.685L93.4747 186.74L93.5501 186.62C93.675 186.421 93.9528 186.271 94.2313 186.167C94.5133 186.06 94.8246 185.983 95.1317 185.932L95.0892 185.933C96.8146 186.141 98.6608 186.364 100.596 186.598C101.09 186.653 101.551 186.7 101.992 186.895C102.431 187.077 102.838 187.352 103.178 187.704C103.522 188.045 103.757 188.503 104.044 188.952C104.32 189.4 104.599 189.851 104.879 190.306C105.332 191.037 105.778 191.761 106.199 192.441L106.187 192.42C106.568 193.284 106.927 194.157 107.17 195.021C107.227 195.236 107.28 195.457 107.288 195.653C107.308 195.823 107.223 196.007 107.116 196.161C106.906 196.464 106.482 196.56 106.125 196.501L105.943 196.47L105.914 196.65C105.859 196.988 105.789 197.33 105.697 197.652C105.609 197.957 105.479 198.329 105.318 198.453C105.31 198.457 105.248 198.477 105.171 198.469C105.101 198.469 105.024 198.459 104.95 198.446C104.799 198.42 104.646 198.379 104.496 198.333C104.346 198.287 104.197 198.234 104.051 198.176L103.944 198.132L103.938 198.129L103.935 198.127C104.125 198.056 103.673 198.224 103.72 198.207L103.719 198.209L103.713 198.221L103.7 198.244L103.675 198.292C103.638 198.352 103.598 198.411 103.552 198.465C103.372 198.683 103.118 198.828 102.854 198.87C102.722 198.893 102.59 198.881 102.457 198.846C102.312 198.826 102.216 198.784 102.126 198.705C101.781 198.337 101.731 197.681 101.729 197.158L101.729 197.021L101.605 197.001C100.283 196.79 99.0622 196.595 97.9796 196.422L97.9328 196.415L97.8958 196.439C96.2004 197.53 94.9384 198.535 94.0959 199.255C93.6764 199.618 93.3616 199.909 93.1557 200.113C92.9519 200.319 92.8479 200.43 92.8562 200.439Z" fill="#EB996E"/>
<path d="M148.202 175.318L103.196 175.693C101.736 175.693 100.341 176.41 100.122 177.887L95.2032 211.441H72.0212C71.2751 211.441 70.6699 212.06 70.6699 212.823C70.6699 213.587 71.2751 214.206 72.0212 214.206H94.7977H99.1211H146.061L151.121 178.792C151.393 176.964 150.009 175.318 148.202 175.318Z" fill="#E0E0E0"/>
<path d="M148.203 175.318C148.203 175.318 148.448 175.286 148.912 175.386C149.362 175.493 150.072 175.778 150.631 176.552C150.909 176.931 151.122 177.438 151.187 178.022C151.26 178.614 151.094 179.24 151.022 179.915C150.833 181.271 150.616 182.833 150.373 184.588C149.382 191.623 147.955 201.761 146.199 214.226L146.182 214.347H146.061C126.902 214.359 101.725 214.374 74.2313 214.391C73.5856 214.391 72.9414 214.391 72.2978 214.391C71.9998 214.404 71.5844 214.386 71.2752 214.191C70.9555 214.012 70.7071 213.71 70.5828 213.36C70.3134 212.658 70.6352 211.797 71.2815 211.448C71.59 211.258 72.0012 211.241 72.2957 211.253H73.2478C75.7836 211.254 78.2936 211.254 80.7708 211.255C85.7259 211.256 90.5519 211.258 95.2027 211.26L95.0296 211.413C96.7997 199.396 98.4512 188.186 99.933 178.129C99.984 177.493 100.266 176.804 100.766 176.377C101.254 175.933 101.873 175.698 102.486 175.6C103.112 175.503 103.709 175.555 104.301 175.534C104.895 175.53 105.484 175.526 106.068 175.522C108.405 175.506 110.665 175.491 112.844 175.476C117.199 175.447 121.228 175.421 124.886 175.398C132.193 175.359 138.018 175.329 142.029 175.308C144.021 175.304 145.561 175.301 146.615 175.299C147.13 175.302 147.523 175.303 147.8 175.305C148.066 175.309 148.203 175.318 148.203 175.318C148.203 175.318 148.067 175.33 147.8 175.338C147.524 175.343 147.131 175.352 146.617 175.363C145.563 175.378 144.024 175.401 142.031 175.431C138.02 175.476 132.195 175.543 124.889 175.625C121.231 175.663 117.203 175.703 112.847 175.748C110.669 175.769 108.409 175.791 106.072 175.813C105.488 175.819 104.899 175.825 104.305 175.83C103.713 175.851 103.103 175.804 102.534 175.897C101.962 175.989 101.395 176.21 100.965 176.605C100.522 176.999 100.288 177.548 100.232 178.177C98.7653 188.235 97.1305 199.447 95.3772 211.467L95.3548 211.62H95.2041C90.5533 211.621 85.7266 211.623 80.7722 211.625C78.295 211.625 75.785 211.625 73.2492 211.626H72.2971C71.9614 211.617 71.7108 211.63 71.4588 211.775C70.9653 212.042 70.7196 212.698 70.9255 213.233C71.0198 213.499 71.2096 213.731 71.4539 213.867C71.7073 214.014 71.96 214.029 72.2999 214.019C72.9428 214.019 73.587 214.019 74.2334 214.019C101.727 214.035 126.904 214.051 146.063 214.062L145.926 214.184C147.731 201.727 149.201 191.595 150.22 184.564C150.477 182.81 150.706 181.251 150.905 179.897C150.985 179.218 151.155 178.596 151.089 178.032C151.032 177.466 150.833 176.973 150.567 176.6C150.033 175.838 149.344 175.546 148.903 175.426C148.448 175.316 148.201 175.337 148.203 175.318Z" fill="#263238"/>
<path d="M123.79 197.218C125.347 197.218 126.608 195.927 126.608 194.335C126.608 192.743 125.347 191.453 123.79 191.453C122.234 191.453 120.973 192.743 120.973 194.335C120.973 195.927 122.234 197.218 123.79 197.218Z" fill="white"/>
<path d="M97.0281 213.896C97.0916 213.907 98.5246 205.362 100.227 194.814C101.931 184.263 103.26 175.703 103.196 175.692C103.133 175.681 101.7 184.223 99.9967 194.775C98.2942 205.324 96.9645 213.885 97.0281 213.896Z" fill="#263238"/>
</svg>
