<svg width="373" height="371" viewBox="0 0 373 371" fill="none" xmlns="http://www.w3.org/2000/svg">
<g clip-path="url(#clip0_250_120)">
<path d="M373 0H-2V371H373V0Z" fill="white"/>
<path fill-rule="evenodd" clip-rule="evenodd" d="M291.255 90.6286C286.095 86.2382 280.815 82.3657 275.605 78.5927C265.491 71.2691 254.975 64.1927 244.445 60.243C239.193 58.276 234.1 56.9975 228.988 58.063C226.212 58.6418 223.311 60.0056 221.443 63.0344C219.66 65.923 219.722 68.7011 220.14 71.3203C220.98 76.5752 224.078 81.7914 226.449 86.2004C231.761 96.0823 237.135 105.4 240.761 115.729C242.59 120.94 243.739 125.882 243.902 131.26C243.975 133.705 243.931 136.551 243.041 139.466C242.613 140.864 241.855 142.561 240.879 143.844C239.775 145.291 238.739 146.055 237.075 146.679C232.037 148.571 226.693 146.346 221.534 143.824C216.183 141.209 211.038 137.966 205.991 134.605C195.765 127.798 185.209 120.707 174.797 113.35C167.133 107.936 159.165 102.567 151.423 97.806C148.775 96.1781 146.211 94.4863 143.686 92.9229C123.078 80.1598 101.864 72.5654 81.5643 72.5965C71.5765 72.6114 60.6993 74.64 50.7213 80.4091C45.2808 83.5566 40.1733 87.5397 35.3755 93.4646C30.6243 99.3323 27.5658 105.245 25.0315 111.361C22.5685 117.311 20.5975 122.862 19.186 128.521C12.238 156.345 16.09 182.513 25.828 207.587C29.7003 217.56 34.9578 227.359 41.0973 236.866C53.2503 255.691 71.392 275.295 93.2853 290.733C129.75 316.446 165.909 328.359 202.101 331.96C204.663 332.213 207.293 332.325 209.861 332.469C222.66 333.195 235.51 332.454 248.452 330.458C258.737 328.872 269.156 326.246 279.216 322.277C289.573 318.187 299.565 313.253 309.954 305.74C320.077 298.418 330.628 288.201 339.332 274.579C347.016 262.556 351.179 251.098 353.605 239.869C356.045 228.583 356.761 217.937 356.092 207.296C354.122 175.97 341.215 145.49 318.312 117.774C310.542 108.366 301.347 99.2151 291.255 90.6286Z" fill="#EBEEF2"/>
<mask id="mask0_250_120" style="mask-type:luminance" maskUnits="userSpaceOnUse" x="-2" y="0" width="375" height="371">
<path d="M373 0H-2V371H373V0Z" fill="white"/>
</mask>
<g mask="url(#mask0_250_120)">
<path d="M41.3146 323.301C40.6156 322.055 39.4599 321.331 38.5066 321.544C37.9959 321.656 37.1274 322.13 36.9999 324.023C36.8529 326.267 37.5759 328.532 38.1601 330.246C37.7851 329.991 37.3989 329.694 37.0006 329.388C36.1644 328.745 35.3004 328.084 34.3419 327.645C33.2911 326.125 30.6046 322.763 26.9881 322.043C25.9351 321.832 24.2559 321.936 23.8756 323.072C23.8711 323.088 23.8666 323.103 23.8621 323.123C23.2734 325.113 25.9711 326.51 27.2799 327.186C29.0109 328.08 30.7164 328.716 32.2164 329.031C32.4511 329.082 32.7339 329.087 32.9859 329.096C33.1419 329.102 33.3774 329.109 33.4434 329.129C34.0216 329.306 34.7934 329.881 35.4699 330.39C35.6506 330.524 35.8261 330.658 35.9964 330.78C36.4336 331.095 36.8304 331.426 37.2114 331.743C37.2451 331.774 37.2841 331.805 37.3201 331.834C35.1361 331.486 32.0784 331.638 30.4659 332.481C29.4699 332.998 29.2179 333.666 29.1834 334.135C29.1459 334.647 29.3071 335.113 29.6619 335.515C30.7606 336.762 33.5266 337.06 34.6651 337.13C37.3314 337.298 39.7096 336.919 41.9319 335.976C44.4361 338.14 46.5174 340.798 48.4224 343.416C47.9829 343.263 47.5141 343.075 47.0341 342.881C44.9956 342.064 42.4576 341.046 39.7366 341.616C38.2201 341.934 37.8811 342.832 37.8144 343.337C37.6674 344.452 38.5111 345.733 39.8191 346.387C42.5559 347.761 47.7541 347.917 50.6094 346.763C52.2661 349.093 53.5726 351.859 54.8266 354.571C54.6264 354.472 54.4209 354.37 54.2101 354.264C51.9721 353.15 49.1874 351.762 46.0194 351.897C45.6234 351.916 43.6404 352.058 43.2616 353.185C43.2564 353.2 43.2526 353.216 43.2459 353.231C42.5776 355.563 45.9819 357.117 47.4744 357.677C50.6079 358.857 53.7759 359.079 56.2464 358.309C57.4771 361.154 58.2564 364.443 58.8834 367.674C57.1906 366.042 54.5109 363.616 51.4539 364.076C50.8111 364.175 49.8054 364.725 49.6096 365.399C48.9466 367.832 52.3404 369.573 53.8276 370.209C54.8881 370.662 55.8384 370.991 56.7541 371.313C57.7224 371.651 58.6381 371.97 59.5786 372.397C59.7301 373.76 59.8441 375.736 59.8824 377.749C59.8846 377.871 59.8711 378.012 59.8569 378.154C59.8081 378.662 59.7196 379.615 60.6309 379.77L60.7704 379.771C61.8054 379.603 61.6959 378.476 61.6321 377.801C61.6134 377.639 61.5976 377.486 61.5984 377.354C61.5946 375.897 61.5376 373.892 61.3066 372.402C62.6401 371.316 65.7249 368.702 66.8469 365.338C67.0216 364.809 67.1506 364.26 67.2151 363.696C67.3869 362.161 67.2024 359.496 65.4076 359.256C62.9341 358.927 61.9936 362.115 61.5924 363.475C61.1911 364.841 60.9031 366.081 60.6504 367.326C60.5881 367.059 60.5304 366.787 60.4681 366.515C59.9019 363.959 59.2599 361.065 58.4049 358.631C58.3396 358.446 58.2324 358.24 58.1259 358.04C58.0419 357.876 57.9136 357.629 57.9046 357.56C57.9271 357.279 58.1791 356.996 58.4746 356.677C58.6299 356.507 58.7919 356.33 58.9374 356.135C60.9054 353.518 61.6981 350.631 61.2984 347.551C61.0524 345.65 60.3136 344.652 59.0971 344.589C56.9049 344.473 56.6454 347.034 56.4909 348.566L56.4436 348.986C56.2704 350.471 56.1736 351.802 56.1429 353.12C56.0566 352.938 55.9644 352.756 55.8781 352.572C54.7194 350.188 53.5194 347.727 52.0126 345.604C53.8479 342.809 54.4419 337.385 52.4574 334.255C51.5266 332.789 50.4579 332.086 49.3681 332.222C48.7164 332.305 48.2124 332.616 47.8719 333.143C46.8729 334.687 47.5749 337.847 48.2506 340.16C46.1799 337.664 43.7461 335.063 41.3484 332.792C42.5041 330.377 42.7509 325.861 41.3146 323.301Z" fill="#68A16C" fill-opacity="0.65"/>
<path d="M28.2284 305.533C28.7774 305.056 29.7412 304.943 30.5512 305.061C30.5347 304.916 30.5129 304.768 30.4919 304.627C30.3869 303.968 30.2579 303.146 31.1182 302.775C31.6409 302.547 32.1697 302.637 32.6182 303.018C33.4897 303.768 33.8939 305.474 33.6997 306.535C37.2224 309.574 40.9462 310.845 45.3562 310.501C44.7742 309.879 44.1472 309.299 43.4932 308.691C42.7597 308.011 42.0014 307.31 41.2844 306.528C39.3869 304.443 37.4969 301.918 35.6714 299.479C35.3242 299.014 34.9747 298.548 34.6267 298.087C34.2494 297.945 33.8077 297.849 33.3382 297.75C31.9462 297.451 30.2137 297.077 30.1237 295.088L30.1184 294.984L30.1754 294.901C30.4154 294.538 30.7919 294.301 31.2629 294.221C31.8592 294.107 32.5222 294.26 33.0194 294.49C33.0314 294.433 33.0397 294.375 33.0434 294.32C33.1514 293.592 33.2714 292.772 34.0717 292.55C34.6027 292.407 35.0962 292.554 35.4637 292.974C36.3037 293.946 36.3442 296.158 35.9444 297.261L36.6629 298.228C39.0517 301.444 41.5154 304.763 44.3654 307.385C44.7239 304.742 43.9987 300.83 42.6449 298.27C42.4327 298.213 42.1357 298.159 41.8027 298.099C40.3514 297.831 38.1524 297.426 38.1352 295.751C38.1337 295.208 38.3984 294.793 38.8889 294.586C39.6667 294.25 40.9237 294.495 41.7337 294.955C41.8199 294.286 41.9504 293.485 42.8692 293.306C43.4632 293.191 43.9454 293.414 44.2537 293.915C44.8552 294.91 44.6422 296.935 44.0587 297.871C45.7792 301.395 46.2952 304.55 45.8174 308.677C47.1697 309.985 48.6569 311.15 50.0962 312.282C51.5887 313.45 53.1179 314.653 54.5287 316.026C54.0907 315.044 53.6482 314.061 53.2049 313.075C50.5042 307.086 47.7104 300.895 45.5797 293.711C45.5279 293.533 45.4784 293.331 45.4289 293.129C45.3502 292.803 45.2632 292.43 45.1769 292.29C44.9759 291.962 44.6047 291.823 44.1397 291.648C43.8067 291.523 43.4287 291.384 43.0499 291.146C40.7047 289.682 38.5934 287.175 36.7792 283.688C33.9449 283.38 32.3729 282.044 32.2244 279.819L32.2177 279.713L32.2724 279.625C33.1042 278.365 34.5892 278.818 35.5694 279.266C35.5117 278.284 36.0494 277.581 36.7252 277.355C37.4407 277.115 38.4164 277.392 38.8769 278.572C39.5452 280.277 38.7847 282.161 38.1569 283.122C39.5917 285.669 41.5972 288.678 44.5987 290.2C43.6424 285.519 43.4204 281.379 43.9192 277.57C43.7474 277.182 43.4174 276.851 43.0672 276.5C42.5257 275.951 41.9054 275.333 41.9234 274.404C41.9354 273.689 42.3652 273.225 43.0094 273.147C43.8007 273.071 44.8087 273.626 45.2347 274.52C45.6719 274.22 46.3492 273.906 46.9042 274.346L46.9874 274.447C47.7712 275.945 46.5877 276.883 45.7274 277.565C45.5834 277.674 45.4477 277.782 45.3232 277.89C44.3264 285.456 47.3557 295.798 50.3234 302.53C50.6024 302.33 50.8184 302.005 51.0457 301.663C51.1672 301.482 51.2879 301.3 51.4222 301.128C53.0714 299.002 54.1312 297.074 54.7552 295.06C55.7932 291.697 56.1599 287.803 55.7377 284.645L55.6807 284.177C55.5952 283.472 55.5157 282.806 55.2554 282.295C55.0222 281.825 54.5482 281.438 54.0472 281.026C53.1847 280.32 52.2059 279.517 52.1512 278.046L52.1467 277.89L52.2719 277.795C52.4047 277.685 52.4924 277.553 52.5367 277.39L52.5847 277.219L52.7557 277.17C54.6952 276.633 55.4737 277.876 56.1307 279.124C56.2477 279.057 56.3857 278.952 56.5139 278.856C57.0142 278.482 57.8534 277.852 58.6552 278.669L58.7227 278.736L58.7384 278.829C59.0489 280.475 58.0019 281.269 57.0772 281.971C56.9684 282.053 56.8619 282.131 56.7592 282.215C56.9587 282.931 57.1117 283.685 57.2212 284.514C58.1819 291.757 55.9214 298.902 51.0164 304.159C52.0462 306.817 53.2117 309.338 54.3427 311.773C55.1392 313.491 55.9582 315.262 56.7314 317.083C57.2647 315.757 57.8092 314.697 58.4564 313.704C59.1704 312.611 60.0157 311.522 61.0349 310.379C59.2319 307.815 58.5307 302.752 59.0984 299.691C59.0369 299.615 58.9687 299.526 58.8967 299.44C57.9982 298.317 56.4914 296.433 57.6119 294.882C58.0304 294.301 58.6739 294.067 59.3377 294.251C60.1882 294.485 60.8572 295.312 61.0679 296.325C61.6214 296.13 62.2919 296.035 62.8514 296.245C63.2189 296.384 63.4912 296.642 63.6359 296.994C63.8834 297.599 63.7897 298.263 63.3742 298.865C62.8042 299.689 61.7182 300.263 60.6359 300.336C60.1027 302.816 60.7169 306.776 61.9957 309.199C65.7697 305.837 67.7984 302.652 68.5507 298.932C68.4382 298.7 68.2124 298.476 67.9724 298.239C67.6342 297.907 67.2539 297.528 67.0589 297.01C66.7102 296.077 66.7807 295.246 67.2517 294.731C67.5899 294.361 68.0842 294.219 68.5792 294.343C69.1379 294.489 69.5917 294.955 69.8407 295.621C69.8984 295.571 69.9592 295.509 70.0064 295.465C70.3672 295.117 70.9094 294.586 71.7689 294.87L71.8672 294.9L71.9279 294.984C72.3584 295.581 72.4957 296.186 72.3337 296.791C72.0314 297.935 70.7219 298.719 70.0229 299.06C69.4597 302.968 67.3282 305.907 64.3109 309.101L63.6509 309.793C61.3499 312.203 58.4827 315.202 58.0072 318.394C57.7822 319.864 58.7084 321.855 59.5229 323.609C59.8364 324.287 60.1372 324.929 60.3719 325.536C61.0154 327.187 61.5479 328.789 62.1172 330.487L62.4262 331.408C64.3267 330.913 65.5312 329.993 66.8024 329.015C66.9892 328.872 67.1774 328.729 67.3657 328.583C66.5684 325.3 66.8789 321.88 68.3144 318.153C67.5419 317.49 66.9494 315.93 67.1047 314.846C67.1992 314.185 67.5569 313.738 68.1149 313.586C68.4824 313.485 68.8582 313.534 69.1994 313.732C69.6472 313.993 70.0154 314.504 70.2337 315.159C70.2434 315.156 70.2502 315.15 70.2599 315.147C70.7384 314.909 71.6332 314.466 72.1837 315.109L72.2287 315.184C72.5167 315.816 72.5182 316.437 72.2332 316.978C71.8499 317.702 70.9784 318.25 69.8249 318.5C68.6669 321.3 68.2094 324.515 68.5499 327.418C69.1237 327.115 69.5459 326.56 69.9929 325.981C70.1632 325.757 70.3357 325.536 70.5142 325.329C72.9982 322.454 74.7127 319.585 75.6104 316.804C75.5647 316.64 75.5107 316.463 75.4544 316.279C75.0344 314.92 74.5147 313.228 75.0397 312.268C75.2062 311.955 75.4694 311.745 75.8234 311.644C76.2914 311.51 76.7527 311.618 77.1277 311.947C77.6849 312.437 78.0052 313.365 77.9729 314.313C78.7972 314.044 79.9882 313.729 80.4592 314.572C80.6782 314.965 80.6924 315.38 80.4982 315.775C79.9792 316.845 78.0839 317.556 76.8247 317.803C76.1324 319.723 75.1597 321.665 73.8569 323.727C75.7229 324.217 78.7214 324.081 80.8057 322.976C80.8357 322.818 80.8657 322.657 80.8972 322.49C81.1724 320.963 81.5084 319.073 83.5709 318.945L83.7307 318.938L83.8349 319.056C84.5924 319.95 84.1162 321.012 83.7682 321.791C83.7554 321.819 83.7434 321.847 83.7277 321.877C84.5932 321.813 85.3304 321.97 85.7564 322.318C86.0557 322.559 86.2154 322.893 86.2252 323.282C86.2364 323.729 86.0422 324.088 85.6552 324.317C84.6764 324.915 82.6139 324.522 81.7372 324.148C79.2059 325.836 75.1282 325.784 72.9764 325.078C72.5069 325.43 72.1087 325.901 71.7202 326.355C71.5612 326.545 71.3999 326.733 71.2357 326.913L71.1719 326.987C70.5817 327.627 69.9764 328.291 69.2872 328.911C67.7047 330.338 65.9152 331.948 62.9294 332.898C65.0737 340.036 66.1799 347.428 66.1297 354.293C66.1289 354.445 66.1334 354.609 66.1394 354.785C66.1694 355.764 66.2054 356.98 65.3572 357.484L65.0849 357.646L64.9199 357.377C64.3784 356.475 64.4294 355.363 64.4722 354.379C64.4834 354.129 64.4954 353.881 64.4977 353.64C64.5554 346.073 63.0074 337.297 60.3524 330.117C55.5862 330.02 51.6772 328.044 48.0794 323.912L48.0224 323.917C46.9979 324.047 46.0267 323.862 45.3959 323.41C44.9752 323.107 44.7149 322.692 44.6437 322.215L44.6377 322.171L44.6444 322.13C44.6924 321.761 44.9009 321.481 45.2452 321.323C45.7649 321.084 46.4977 321.17 47.0204 321.327C47.0204 320.696 47.1209 319.847 47.8724 319.669C48.2864 319.568 48.6817 319.7 48.9697 320.036C49.5599 320.721 49.6447 322.171 49.3492 323.095C51.9749 325.834 55.0582 328.357 59.7052 328.593C59.6189 328.335 59.5357 328.078 59.4524 327.819C58.7444 325.633 58.0154 323.37 57.0764 321.604C55.2734 318.207 52.3619 315.985 49.5464 313.837C48.5804 313.1 47.6647 312.401 46.7917 311.658C40.2629 313.265 34.9499 309.669 32.8462 307.922C31.6739 308.097 29.4329 308.206 28.4047 307.449C28.0754 307.208 27.8872 306.902 27.8399 306.535C27.7882 306.141 27.9224 305.798 28.2284 305.533Z" fill="#68A16C" fill-opacity="0.65"/>
<path fill-rule="evenodd" clip-rule="evenodd" d="M162.337 325.438C163.964 328.397 166.51 325.87 168.157 325.143C169.585 324.517 172.775 322.932 175.044 324.229C178.822 326.385 174.349 332.547 171.972 333.601C168.649 335.075 162.724 333.451 162.44 336.523C162.21 339.044 167.004 338.714 169.379 337.716C171.504 336.823 173.395 334.072 176.143 334.975C180.525 336.413 177.883 343.185 174.98 345.137C171.445 347.514 165.311 346.686 159.651 345.969C155.554 345.449 151.075 344.398 148.299 346.631C150.196 354.05 161.974 351.365 166.567 349.546C168.907 348.616 171.133 347.18 173.467 347.436C176.764 353.999 169.383 359.256 164.197 359.696C159.268 360.113 153.912 356.505 148.822 358.423C149.201 366.477 161.959 359.9 165.063 365.597C161.9 379.023 136.798 375.219 133.95 363.261C133.015 365.398 132.156 368.028 131.753 370.467C131.324 373.058 132.395 376.029 130.339 376.976C127.864 376.266 128.611 372.827 129.059 370.371C129.61 367.329 130.831 363.874 131.697 361.483C117.61 364.212 109.882 347.421 112.894 334.22C113.598 331.126 116.004 324.216 118.94 325.018C121.303 325.664 120.807 330.654 121.414 332.829C122.277 335.906 123.481 337.704 125.745 339.328C126.363 336.939 124.459 334.539 123.839 331.66C123.202 328.705 122.745 324.461 123.232 321.342C123.847 317.414 126.317 311.978 130.401 313.624C133.285 314.785 132.312 320.445 132.568 323.75C133.018 329.514 134.241 333.737 139.252 336.229C141.624 333.234 138.574 330.054 137.431 327.093C136.393 324.411 135.09 320.5 135.115 317.528C135.142 313.567 138.632 305.294 142.66 307.216C144.327 308.012 143.688 311.044 143.379 313.678C142.797 318.595 142.564 322.173 146.247 324.583C146.734 319.904 144.041 316.672 145.455 311.524C146.637 307.215 150.275 303.969 154.888 304.39C159.125 304.777 163.415 308.38 168.812 308.876C170.881 309.062 172.282 308.185 174.288 307.594C175.985 307.825 175.973 310.59 176.085 312.243C176.319 315.694 176.045 319.306 173.443 321.127C169.618 323.804 163.453 320.875 162.337 325.438ZM157.171 317.531C160.159 318.843 163.889 312.78 161.925 309.789C157.41 307.679 154.218 316.233 157.171 317.531ZM155.14 321.791C156.673 322.352 157.345 321.466 157.712 320.063C156.789 318.066 154.512 319.955 155.14 321.791ZM148.109 330.14C149.724 330.109 150.262 327.813 149.423 326.294C145.573 324.823 145.361 330.194 148.109 330.14ZM155.293 334.985C156.004 336.366 158.849 337.09 159.061 334.459C158.22 333.206 155.431 332.714 155.293 334.985ZM120.581 338.293C119.941 336.888 119.263 334.59 117.286 334.754C115.398 338.582 117.976 342.995 121.595 343.634C122.338 341.758 121.231 339.724 120.581 338.293ZM129.047 342.866C129.641 344.105 131.371 345.081 132.651 344.094C134.581 340.051 129.377 337.626 129.047 342.866ZM133.254 347.537C133.678 347.574 133.853 347.199 134.252 347.194C134.529 346.089 134.11 345.382 132.997 345.08C132.215 345.65 132.05 347.384 133.254 347.537ZM163.237 356.458C164.638 358.346 167.833 357.543 168.351 355.388C167.829 353.024 163.461 353.492 163.237 356.458ZM123.922 352.007C121.015 350.026 120.199 345.546 116.464 345.9C114.279 350.715 125.26 360.296 128.498 355.279C127.865 352.88 125.966 353.4 123.922 352.007ZM139.384 358.685C138.21 360.529 141.409 361.628 141.785 359.9C141.716 358.714 140.483 358.074 139.384 358.685ZM144.813 362.174C143.038 361.434 141.523 361.609 141.111 363.609C140.71 365.558 144.926 370.274 147.362 369.705C148.916 367.717 146.817 363.007 144.813 362.174Z" fill="#68A16C" fill-opacity="0.65"/>
<path d="M253.755 287.162C253.163 285.869 252.074 285.06 251.109 285.192C250.592 285.268 249.689 285.669 249.41 287.539C249.084 289.755 249.62 292.065 250.059 293.814C249.707 293.529 249.35 293.203 248.977 292.868C248.199 292.163 247.394 291.436 246.477 290.924C245.557 289.331 243.159 285.781 239.624 284.774C238.598 284.484 236.918 284.454 236.45 285.551C236.445 285.567 236.439 285.583 236.432 285.6C235.688 287.532 238.253 289.132 239.5 289.909C241.145 290.932 242.789 291.703 244.254 292.132C244.484 292.202 244.762 292.232 245.013 292.259C245.168 292.275 245.401 292.303 245.464 292.328C246.026 292.551 246.743 293.183 247.376 293.742C247.547 293.889 247.712 294.035 247.868 294.17C248.276 294.518 248.642 294.878 248.996 295.224C249.03 295.258 249.065 295.289 249.098 295.324C246.955 294.802 243.903 294.714 242.236 295.423C241.206 295.859 240.902 296.5 240.83 296.964C240.749 297.47 240.871 297.947 241.192 298.374C242.183 299.701 244.906 300.214 246.032 300.374C248.666 300.754 251.06 300.562 253.344 299.804C255.658 302.153 257.507 304.956 259.19 307.711C258.766 307.523 258.316 307.299 257.855 307.07C255.895 306.096 253.46 304.883 250.706 305.235C249.175 305.43 248.762 306.293 248.657 306.792C248.423 307.888 249.155 309.227 250.403 309.983C253.01 311.562 258.163 312.129 261.089 311.206C262.55 313.655 263.624 316.508 264.649 319.298C264.457 319.186 264.263 319.067 264.06 318.946C261.926 317.66 259.272 316.062 256.115 315.943C255.719 315.931 253.736 315.914 253.273 317.006C253.265 317.023 253.261 317.035 253.254 317.053C252.4 319.313 255.656 321.128 257.094 321.805C260.11 323.221 263.24 323.695 265.758 323.127C266.748 326.049 267.259 329.38 267.622 332.638C266.07 330.882 263.603 328.26 260.531 328.475C259.883 328.521 258.838 328.989 258.591 329.648C257.732 332.011 260.963 334.009 262.391 334.757C263.409 335.289 264.323 335.694 265.209 336.085C266.144 336.497 267.029 336.888 267.928 337.388C267.97 338.754 267.921 340.724 267.795 342.726C267.79 342.85 267.763 342.987 267.737 343.125C267.649 343.631 267.483 344.569 268.376 344.795L268.514 344.806C269.555 344.721 269.541 343.593 269.531 342.921C269.528 342.757 269.522 342.602 269.533 342.47C269.644 341.023 269.754 339.028 269.642 337.529C271.058 336.556 274.334 334.204 275.718 330.95C275.936 330.437 276.107 329.902 276.216 329.347C276.513 327.837 276.548 325.175 274.779 324.794C272.35 324.268 271.157 327.362 270.649 328.681C270.141 330.006 269.751 331.216 269.401 332.436C269.366 332.163 269.326 331.889 269.29 331.613C268.932 329.028 268.529 326.102 267.872 323.619C267.823 323.43 267.734 323.214 267.647 323.006C267.573 322.837 267.467 322.581 267.464 322.513C267.506 322.235 267.783 321.975 268.1 321.68C268.27 321.522 268.443 321.36 268.605 321.18C270.774 318.736 271.795 315.929 271.644 312.838C271.556 310.929 270.902 309.88 269.7 309.721C267.53 309.431 267.062 311.956 266.783 313.464L266.705 313.88C266.414 315.34 266.212 316.654 266.075 317.962C266.001 317.775 265.928 317.585 265.853 317.396C264.895 314.935 263.903 312.393 262.579 310.168C264.628 307.535 265.656 302.198 263.94 298.928C263.132 297.398 262.13 296.615 261.035 296.664C260.379 296.696 259.853 296.963 259.473 297.461C258.356 298.915 258.795 302.108 259.283 304.461C257.424 301.816 255.218 299.04 253.021 296.595C254.365 294.287 254.975 289.819 253.755 287.162Z" fill="#68A16C" fill-opacity="0.65"/>
<path fill-rule="evenodd" clip-rule="evenodd" d="M217.303 343.612C214.331 339.821 209.824 345.108 205.121 344.198C201.925 343.579 200.139 340.325 198.895 337.011C198.3 335.424 197.117 332.851 198.603 331.933C200.721 331.651 202.399 331.889 204.25 330.857C209.07 328.156 211.544 323.019 215.33 320.9C219.453 318.596 224.216 320.113 227.145 323.639C230.644 327.854 229.501 331.982 231.939 336.143C234.352 332.37 232.618 329.131 229.993 324.788C228.591 322.462 226.71 319.899 227.926 318.467C230.868 315.002 237.625 321.268 239.329 324.95C240.612 327.708 241.053 331.897 241.222 334.826C241.41 338.061 239.914 342.29 243.395 344.098C247.01 339.698 246.361 335.254 244.339 329.693C243.178 326.507 239.874 321.634 242.071 319.356C245.181 316.127 249.785 320.171 252.023 323.578C253.798 326.284 255.169 330.43 255.829 333.449C256.47 336.39 255.712 339.418 257.299 341.387C258.722 338.936 259.084 336.761 258.584 333.535C258.228 331.255 255.652 326.808 257.581 325.226C259.979 323.262 265.15 328.706 267.115 331.297C275.517 342.355 275.424 361.213 261.136 364.511C262.958 366.38 265.558 369.094 267.361 371.702C268.82 373.807 270.973 376.702 268.966 378.391C266.647 378.359 266.389 375.147 264.892 372.909C263.482 370.802 261.566 368.708 259.789 367.103C262.202 379.432 240.412 393.385 231.775 382.18C232.255 375.584 246.934 376.424 243.876 368.758C238.318 369.082 234.854 374.666 230.083 376.321C225.062 378.062 215.953 376.221 216.247 368.736C218.315 367.528 220.999 367.945 223.575 367.842C228.627 367.633 240.742 365.252 239.368 357.55C235.835 356.618 232.105 359.455 228.506 361.639C223.533 364.654 218.167 367.968 213.862 367.219C210.331 366.602 204.999 361.385 208.473 358.228C210.655 356.247 213.582 358.027 215.94 357.977C218.576 357.926 223.186 356.244 221.903 353.989C220.338 351.243 215.503 355.214 211.78 355.219C209.117 355.222 202.338 351.333 204.946 347.755C206.512 345.605 210.156 345.76 211.753 345.752C213.598 345.745 217.04 347.044 217.303 343.612ZM218.77 334.099C220.973 331.665 214.374 325.015 211.058 328.852C210.494 332.455 216.541 336.561 218.77 334.099ZM222.468 337.227C222.277 335.256 219.353 334.44 219.337 336.684C220.276 337.84 221.277 338.386 222.468 337.227ZM232.561 342.097C235.144 341.007 232.672 336.088 229.705 339.056C229.567 340.82 231.043 342.738 232.561 342.097ZM227.914 349.591C226.824 347.532 224.432 349.146 224.181 350.662C225.492 353.029 227.838 351.173 227.914 349.591ZM261.676 338.283C261.675 339.886 261.505 342.242 262.995 343.683C266.097 341.586 266.631 336.402 263.249 333.616C261.337 334.284 261.676 336.707 261.676 338.283ZM255.721 346.056C253.195 341.309 249.368 345.725 252.881 348.695C254.492 349.085 255.691 347.456 255.721 346.056ZM253.777 352.156C254.834 351.512 253.948 349.965 252.976 349.758C252.067 350.5 251.976 351.334 252.702 352.25C253.076 352.088 253.399 352.366 253.777 352.156ZM229.606 372.903C228.14 370.231 223.87 371.604 224.386 374.025C225.781 375.82 229.1 375.245 229.606 372.903ZM264.372 352.453C263.056 354.598 261.064 354.903 261.491 357.401C266.636 360.735 272.814 347.25 268.737 343.667C265.105 344.887 266.243 349.401 264.372 352.453ZM252.785 365.089C251.502 364.977 250.625 366.083 251.062 367.218C252.144 368.672 254.662 366.321 252.785 365.089ZM249.203 370.592C247.687 372.2 247.725 377.461 250.017 378.67C252.529 378.19 254.461 372.047 253.262 370.396C252.031 368.701 250.544 369.167 249.203 370.592Z" fill="#68A16C" fill-opacity="0.65"/>
<path d="M134.153 75.7011C155.705 96.0624 156.495 129.973 135.915 151.295C115.335 172.617 81.0579 173.4 59.5059 153.039C37.9547 132.679 37.1634 98.7669 57.7442 77.4448C78.3234 56.1235 112.601 55.3414 134.153 75.7011ZM71.3177 140.803C86.0484 154.719 109.478 154.184 123.545 139.61C137.612 125.034 137.072 101.856 122.342 87.9382C107.609 74.0212 84.1802 74.557 70.1132 89.1313C56.0469 103.705 56.5862 126.885 71.3177 140.803Z" fill="#FCCACA"/>
<path d="M170.267 38.2836C173.684 41.512 173.809 46.867 170.547 50.2468L134.432 87.6637C131.169 91.0435 125.756 91.1659 122.341 87.9382C118.925 84.7127 118.799 79.3562 122.061 75.9764L158.175 38.5596C161.438 35.1798 166.853 35.0588 170.267 38.2836Z" fill="#FCCACA"/>
<path d="M142.43 43.3938L167.7 67.2661C171.115 70.4938 171.242 75.8488 167.979 79.2272C164.717 82.6085 159.303 82.7309 155.889 79.5047L130.618 55.6316C127.202 52.4039 127.077 47.0496 130.339 43.6698C133.602 40.2907 139.015 40.1668 142.43 43.3938Z" fill="#FCCACA"/>
<path d="M249.037 144.587C227.125 124.606 225.731 90.7133 245.926 69.0357C266.125 47.3575 300.382 45.9781 322.294 65.9594C344.206 85.9415 345.601 119.832 325.404 141.51C305.206 163.187 270.949 164.568 249.037 144.587ZM310.702 78.402C295.725 64.744 272.308 65.6863 258.504 80.5041C244.699 95.3226 245.653 118.489 260.629 132.146C275.607 145.804 299.022 144.86 312.826 130.041C326.632 115.225 325.678 92.0585 310.702 78.402Z" fill="#B8D6F2"/>
<path d="M215.483 180.604C212.009 177.437 211.79 172.084 214.991 168.648L246.201 135.151C249.402 131.715 254.811 131.497 258.284 134.664C261.757 137.831 261.978 143.184 258.776 146.62L227.567 180.117C224.366 183.554 218.955 183.771 215.483 180.604Z" fill="#B8D6F2"/>
<path d="M213.098 183.164C211.746 181.933 210.838 180.225 210.652 178.286L207.958 150.291C207.556 146.104 210.659 142.386 214.892 141.988C219.122 141.592 222.881 144.66 223.283 148.847L225.293 169.731L245.166 169.121C249.416 168.991 252.966 172.293 253.099 176.494C253.23 180.698 249.894 184.21 245.645 184.343L218.554 185.177C216.463 185.24 214.53 184.471 213.098 183.164Z" fill="#B8D6F2"/>
<path d="M210.755 110.623H170.386C166.197 110.623 162.803 107.264 162.803 103.121C162.803 98.9777 166.197 95.6194 170.386 95.6194H210.755C214.943 95.6194 218.337 98.9769 218.337 103.121C218.337 107.264 214.943 110.623 210.755 110.623Z" fill="#D1DBE5"/>
<path d="M210.755 133.122H170.386C166.197 133.122 162.803 129.764 162.803 125.621C162.803 121.477 166.197 118.119 170.386 118.119H210.755C214.943 118.119 218.337 121.477 218.337 125.621C218.337 129.763 214.943 133.122 210.755 133.122Z" fill="#D1DBE5"/>
<path fill-rule="evenodd" clip-rule="evenodd" d="M115.626 219.033C115.638 219.498 114.972 219.631 114.567 219.732C110.851 220.654 107.501 218.749 105.681 216.592C105.2 216.019 104.412 214.971 104.624 214.498C104.634 214.452 104.816 214.308 104.906 214.359C105.48 214.684 105.822 215.395 106.317 215.825C108.224 217.48 111.325 218.727 114.78 218.895C114.984 218.904 115.419 218.615 115.626 219.033Z" fill="#21972B"/>
<path fill-rule="evenodd" clip-rule="evenodd" d="M93.6216 208.637C90.3936 208.227 86.3256 206.96 83.8191 205.358C82.8456 204.737 81.0733 203.622 81.2803 202.079C81.4768 200.609 82.6453 201.602 83.4658 202.079C86.5183 203.848 89.2746 205.809 92.2821 207.591C92.7636 207.877 93.4138 208.066 93.6216 208.637Z" fill="black"/>
<path fill-rule="evenodd" clip-rule="evenodd" d="M122.397 155.75C124.899 159.014 127.209 162.048 127.473 167.403C127.514 168.224 127.509 169.142 127.473 170.055C127.443 170.872 127.18 171.799 127.332 172.637C127.47 173.388 128.577 174.429 129.096 175.148C131.951 179.102 135.3 183.556 134.596 190.846C134.478 192.083 134.251 193.359 134.032 194.543C133.818 195.712 133.569 196.861 132.975 197.755C131.726 197.602 130.925 196.559 130.083 195.8C127.551 193.52 125.509 190.805 123.312 188.056C121.234 185.455 118.9 182.854 116.683 180.172C115.939 179.272 115.095 178.312 114.709 177.382C113.96 175.576 114.066 172.516 114.145 170.195C114.244 167.24 114.549 164.029 115.695 162.171C116.451 160.95 117.673 159.81 118.728 158.821C119.918 157.707 121.343 156.561 122.397 155.75Z" fill="#DD3924"/>
<path fill-rule="evenodd" clip-rule="evenodd" d="M116.261 165.867C116.103 169.805 116.238 174.032 116.049 177.938C114.47 178.003 113.025 177.366 111.747 176.822C107.94 175.203 104.655 172.942 101.521 170.613C101.568 168.248 101.451 165.661 101.451 163.007C101.451 162.18 101.54 161.232 101.379 160.495C101.248 159.891 100.551 159.307 100.321 158.89C98.1933 155.036 97.0601 148.416 99.1226 143.47C100.749 139.573 104.682 135.913 109.914 135.448C112.625 135.206 115.199 136.09 117.107 137.191C120.03 138.878 121.724 141.151 123.312 144.028C124.332 145.875 124.991 147.896 126.415 149.61C126.984 150.294 128.279 151.179 128.32 152.051C128.373 153.165 127.024 153.771 126.77 154.634C126.568 155.314 126.805 156.128 126.84 156.866C126.954 159.215 126.724 161.422 125.782 163.006C124.138 165.769 120.678 166.141 116.261 165.867Z" fill="#FFA69F"/>
<path fill-rule="evenodd" clip-rule="evenodd" d="M122.791 145.839C123.024 146.432 122.023 146.638 121.563 146.851C120.522 147.332 119.67 147.873 118.695 148.473C118.292 148.72 117.725 149.207 117.261 148.879C117.06 148.39 117.6 147.862 117.978 147.46C118.693 146.702 119.552 145.922 120.846 145.636C121.41 145.511 122.533 145.178 122.791 145.839Z" fill="#DD3924"/>
<path fill-rule="evenodd" clip-rule="evenodd" d="M123.124 149.491C123.245 150.314 123.002 151.032 122.581 151.093C122.159 151.154 121.718 150.535 121.597 149.712C121.476 148.887 121.719 148.17 122.14 148.109C122.561 148.048 123.001 148.666 123.124 149.491Z" fill="#484B4C"/>
<path d="M123.857 157.98C123.737 157.6 123.329 157.384 122.944 157.498C122.555 157.613 122.333 158.019 122.451 158.404C122.485 158.514 123.251 160.909 126.472 161.329C126.596 160.874 126.687 160.394 126.75 159.892C124.439 159.618 123.885 158.067 123.857 157.98Z" fill="#ED8380"/>
<path fill-rule="evenodd" clip-rule="evenodd" d="M116.261 165.867V170.573C109.969 167.552 109.283 161.66 109.283 161.66C109.283 161.66 112.369 165.099 116.261 165.867Z" fill="#ED8380"/>
<path fill-rule="evenodd" clip-rule="evenodd" d="M118.869 138.307C119.714 144.216 116.468 147.337 112.804 149.68C112.014 150.186 110.955 150.659 109.843 151.145C109.45 151.317 109.009 151.639 108.854 151.634C108.35 151.616 108.321 151.14 107.938 150.796C107.057 150.006 105.6 150.311 105.187 151.355C104.704 152.577 105.325 154.461 105.822 155.402C106.016 155.771 106.319 156.015 106.315 156.308C106.311 156.831 105.367 157.826 105.046 158.193C103.986 159.4 103.127 160.061 101.45 160.844C101.444 162.508 101.517 164.228 101.59 165.937C101.662 167.633 101.52 170.613 101.52 170.613C97.1884 189.788 93.2089 209.539 88.8949 228.871C87.6416 234.494 86.2774 240.076 85.0174 245.687C84.8464 246.443 84.8524 247.292 84.3116 247.919C79.2919 247.043 75.4504 244.43 72.6049 241.292C69.7946 238.193 67.2784 234.092 67.6684 228.174C58.9781 224.856 52.7711 218.132 50.7416 208.081C49.5836 202.343 50.5639 196.545 52.5754 192.451C54.6214 188.289 57.7624 185.191 61.8851 183.241C60.4699 182.326 59.1791 181.286 58.0766 180.032C55.9901 177.656 53.7626 174.761 53.4926 170.613C53.3629 168.623 53.8121 166.566 54.6206 164.822C56.1019 161.628 58.8664 159.753 62.4491 158.682C66.0829 157.595 70.6279 157.672 75.0739 158.263C79.7951 158.892 83.9081 158.646 86.5684 156.449C87.8951 155.355 88.9264 154.008 89.6726 152.543C90.4144 151.081 90.8081 149.382 91.5761 147.517C92.8684 144.378 94.6894 141.438 97.0766 139.076C99.3469 136.829 102.494 134.834 106.527 134.541C112.122 134.134 115.679 136.409 118.869 138.307Z" fill="#DD3924"/>
<path fill-rule="evenodd" clip-rule="evenodd" d="M205.09 237.151C204.564 236.214 204.153 235.214 203.536 234.417C202.932 233.64 202.02 232.953 201.173 232.274C200.293 231.566 199.383 230.875 198.442 230.459C198.153 230.332 197.844 230.229 197.525 230.141C196.873 229.806 196.09 229.521 195.518 229.218C195.151 229.024 189.726 228.111 189.218 228.085C185.316 226.688 158.687 219.323 155.932 217.727C149.049 213.747 143.279 208.662 138.544 202.885C133.693 196.968 129.84 190.359 124.566 184.859C124.566 184.786 124.478 184.8 124.492 184.925C125.465 188.51 126.409 192.539 127.147 196.515C127.774 199.902 128.488 203.48 128.94 207.014C129.008 207.549 128.932 208.195 129.069 208.627C129.172 208.957 129.664 209.354 130.069 209.796C131.875 211.772 133.502 213.647 135.288 215.437C136.047 216.197 136.846 216.882 137.579 217.577C142.231 221.986 146.821 225.972 152.674 228.952C157.672 231.499 176.895 234.419 182.319 236.429C183.428 236.841 184.631 237.14 185.647 237.643C186.208 237.922 186.772 238.348 187.357 238.709C188.542 239.441 189.653 240.193 190.92 240.843C191.504 241.143 192.19 241.632 192.938 241.433C193.136 241.042 192.748 240.736 192.565 240.436C192.121 239.712 191.933 238.917 192.274 237.838C193.936 238.247 195.304 238.246 196.786 237.994C197.237 237.917 197.689 237.791 198.14 237.666C198.349 237.916 198.604 238.129 198.943 238.214C199.132 237.951 199.252 237.673 199.329 237.383C199.87 237.291 200.399 237.273 200.911 237.432C201.405 237.586 201.72 238.09 202.195 238.543C202.6 238.931 203.074 239.377 203.48 239.657C204.166 240.129 205.008 240.625 206.134 240.208C206.431 238.998 205.591 238.041 205.09 237.151Z" fill="#FFA69F"/>
<path fill-rule="evenodd" clip-rule="evenodd" d="M128.384 206.899C130.56 207.767 137.568 205.11 136.771 200.641C136.771 200.641 129.017 206.346 128.384 206.899Z" fill="#ED8380"/>
<path fill-rule="evenodd" clip-rule="evenodd" d="M116.064 177.552C118.761 178.363 123.175 182.136 124.794 183.45C128.384 186.362 131.744 189.735 134.949 193.149C136.549 194.852 138.234 196.493 139.605 198.381C135.773 201.347 132.084 204.604 128.391 207.8C127.89 208.232 127.448 208.771 126.84 209.056C125.739 202.99 124.243 197.478 122.325 192.31C120.379 187.062 116.064 177.552 116.064 177.552Z" fill="#F4F4F4"/>
<path d="M130.149 194.294C130.038 194.08 127.412 189.217 126.954 188.577C124.041 184.498 120.968 180.731 117.112 178.044C117.008 177.97 116.901 177.898 116.797 177.826C116.542 177.715 116.296 177.623 116.064 177.552C116.708 178.071 117.336 178.596 117.953 179.124C121.521 182.176 124.204 186.224 126.697 190.566C127.089 191.248 129.219 196.343 129.308 196.567C130.229 198.922 131.322 201.728 132.004 204.671C132.646 204.116 133.288 203.564 133.934 203.015C132.96 199.81 131.424 196.789 130.149 194.294Z" fill="#EAEAEA"/>
<path d="M132.622 208.707C132.344 204.348 130.645 199.985 129.308 196.567C129.219 196.343 127.089 191.248 126.697 190.567C124.203 186.224 121.521 182.176 117.953 179.124C117.336 178.597 116.708 178.071 116.064 177.553C116.058 177.679 116.055 177.811 116.049 177.938C114.471 178.002 113.026 177.366 111.747 176.821C107.941 175.202 104.656 172.941 101.522 170.612C101.522 170.599 101.522 170.587 101.522 170.575C100.88 170.519 93.7106 171.737 90.2253 174.622C89.6553 175.093 90.1136 175.048 89.7438 175.775C88.6106 178.005 87.7316 180.621 87.0648 182.963C86.0396 186.556 85.2701 189.807 84.8778 193.916C84.1338 201.722 84.0243 211.485 85.4418 218.477C86.1851 222.14 86.9876 226.183 86.7821 230.268C86.5901 234.066 85.0818 237.395 83.8203 240.455C81.2411 246.708 78.4046 252.884 77.4033 260.41C90.0686 260.717 102.819 260.941 115.486 261.246C116.808 254.012 118.061 246.757 119.929 239.757C120.803 236.485 121.959 233.188 122.961 229.78C123.682 227.333 124.536 224.751 125.429 222.523C125.757 221.708 125.95 220.779 126.346 220.151C126.621 219.717 127.209 219.365 127.616 219.034C130.494 216.694 132.949 213.843 132.622 208.707Z" fill="white"/>
<path fill-rule="evenodd" clip-rule="evenodd" d="M105.541 214.603C107.847 218.184 115.032 217.766 117.757 214.843C117.757 214.843 111.341 217.047 105.541 214.603Z" fill="#F4F4F4"/>
<path fill-rule="evenodd" clip-rule="evenodd" d="M133.996 371C126.145 371 114.488 371 106.636 371C106.744 365.934 109.609 333.048 109.984 328.227C110.191 325.578 110.349 323.127 109.984 320.762C109.654 318.633 108.953 316.613 108.22 314.692C106.792 310.95 105.069 307.314 103.566 303.598C102.034 299.808 100.662 295.983 99.3336 292.085C94.2448 309.425 81.6643 351.235 77.2626 371C69.9756 371 60.0763 371 52.7886 371C54.9253 363.933 66.5068 328.781 68.9376 321.947C69.3148 320.888 69.5286 319.804 69.7138 318.599C70.4653 313.727 70.4173 308.32 70.1368 303.179C69.8578 298.044 69.1933 293.021 68.7973 288.178C68.3631 282.873 68.5866 277.513 69.4311 272.967C70.2846 268.38 71.5986 264.122 73.1691 260.338C76.4653 252.4 81.6013 246.612 84.5241 238.92C96.6703 239.53 108.559 240.398 119.221 242.478C119.221 242.524 119.221 242.571 119.221 242.617C119.716 251.233 121.498 259.117 123.241 266.967C124.978 274.787 126.613 282.584 127.684 290.97C129.817 307.638 133.397 352.799 133.996 371Z" fill="#484B4C"/>
<path fill-rule="evenodd" clip-rule="evenodd" d="M110.408 253.919C111.066 253.841 110.981 255.48 111.042 256.363C111.231 259.135 110.852 262.058 110.549 264.525C110.347 266.144 110.017 267.98 109.632 269.548C109.267 271.031 108.937 273.04 108.08 273.874C107.493 274.446 106.356 274.723 105.542 274.851C105.545 273.972 105.835 273.127 106.035 272.27C107.426 266.305 108.811 260.168 110.195 254.128C110.234 254.028 110.305 253.959 110.408 253.919Z" fill="#484B4C"/>
<path fill-rule="evenodd" clip-rule="evenodd" d="M81.1366 325.202C82.0156 324.765 83.5561 325.081 84.7336 325.343C85.4641 325.505 86.3131 325.702 86.3551 326.11C86.4436 326.957 84.4838 327.043 83.6048 326.947C83.0528 326.886 82.4986 326.637 82.0538 326.389C81.6173 326.147 80.9896 325.855 81.1366 325.202Z" fill="#484B4C"/>
<path fill-rule="evenodd" clip-rule="evenodd" d="M130.648 326.902C130.733 327.363 130.184 327.718 129.731 327.948C128.426 328.61 125.46 328.69 125.006 327.18C125.383 326.566 126.479 326.733 127.404 326.692C128.569 326.638 129.93 326.409 130.648 326.902Z" fill="#484B4C"/>
<path d="M113.933 324.529C113.933 318.469 112.795 313.227 111.394 308.062C108.715 298.181 104.853 288.821 104.624 276.806C104.177 276.698 104.206 277.312 104.131 277.503C103.33 279.523 102.577 281.859 101.873 284.133C101.067 286.742 100.114 289.302 99.4049 291.876C99.3839 291.952 99.3614 292.025 99.3389 292.099C100.666 295.993 102.034 299.813 103.566 303.598C105.069 307.314 106.792 310.95 108.22 314.692C108.953 316.614 109.654 318.633 109.984 320.762C110.349 323.126 110.191 325.578 109.984 328.227C109.608 333.048 104.407 347.848 106.636 371C108.094 371 109.551 371 111.008 371C110.871 364.603 113.933 330.763 113.933 324.529Z" fill="#484B4C"/>
<path d="M76.9785 304.225C76.5863 299.549 75.7928 294.902 75.285 290.341C74.181 280.388 75.3593 270.485 77.6836 262.503C78.8641 258.447 80.2088 254.571 81.6331 250.85C82.7116 248.033 83.8831 245.324 84.4538 241.92C84.6121 240.979 84.9158 239.927 84.6458 238.925C84.6053 238.924 84.5648 238.921 84.525 238.92C81.6023 246.612 76.4663 252.4 73.17 260.338C71.5995 264.123 70.2855 268.38 69.432 272.967C68.5868 277.513 68.3633 282.873 68.7983 288.178C69.1943 293.022 69.8588 298.044 70.1378 303.179C70.4183 308.32 70.4663 313.727 69.7148 318.599C69.5288 319.804 69.3158 320.888 68.9385 321.947C66.5078 328.781 54.6436 345.429 52.7896 371C55.5638 371 58.3373 371 61.1108 371C63.3076 363.058 75.558 327.757 76.8383 318.947C77.5253 314.216 77.3873 309.104 76.9785 304.225Z" fill="#484B4C"/>
<path fill-rule="evenodd" clip-rule="evenodd" d="M87.9181 263.889C87.8048 265.509 104.198 268.899 104.372 267.662C104.642 265.756 88.0006 262.675 87.9181 263.889Z" fill="#484B4C"/>
<path fill-rule="evenodd" clip-rule="evenodd" d="M90.7711 270.075C90.4681 271.225 99.5004 272.226 99.7059 271.183C99.9256 270.079 91.0179 269.139 90.7711 270.075Z" fill="#484B4C"/>
<path fill-rule="evenodd" clip-rule="evenodd" d="M112.941 268.094C113.228 269.249 121.651 265.874 121.332 264.861C120.994 263.786 112.708 267.155 112.941 268.094Z" fill="#484B4C"/>
<path fill-rule="evenodd" clip-rule="evenodd" d="M112.406 270.92C112.116 271.807 121.337 273.526 121.34 272.212C121.345 271.08 112.722 269.947 112.406 270.92Z" fill="#484B4C"/>
<path fill-rule="evenodd" clip-rule="evenodd" d="M123.807 253.222C121.421 253.618 119.509 254.48 116.683 254.268C114.339 254.092 111.997 252.792 110.054 251.826C107.963 250.786 106.089 249.616 104.271 248.546C100.347 246.237 96.5426 244.085 92.9869 241.709C89.3456 239.276 85.8634 236.661 82.5499 234.034C79.1419 231.333 75.8194 228.535 73.7336 224.754C73.5829 220.943 74.7334 217.756 75.7789 214.777C78.8966 205.89 83.2804 198.425 87.7676 190.705C91.5349 192.77 95.1769 194.958 98.6989 197.264C97.9384 199.502 96.7841 201.562 95.8076 203.683C92.9074 209.986 89.9959 216.303 87.1331 222.732C87.6334 223.28 88.3406 223.58 88.9661 223.988C93.1699 226.723 97.3556 229.817 101.52 232.708C103.702 234.224 106.255 236.049 108.573 237.873C110.148 239.111 111.936 240.505 113.65 241.92C114.19 242.364 114.96 243.128 115.413 243.174C115.881 243.224 116.613 242.872 117.248 242.687C117.872 242.505 118.485 242.294 118.939 242.128C120.059 241.72 121.282 241.189 122.396 241.082C123.705 240.957 125.076 241.16 126.344 241.362C127.47 241.54 128.751 241.914 129.729 242.199C130.699 242.48 131.805 242.757 132.974 243.175C133.836 243.485 135.406 244.108 135.231 245.06C135.06 245.981 132.591 245.833 131.493 245.758C130.078 245.66 128.579 245.392 127.533 245.334C129.609 246.281 132.28 247.486 134.244 249.107C134.754 249.529 135.867 250.482 135.442 251.2C135.138 251.711 133.942 251.434 133.397 251.27C132.661 251.047 132.192 250.782 131.633 250.573C132.031 250.976 134.306 252.489 133.75 253.363C133.329 254.023 132.431 253.614 131.844 253.433C130.077 252.887 127.995 251.974 126.414 251.339C126.357 251.327 126.344 251.27 126.274 251.27C126.811 251.914 127.167 252.492 127.684 253.363C128.003 253.899 128.917 255.181 128.389 255.875C127.801 256.648 126.247 255.601 125.709 255.178C124.895 254.533 124.479 253.797 123.807 253.222Z" fill="#FFA69F"/>
<path fill-rule="evenodd" clip-rule="evenodd" d="M81.8066 201.263C81.8111 204.141 89.9261 209.761 93.6214 208.638C93.6214 208.638 82.7449 201.727 81.8066 201.263Z" fill="#ED8380"/>
<path fill-rule="evenodd" clip-rule="evenodd" d="M97.0764 210.661C89.6454 206.151 82.2384 201.619 75.0024 196.916C78.2784 190.883 81.6459 184.927 85.7214 179.473C87.3332 177.318 88.8414 175.32 91.3637 173.892C92.5922 173.196 94.1192 172.61 95.5952 172.496C100.673 172.106 103.784 174.402 105.398 177.451C107.135 180.73 106.617 185.947 105.61 189.87C103.634 197.569 100.065 204.077 97.0764 210.661Z" fill="white"/>
<path d="M105.399 177.45C103.785 174.402 100.674 172.105 95.5968 172.495C94.1208 172.609 92.5938 173.195 91.3653 173.891C89.4348 174.984 88.0975 176.412 86.854 177.99C87.7068 177.108 88.6675 176.31 89.854 175.639C91.0818 174.944 92.6088 174.357 94.0848 174.243C99.1615 173.852 102.274 176.149 103.889 179.198C105.625 182.476 105.107 187.693 104.1 191.617C102.331 198.504 96.8943 210.55 97.0773 210.661C100.066 204.077 103.635 197.569 105.611 189.87C106.619 185.946 107.136 180.729 105.399 177.45Z" fill="#F4F4F4"/>
<path fill-rule="evenodd" clip-rule="evenodd" d="M282.821 167.164C283.099 169.926 283.377 172.696 283.737 175.467C283.842 176.284 283.859 177.32 284.125 177.918C284.198 177.852 284.267 177.782 284.341 177.717C287.574 174.896 291.117 172.535 294.961 170.625C295.981 170.119 297.012 169.632 298.042 169.148C298.419 167.947 298.176 166.639 298.053 165.141C297.894 163.179 297.766 161.199 297.63 159.28C297.561 158.304 297.306 157.031 297.489 156.279C297.602 155.819 298.378 155.248 298.759 154.814C299.23 154.278 299.646 153.656 299.957 153.21C302.059 150.205 304.257 145.042 302.496 140.092C301.105 136.182 297.705 133.671 293.397 132.418C291.88 131.975 289.919 131.601 288.249 131.79C281.477 132.556 278.2 137.041 276.684 142.814C276.463 143.654 276.463 144.614 276.12 145.535C275.706 146.642 274.7 147.793 273.862 148.815C273.297 149.505 271.665 151.024 271.887 152.372C271.984 152.955 272.736 153.422 273.3 153.767C273.932 154.155 274.517 154.47 274.851 155.093C275.634 156.553 275.052 158.98 275.203 160.884C275.55 165.258 277.932 167.398 282.821 167.164Z" fill="#FFBBB8"/>
<path fill-rule="evenodd" clip-rule="evenodd" d="M297.279 156.838C296.868 156.763 297.036 156.194 296.994 155.791C296.959 155.43 296.799 154.942 296.854 154.675C296.983 154.05 298.015 153.494 298.548 152.722C298.918 152.183 299.338 151.396 299.252 150.349C299.224 149.987 299.064 149.127 298.476 148.816C297.435 148.261 295.339 148.908 294.81 149.583C294.536 149.929 294.432 150.528 294.246 150.978C294.054 151.436 293.871 151.91 293.68 152.373C293.363 153.145 292.771 154.675 291.989 154.606C291.164 154.531 291.111 152.408 291.071 151.397C290.906 147.299 291.411 143.467 291.917 140.093C286.455 138.568 281.556 136.153 278.165 132.348C277.086 131.14 275.715 129.603 275.979 127.535C276.779 126.791 277.938 127.13 278.8 127.396C281.328 128.175 283.5 129.783 285.642 130.884C285.628 130.944 285.668 130.949 285.712 130.954C285.771 130.941 285.777 130.981 285.783 131.024C285.808 130.649 283.567 128.225 284.583 127.047C285.205 126.327 286.662 127.028 287.334 127.396C289.056 128.342 290.107 129.339 291.565 130.466C292.172 130.935 293.101 131.75 293.751 131.931C294.748 132.207 295.647 131.992 296.502 132.141C298.81 132.547 300.669 133.926 301.932 135.49C303.615 137.574 305.022 140.387 305.036 144.072C305.051 149.325 301.979 153.592 298.83 156.003C298.395 156.334 297.896 156.843 297.279 156.838Z" fill="#DD3924"/>
<path fill-rule="evenodd" clip-rule="evenodd" d="M284.391 146.008C283.851 146.439 282.038 144.345 279.595 143.496C279.21 143.363 278.176 142.943 278.114 142.518C278.004 141.76 278.957 141.67 279.737 141.891C282.92 142.794 284.814 145.67 284.391 146.008Z" fill="#DD3924"/>
<path fill-rule="evenodd" clip-rule="evenodd" d="M280.444 147.285C280.348 148.113 279.928 148.744 279.505 148.697C279.081 148.65 278.816 147.94 278.911 147.111C279.007 146.284 279.425 145.653 279.85 145.699C280.273 145.746 280.538 146.456 280.444 147.285Z" fill="#21972B"/>
<path d="M280.235 158.593C280.497 158.291 280.462 157.84 280.16 157.576C279.856 157.314 279.394 157.344 279.125 157.64C279.069 157.7 277.781 159.063 275.256 158.073C275.236 158.58 275.204 159.093 275.188 159.598C275.86 159.812 276.469 159.9 277.01 159.9C279.068 159.9 280.173 158.663 280.235 158.593Z" fill="#ED8380"/>
<path d="M282.821 167.164L283.222 171.062C283.222 171.062 289.324 167.97 289.084 164.264C289.084 164.264 286.439 166.918 282.821 167.164Z" fill="#ED8380"/>
<path fill-rule="evenodd" clip-rule="evenodd" d="M308.914 240.285C308.086 236.75 307.236 233.064 306.8 228.982C306.737 228.405 306.593 227.597 306.658 227.238C306.717 226.922 307.225 226.398 307.575 225.982C309.917 223.2 312.243 220.543 314.557 217.818C313.315 215.705 311.854 213.595 310.608 211.399C310.203 210.686 309.723 209.915 309.41 209.167C309.009 208.208 308.796 207.053 308.493 205.957C307.034 200.687 305.616 195.25 304.614 189.421C304.413 188.257 304.191 187.117 304.05 185.932C303.906 184.734 303.834 183.285 303.838 182.164C305.168 182.034 307.066 184.011 308.211 185.305C311.578 189.114 314.253 194.029 316.744 198.423C319.418 203.14 321.877 207.487 324.219 212.586C325.392 215.141 326.456 217.801 325.559 221.168C324.973 223.365 323.677 225.184 322.316 226.89C319.625 230.257 316.559 233.142 313.57 236.099C312.269 237.386 310.994 238.731 309.55 239.938C309.393 240.066 309.156 240.299 308.914 240.285Z" fill="#FFBBB8"/>
<path fill-rule="evenodd" clip-rule="evenodd" d="M311.951 214.121C314.916 215.521 321.708 212.306 321.708 207.457L311.951 214.121Z" fill="#ED8380"/>
<path fill-rule="evenodd" clip-rule="evenodd" d="M309.126 216.074C307.003 208.444 305.222 199.708 303.767 190.887C303.441 188.919 303.089 186.571 302.849 184.189C302.69 182.608 302.505 181.415 303.485 180.491C304.62 180.185 305.404 180.785 306.306 181.398C307.897 182.482 309.536 184.13 310.678 185.446C312.529 187.574 313.77 189.571 315.403 191.864C318.17 195.749 320.786 199.347 323.514 203.377C323.868 203.9 324.575 204.894 324.572 205.051C324.562 205.587 323.466 206.17 322.808 206.656C318.963 209.497 314.988 212.044 311.031 214.819C310.413 215.253 309.839 215.794 309.126 216.074Z" fill="#F4F4F4"/>
<path d="M312.666 195.277C312.382 192.082 311.896 188.819 310.881 185.686C310.812 185.605 310.747 185.525 310.677 185.446C309.535 184.13 307.896 182.483 306.305 181.398C306.134 181.282 305.968 181.165 305.803 181.058C306.859 183.457 307.64 185.961 308.28 188.445C310.15 195.701 311.343 204.376 312.229 213.005C312.261 213.312 312.287 213.619 312.315 213.926C312.51 213.792 312.705 213.659 312.899 213.525C313.154 207.107 313.161 200.834 312.666 195.277Z" fill="#EAEAEA"/>
<path fill-rule="evenodd" clip-rule="evenodd" d="M297.349 170.723C297.457 170.709 297.714 170.629 297.913 170.723C298.167 170.846 298.25 171.13 298.549 171.422C299.351 172.205 300.589 173.37 301.227 174.071C302.475 175.448 303.512 176.696 304.33 178.119C306.198 181.365 307.373 184.927 308.279 188.445C310.15 195.701 311.342 204.376 312.229 213.005C312.674 217.342 312.923 221.699 313.146 226.33C313.351 230.593 313.655 235.13 314.275 239.448C315.158 245.601 322.84 254.931 322.032 260.649L270.869 257.553C272.384 245.628 267.518 232.312 266.53 227.448C265.556 222.66 265.002 216.756 265.401 211.05C266.181 199.938 270.197 192.078 275.84 185.515C280.577 180.001 286.782 175.465 294.035 172.118C295.057 171.645 296.143 171.054 297.208 170.792C297.235 170.786 297.279 170.733 297.349 170.723Z" fill="white"/>
<path d="M269.649 227.448C268.675 222.66 268.121 216.756 268.521 211.05C269.3 199.938 273.315 192.078 278.958 185.515C283.695 180.001 289.901 175.465 297.154 172.118C297.616 171.904 298.092 171.668 298.574 171.446C298.565 171.438 298.556 171.429 298.548 171.422C298.25 171.13 298.167 170.846 297.912 170.723C297.714 170.629 297.456 170.709 297.348 170.723C297.279 170.733 297.234 170.786 297.207 170.792C296.142 171.055 295.056 171.646 294.033 172.118C286.782 175.466 280.576 180.002 275.838 185.516C270.196 192.079 266.18 199.939 265.4 211.051C265.001 216.756 265.554 222.66 266.529 227.448C267.518 232.313 272.382 245.629 270.867 257.554L322.031 260.649C322.04 260.588 322.043 260.525 322.05 260.462L273.987 257.554C275.502 245.628 270.639 232.312 269.649 227.448Z" fill="#F4F4F4"/>
<path fill-rule="evenodd" clip-rule="evenodd" d="M299.184 166.118C299.743 166.932 299.664 168.083 299.517 169.118C299.046 172.45 296.833 173.372 293.842 174.839C290.698 176.381 288.324 177.563 284.994 179.094C283.946 179.578 281.58 181.346 280.236 180.63C279.42 180.196 279.808 178.73 280.402 177.84C280.988 176.963 281.76 176.204 282.323 175.677C285.097 173.07 288.44 170.738 291.839 168.701C293.626 167.629 295.515 166.581 297.599 166.048C297.866 165.98 298.924 165.871 299.184 166.118Z" fill="white"/>
<path d="M319.908 334.592C319.054 332.037 318.13 329.378 317.769 326.51C316.993 320.362 317.636 313.332 317.672 306.787C317.69 303.419 317.963 300.091 317.963 296.783C317.963 290.062 317.628 283.424 318.838 277.445C319.947 271.964 323.697 262.979 321.775 257.136C293.681 260.65 270.901 257.079 270.901 257.079C270.053 270.196 262.297 304.979 264.672 336.517C264.836 338.702 267.162 368.851 267.393 371.001H294.901C293.999 366.611 288.333 334.454 287.622 330.167C287.195 327.583 286.967 324.988 287.135 322.375C287.298 319.867 287.644 317.379 288.012 314.774C289.411 304.838 290.628 295.042 291.9 284.756C293.895 304.603 301.505 351.815 304.347 371.001H326.342C325.47 368.134 320.831 337.353 319.908 334.592Z" fill="#484B4C"/>
<path d="M274.149 257.306C272.096 257.171 270.901 257.078 270.901 257.078C270.053 270.195 262.297 304.978 264.672 336.516C264.836 338.701 267.162 368.85 267.393 371H270.969C270.74 368.85 266.476 337.936 266.313 335.751C263.95 304.391 273.228 270.591 274.149 257.306Z" fill="#484B4C"/>
<path d="M321.775 332.178C320.963 329.609 319.997 326.963 319.637 324.097C318.86 317.948 319.502 310.92 319.538 304.374C319.556 301.006 319.829 297.678 319.829 294.369C319.83 287.648 319.496 281.01 320.705 275.031C321.813 269.549 323.696 262.979 321.775 257.136C321.151 263.777 319.37 269.031 318.165 274.281C316.802 280.228 316.964 286.871 316.791 293.589C316.706 296.897 316.347 300.219 316.241 303.585C316.037 310.126 315.212 317.139 315.829 323.304C316.117 326.18 316.783 328.924 317.76 331.437C322.264 343.019 323.784 367.024 324.801 371.002H328.925C328.925 365.72 328.925 354.833 321.775 332.178Z" fill="#484B4C"/>
<path d="M310.828 261.894C310.745 260.678 294.105 263.76 294.374 265.668C294.548 266.903 310.94 263.513 310.828 261.894Z" fill="#484B4C"/>
<path d="M307.973 268.079C307.727 267.145 298.82 268.085 299.04 269.187C299.246 270.231 308.276 269.23 307.973 268.079Z" fill="#484B4C"/>
<path d="M285.805 266.099C286.038 265.161 277.752 261.79 277.414 262.866C277.095 263.879 285.517 267.254 285.805 266.099Z" fill="#484B4C"/>
<path d="M286.34 268.924C286.024 267.952 277.402 269.084 277.405 270.216C277.409 271.532 286.628 269.813 286.34 268.924Z" fill="#484B4C"/>
<path d="M309.753 328.203C309.753 328.203 302.852 328.425 302.26 328.494C303.17 329.855 307.901 330.792 309.753 328.203Z" fill="#484B4C"/>
<path d="M273.804 328.203C266.854 328.426 267.305 328.378 266.312 328.494C267.221 329.857 271.952 330.792 273.804 328.203Z" fill="#484B4C"/>
<path d="M289.489 327.753C289.061 325.167 288.833 322.575 289.002 319.959C289.165 317.453 289.512 314.965 289.878 312.36C291.222 302.808 291.406 301.365 292.626 291.513C292.547 290.601 290.74 266.005 290.656 266.083C290.406 267.552 284.477 302.235 282.78 310.915C281.658 316.65 279.958 322.784 280.641 329.389C280.959 332.47 281.772 335.262 282.487 338.143C286.742 355.287 287.842 369.369 288.287 370.999H297.225C297.144 370.528 295.283 354.56 292.503 341.605C291.485 336.866 290.253 332.366 289.489 327.753Z" fill="#484B4C"/>
<path fill-rule="evenodd" clip-rule="evenodd" d="M261.593 206.586C261.452 206.423 261.494 206.677 261.451 206.724C256.997 211.905 252.772 217.039 248.123 222.354C244.379 226.634 240.231 231.461 236.132 235.681C235.596 236.233 234.695 237.254 234.159 237.356C233.645 237.453 232.824 237.319 232.114 237.285C227.79 237.084 223.439 236.74 219.241 236.453C217.792 236.216 206.003 234.299 204.737 233.709C202.904 232.86 201.467 230.638 199.764 229.882C198.435 229.293 197.143 229.164 195.84 229.379C195.434 230.299 193.973 232.367 193.79 232.525C193.564 232.715 192.978 232.901 192.514 233.077C190.223 233.945 188.15 234.254 185.838 235.171C185.152 235.443 183.743 235.881 183.609 236.89C183.51 237.634 184.727 238.302 185.582 238.139C184.621 239.329 186.043 240.457 187.283 240.261C186.491 241.164 187.329 242.599 188.653 242.324C188.306 242.99 188.524 243.516 188.861 243.938C190.341 244.549 191.815 244.398 193.143 244.338C194.486 244.276 195.804 244.158 197.09 243.979C198.336 243.808 199.643 243.41 200.962 243.453C202.373 243.5 207.09 244.834 208.347 245.03C212.212 246.214 216.167 247.231 220.052 248.031C224.504 248.946 228.425 249.66 233.171 249.635C237.752 249.611 241.433 247.785 244.244 246.007C247.163 244.159 249.899 241.877 252.353 239.448C254.826 237.002 257.311 234.561 259.547 231.982C264.121 226.712 268.226 221.07 272.383 215.447C268.878 212.401 265.264 209.465 261.593 206.586Z" fill="#FFBBB8"/>
<path fill-rule="evenodd" clip-rule="evenodd" d="M255.899 213.146C255.521 216.426 261.681 222.625 267.22 222.396L255.899 213.146Z" fill="#ED8380"/>
<path fill-rule="evenodd" clip-rule="evenodd" d="M272.312 226.54C267.682 222.746 263.021 219.039 258.419 215.168C256.901 213.891 255.296 212.666 253.906 211.26C257.33 206.129 260.963 201.179 264.978 196.12C266.832 193.785 268.869 191.361 271.184 189.212C273.521 187.044 276.035 185.08 279.506 184.399C279.998 184.301 280.955 184.277 281.692 184.329C284.088 184.499 286.077 185.565 287.546 187.05C288.986 188.504 290.091 190.757 290.296 192.84C290.496 194.866 290.036 196.824 289.592 198.631C288.305 203.852 285.939 207.793 283.455 211.819C280.119 217.227 276.182 221.952 272.312 226.54Z" fill="white"/>
<path d="M290.295 192.84C290.09 190.758 288.985 188.504 287.545 187.05C286.076 185.565 284.087 184.499 281.691 184.329C280.954 184.277 279.997 184.301 279.505 184.399C279.453 184.41 279.403 184.423 279.35 184.434C281.358 184.772 283.041 185.75 284.326 187.051C285.767 188.505 286.872 190.758 287.077 192.841C287.276 194.867 286.817 196.825 286.372 198.632C285.087 203.853 282.72 207.794 280.236 211.82C277.275 216.619 273.842 220.879 270.402 224.984C271.039 225.503 271.675 226.019 272.312 226.54C276.181 221.952 280.118 217.227 283.454 211.819C285.938 207.793 288.304 203.852 289.591 198.631C290.035 196.823 290.495 194.866 290.295 192.84Z" fill="#F4F4F4"/>
<path d="M333.455 322.55C333.879 321.282 334.818 320.418 335.734 320.447C336.226 320.467 337.112 320.755 337.56 322.477C338.085 324.52 337.815 326.735 337.579 328.414C337.88 328.114 338.182 327.773 338.498 327.423C339.154 326.688 339.837 325.928 340.643 325.359C341.346 323.778 343.236 320.221 346.444 318.932C347.375 318.561 348.946 318.369 349.493 319.349C349.498 319.364 349.506 319.379 349.515 319.393C350.404 321.13 348.162 322.878 347.074 323.727C345.636 324.845 344.173 325.728 342.846 326.273C342.637 326.361 342.379 326.416 342.147 326.466C342.004 326.496 341.787 326.545 341.733 326.574C341.229 326.838 340.62 327.5 340.084 328.084C339.938 328.239 339.799 328.393 339.665 328.533C339.318 328.898 339.012 329.272 338.715 329.631C338.688 329.665 338.657 329.698 338.63 329.734C340.584 329.036 343.431 328.655 345.063 329.156C346.071 329.463 346.42 330.034 346.533 330.461C346.66 330.927 346.593 331.385 346.336 331.816C345.54 333.154 343.042 333.902 342.004 334.161C339.576 334.773 337.317 334.828 335.103 334.342C333.171 336.766 331.719 339.572 330.42 342.315C330.798 342.098 331.197 341.845 331.606 341.585C333.342 340.481 335.501 339.107 338.114 339.168C339.567 339.202 340.04 339.969 340.188 340.425C340.517 341.428 339.964 342.754 338.87 343.583C336.588 345.316 331.821 346.351 328.989 345.774C327.867 348.209 327.147 350.984 326.466 353.697C326.634 353.573 326.805 353.441 326.982 353.309C328.851 351.897 331.176 350.142 334.119 349.722C334.489 349.672 336.344 349.462 336.886 350.439C336.896 350.453 336.9 350.465 336.909 350.481C337.935 352.513 335.067 354.531 333.789 355.305C331.108 356.925 328.224 357.674 325.811 357.39C325.175 360.222 325.031 363.389 325.015 366.475C326.292 364.68 328.339 361.985 331.237 361.885C331.848 361.865 332.874 362.201 333.171 362.793C334.211 364.921 331.386 367.108 330.123 367.947C329.224 368.546 328.41 369.014 327.618 369.466C326.784 369.943 325.996 370.396 325.204 370.951C325.301 372.234 325.544 374.073 325.862 375.935C325.878 376.052 325.918 376.176 325.955 376.303C326.088 376.768 326.337 377.63 325.524 377.928L325.397 377.953C324.414 377.975 324.314 376.918 324.257 376.287C324.243 376.133 324.233 375.988 324.21 375.865C323.961 374.521 323.658 372.664 323.613 371.25C322.193 370.478 318.891 368.596 317.269 365.686C317.014 365.227 316.8 364.744 316.643 364.234C316.214 362.849 315.915 360.361 317.534 359.832C319.755 359.101 321.182 361.882 321.789 363.067C322.396 364.258 322.883 365.352 323.333 366.46C323.339 366.201 323.348 365.94 323.355 365.678C323.431 363.225 323.516 360.446 323.883 358.057C323.911 357.876 323.973 357.665 324.033 357.462C324.084 357.297 324.158 357.047 324.154 356.982C324.087 356.727 323.803 356.51 323.475 356.265C323.302 356.133 323.123 355.998 322.953 355.846C320.678 353.772 319.442 351.243 319.275 348.334C319.168 346.539 319.674 345.493 320.783 345.226C322.785 344.742 323.476 347.061 323.888 348.445L324.003 348.826C324.42 350.165 324.742 351.375 325 352.586C325.051 352.403 325.1 352.219 325.152 352.034C325.803 349.637 326.478 347.16 327.495 344.948C325.314 342.684 323.819 337.787 325.098 334.56C325.702 333.048 326.561 332.217 327.591 332.156C328.209 332.121 328.728 332.32 329.133 332.75C330.324 334.002 330.231 337.034 330.011 339.284C331.485 336.626 333.273 333.812 335.087 331.308C333.597 329.279 332.577 325.156 333.455 322.55Z" fill="#68A16C" fill-opacity="0.65"/>
</g>
</g>
<defs>
<clipPath id="clip0_250_120">
<rect width="375" height="371" fill="white" transform="translate(-2)"/>
</clipPath>
</defs>
</svg>
