<svg width="341" height="341" viewBox="0 0 341 341" fill="none" xmlns="http://www.w3.org/2000/svg">
<g clip-path="url(#clip0_250_914)">
<path d="M303.291 238.117H180.022C177.818 238.117 176.024 236.323 176.024 234.119V54.5662C176.024 52.362 177.818 50.5684 180.022 50.5684H303.291C305.495 50.5684 307.289 52.3613 307.289 54.5662V234.118C307.289 236.323 305.495 238.117 303.291 238.117ZM180.022 50.7389C177.912 50.7389 176.195 52.4561 176.195 54.5662V234.118C176.195 236.229 177.912 237.946 180.022 237.946H303.291C305.402 237.946 307.118 236.229 307.118 234.118V54.5662C307.118 52.4561 305.401 50.7389 303.291 50.7389H180.022Z" fill="#F0F0F0"/>
<path d="M161.143 238.117H37.8743C35.6701 238.117 33.8765 236.323 33.8765 234.119V54.5662C33.8765 52.362 35.6694 50.5684 37.8743 50.5684H161.143C163.347 50.5684 165.141 52.3613 165.141 54.5662V234.118C165.142 236.323 163.348 238.117 161.143 238.117ZM37.8743 50.7389C35.7642 50.7389 34.047 52.4561 34.047 54.5662V234.118C34.047 236.229 35.7642 237.946 37.8743 237.946H161.143C163.254 237.946 164.971 236.229 164.971 234.118V54.5662C164.971 52.4561 163.253 50.7389 161.143 50.7389H37.8743Z" fill="#F0F0F0"/>
<path d="M341.538 279.766H0.537598V279.937H341.538V279.766Z" fill="#E0E0E0"/>
<path d="M153.626 214.967L158.099 219.402L158.714 220.01L127.716 251.352L117.691 241.215L79.5728 279.766H86.6615L117.691 248.385L127.716 258.522L162.289 223.56L162.558 223.825L167.03 228.26L170.281 211.355L153.626 214.967Z" fill="#F0F0F0"/>
<path d="M92.3783 100.709L96.8509 105.144L97.4661 105.752L66.4678 137.094L56.4431 126.957L34.0469 149.608V156.777L56.4431 134.127L66.4678 144.264L101.04 109.303L101.31 109.567L105.782 114.003L109.033 97.0964L92.3783 100.709Z" fill="#F0F0F0"/>
<path d="M56.9554 91.6125C56.9554 92.1355 56.5332 92.5577 56.0156 92.5577H53.2862V95.2816C53.2862 95.8054 52.8641 96.2269 52.341 96.2269C51.8233 96.2269 51.4012 95.8047 51.4012 95.2816V92.5577H48.6718C48.1487 92.5577 47.7266 92.1355 47.7266 91.6125C47.7266 91.0948 48.1487 90.6727 48.6718 90.6727H51.4012V87.9433C51.4012 87.4202 51.8233 86.998 52.341 86.998C52.8641 86.998 53.2862 87.4202 53.2862 87.9433V90.6727H56.0156C56.5339 90.6727 56.9554 91.0948 56.9554 91.6125Z" fill="#F0F0F0"/>
<path d="M288.616 156.777C288.616 157.3 288.193 157.722 287.676 157.722H284.946V160.446C284.946 160.97 284.524 161.391 284.001 161.391C283.484 161.391 283.061 160.969 283.061 160.446V157.722H280.332C279.809 157.722 279.387 157.3 279.387 156.777C279.387 156.259 279.809 155.837 280.332 155.837H283.061V153.108C283.061 152.585 283.484 152.163 284.001 152.163C284.524 152.163 284.946 152.585 284.946 153.108V155.837H287.676C288.193 155.837 288.616 156.259 288.616 156.777Z" fill="#F0F0F0"/>
<path d="M197.475 68.4328C197.475 68.9559 197.053 69.378 196.536 69.378H193.806V72.1019C193.806 72.6257 193.384 73.0472 192.861 73.0472C192.343 73.0472 191.921 72.625 191.921 72.1019V69.378H189.192C188.669 69.378 188.247 68.9559 188.247 68.4328C188.247 67.9151 188.669 67.493 189.192 67.493H191.921V64.7636C191.921 64.2405 192.343 63.8184 192.861 63.8184C193.384 63.8184 193.806 64.2405 193.806 64.7636V67.493H196.536C197.053 67.493 197.475 67.9151 197.475 68.4328Z" fill="#F0F0F0"/>
<path d="M56.2517 208.518H39.2017V216.361H56.2517V208.518Z" fill="#F5F5F5"/>
<path d="M74.7507 208.518H57.7007V216.361H74.7507V208.518Z" fill="#F5F5F5"/>
<path d="M65.5012 217.725H48.4512V225.568H65.5012V217.725Z" fill="#F5F5F5"/>
<path d="M277.979 61.7874H260.929V69.6304H277.979V61.7874Z" fill="#F5F5F5"/>
<path d="M296.478 61.7874H279.428V69.6304H296.478V61.7874Z" fill="#F5F5F5"/>
<path d="M287.229 70.9944H270.179V78.8374H287.229V70.9944Z" fill="#F5F5F5"/>
<path d="M75.3781 174.375H65.3125V189.685H75.3781V174.375Z" fill="#F5F5F5"/>
<path d="M90.5935 165.472H80.5278V189.685H90.5935V165.472Z" fill="#F5F5F5"/>
<path d="M105.809 151.758H95.7432V189.685H105.809V151.758Z" fill="#F5F5F5"/>
<path d="M121.025 137.246H110.959V189.685H121.025V137.246Z" fill="#F5F5F5"/>
<path d="M253.306 217.043H243.24V232.354H253.306V217.043Z" fill="#F5F5F5"/>
<path d="M268.521 208.141H258.456V232.354H268.521V208.141Z" fill="#F5F5F5"/>
<path d="M283.737 194.427H273.671V232.354H283.737V194.427Z" fill="#F5F5F5"/>
<path d="M298.952 179.915H288.887V232.354H298.952V179.915Z" fill="#F5F5F5"/>
<path d="M305.991 308C305.991 309.452 246.414 310.629 172.922 310.629C99.4308 310.629 39.854 309.452 39.854 308C39.854 306.548 99.4308 305.371 172.922 305.371C246.414 305.371 305.991 306.548 305.991 308Z" fill="#F5F5F5"/>
<path d="M260.002 233.561L264.474 237.995L265.089 238.603L234.091 269.945L224.066 259.809L176.195 308.224H183.284L224.066 266.978L234.091 277.115L268.664 242.154L268.933 242.418L273.406 246.853L276.657 229.948L260.002 233.561Z" fill="#21972B"/>
<path d="M90.3607 305.34L94.855 280.998H64.2905L68.7849 305.34C69.0693 306.881 70.4135 307.999 71.9808 307.999H87.1641C88.732 308 90.0763 306.882 90.3607 305.34Z" fill="#263238"/>
<path d="M91.6151 258.968C87.5913 257.909 81.4438 266.26 79.5765 274.403V262.539C80.5149 260.875 82.3045 258.371 85.5535 255.725C90.6058 251.61 95.257 246.329 91.2257 245.268C87.4481 244.273 81.7984 251.573 79.5765 259.208V243.972C80.2271 242.961 81.2937 241.635 82.9987 240.247C86.183 237.653 89.1142 234.325 86.5738 233.656C84.3689 233.075 81.1526 236.978 79.5765 241.379V236.441C79.837 234.914 80.2053 232.733 81.216 230.502C83.558 225.333 84.8231 220.009 81.735 220.405C78.6442 220.802 76.6405 230.006 78.3305 237.072V239.613C77.1888 234.442 73.2721 229.087 70.7152 229.76C68.1748 230.429 71.106 233.758 74.2903 236.351C76.7141 238.326 77.8483 240.173 78.3305 241.167V253.169C76.4993 244.985 70.3081 236.539 66.2632 237.604C62.2325 238.666 66.8831 243.947 71.9353 248.061C75.7532 251.17 77.5564 254.085 78.3305 255.67V270.062C76.3738 262.028 70.3401 253.92 66.3723 254.966C62.3416 256.028 65.798 259.886 71.4764 264.554C75.3351 267.727 77.4023 271.074 78.3305 272.894V280.998H79.5765V276.976C80.3662 275.379 82.1715 272.498 85.9429 269.426C90.9952 265.311 95.6464 260.03 91.6151 258.968Z" fill="#21972B"/>
<path d="M96.7358 279.851H62.4087V283.193H96.7358V279.851Z" fill="#263238"/>
<path opacity="0.2" d="M96.7358 279.851H62.4087V283.193H96.7358V279.851Z" fill="white"/>
<path d="M274.564 125.371C270.525 139.773 257.344 149.146 243.07 148.971V148.978H239.073V148.676C237.622 148.48 236.17 148.178 234.719 147.772C217.528 142.948 207.502 125.112 212.319 107.92C215.908 95.1323 226.699 86.3052 239.073 84.6152V84.3137H243.07V84.3205C246.07 84.2858 249.135 84.6711 252.17 85.5263C269.361 90.344 279.387 108.188 274.564 125.371Z" fill="#21972B"/>
<path opacity="0.3" d="M274.564 125.371C270.525 139.773 257.344 149.146 243.07 148.971V148.978H239.073V148.676C237.622 148.48 236.17 148.178 234.719 147.772C217.528 142.948 207.502 125.112 212.319 107.92C215.908 95.1323 226.699 86.3052 239.073 84.6152V84.3137H243.07V84.3205C246.07 84.2858 249.135 84.6711 252.17 85.5263C269.361 90.344 279.387 108.188 274.564 125.371Z" fill="black"/>
<path d="M251.55 146.57C268.075 139.819 275.998 120.949 269.247 104.424C262.496 87.8994 243.626 79.9763 227.101 86.7277C210.576 93.4791 202.653 112.348 209.405 128.873C216.156 145.398 235.025 153.321 251.55 146.57Z" fill="#21972B"/>
<path d="M249.812 139.945C262.68 134.157 268.42 119.034 262.632 106.166C256.845 93.2983 241.721 87.559 228.853 93.3467C215.985 99.1345 210.245 114.258 216.033 127.125C221.821 139.993 236.944 145.732 249.812 139.945Z" fill="white"/>
<path d="M234.264 134.722C244.23 137.517 254.612 131.681 257.407 121.715C260.202 111.749 254.367 101.367 244.4 98.5723C234.434 95.7775 224.052 101.613 221.257 111.579C218.463 121.545 224.297 131.928 234.264 134.722Z" fill="#21972B"/>
<path d="M236.093 128.198C242.462 129.984 249.097 126.255 250.883 119.885C252.669 113.516 248.94 106.882 242.57 105.096C236.201 103.309 229.567 107.039 227.781 113.408C225.995 119.778 229.724 126.412 236.093 128.198Z" fill="white"/>
<path d="M237.922 121.674C240.694 122.452 243.581 120.829 244.359 118.057C245.136 115.285 243.513 112.398 240.741 111.62C237.97 110.843 235.082 112.466 234.305 115.238C233.528 118.009 235.15 120.897 237.922 121.674Z" fill="#21972B"/>
<path d="M203.158 96.7397L210.961 95.5517L209.773 87.7482C209.704 87.2968 210.014 86.8746 210.466 86.8057C210.918 86.7368 211.34 87.0471 211.408 87.4993L212.692 95.9309L215.688 98.1358L214.653 91.3397C214.585 90.8882 214.895 90.466 215.346 90.3971C215.798 90.3282 216.22 90.6386 216.289 91.0907L217.572 99.5223L221.357 102.307L220.322 95.5108C220.253 95.0593 220.564 94.6371 221.016 94.5682C221.467 94.4994 221.889 94.8097 221.958 95.2618L223.242 103.693L239.689 115.796C240.72 116.647 240.041 117.724 239.199 117.488L222.089 104.899L213.956 106.137C213.504 106.206 213.082 105.896 213.013 105.443C212.944 104.992 213.255 104.57 213.707 104.501L220.205 103.512L216.42 100.727L208.287 101.965C207.835 102.034 207.413 101.724 207.344 101.272C207.276 100.82 207.586 100.398 208.038 100.329L214.536 99.3402L211.539 97.1353L203.406 98.3731C202.954 98.442 202.532 98.1317 202.463 97.6795C202.396 97.2301 202.706 96.8079 203.158 96.7397Z" fill="#263238"/>
<path d="M131.551 308.224H130.869V287.563H154.68V267.213H178.491V246.892H202.303V226.543H226.114V206.222H249.925V185.872H274.077V186.554H250.607V206.875L250.266 206.904H226.796V227.225H202.985V247.546L202.644 247.574H179.173V267.895H155.362V288.215L155.021 288.245H131.551V308.224Z" fill="#263238"/>
<path d="M278.822 186.213L274.078 191.125V181.302L278.822 186.213Z" fill="#263238"/>
<path d="M164.33 102.706C165.968 106.417 167.528 110.205 169.078 113.955L171.41 119.555C172.195 121.38 172.977 123.279 173.772 124.869C174.252 125.766 174.169 125.774 174.768 126.467C175.291 127.068 175.971 127.73 176.668 128.376C178.064 129.694 179.594 130.988 181.127 132.292L190.527 140.093L187.996 144.085C184.215 142.261 180.556 140.309 176.959 138.117C175.153 137.03 173.381 135.878 171.587 134.606C170.695 133.952 169.808 133.282 168.867 132.441C168.402 132.024 167.9 131.539 167.352 130.874L166.975 130.369L166.681 129.937C166.481 129.642 166.345 129.407 166.175 129.139C165.561 128.127 165.044 127.186 164.533 126.238C164.025 125.293 163.533 124.356 163.068 123.413C162.133 121.532 161.221 119.659 160.361 117.768C158.622 113.99 156.986 110.211 155.494 106.325L164.33 102.706Z" fill="#9E6141"/>
<path d="M164.181 102.107L170.544 114.043C170.544 114.043 168.42 119.816 162.573 124.014L158.03 118.766L164.181 102.107Z" fill="#21972B"/>
<g opacity="0.5">
<path d="M164.181 102.107L170.544 114.043C170.544 114.043 168.42 119.816 162.573 124.014L158.03 118.766L164.181 102.107Z" fill="white"/>
</g>
<path d="M154.785 68.7291C154.785 68.7291 148.399 67.9796 146.113 74.7737C144.191 80.4882 141.929 83.7747 139.302 84.9041C134.998 86.7544 130.877 90.5184 133.503 95.8652C137.658 104.327 155.314 103.475 158.781 99.8549C162.248 96.2342 158.58 97.1051 162.124 93.8301C165.667 90.5559 169.426 81.1709 166.934 74.5786C165.563 70.949 160.288 67.5022 154.785 68.7291Z" fill="#263238"/>
<path d="M162.523 87.9241C162.294 88.8796 161.334 89.4675 160.378 89.2384C159.423 89.0092 158.835 88.049 159.064 87.0935C159.293 86.138 160.254 85.5501 161.209 85.7793C162.164 86.0091 162.752 86.9693 162.523 87.9241Z" fill="white"/>
<path d="M138.16 274.428L138.518 282.28H142.712L143.673 274.428H138.16Z" fill="#9E6141"/>
<path d="M154.344 287.833C154.368 285.275 153.303 284.511 151.904 284.424C150.449 284.333 145.392 282.608 145.392 282.608C145.392 282.608 144.459 280.983 143.53 280.653C142.6 280.323 141.575 281.29 141.575 281.29L138.973 280.973C138.973 280.973 138.299 279.805 137.656 280.828C136.659 282.414 136.329 286.804 136.306 287.833H154.344Z" fill="#21972B"/>
<path d="M154.068 287.165C152.977 287.16 151.891 287.156 150.799 287.15C146.032 287.128 141.267 287.1 136.5 287.076C136.318 287.077 136.382 286.802 136.563 286.806C136.883 286.81 137.21 286.808 137.531 286.812C137.534 286.802 137.543 286.786 137.55 286.776C138.58 285.302 138.137 283.804 136.94 283.057C136.799 282.975 136.999 282.736 137.134 282.823C138.429 283.631 138.869 285.232 137.821 286.81C138.494 286.817 139.163 286.819 139.838 286.821C144.599 286.843 149.364 286.871 154.132 286.894C154.314 286.894 154.25 287.169 154.068 287.165Z" fill="black"/>
<path d="M144.493 283.714C145.321 282.853 146.432 282.609 147.16 283.258C147.278 283.363 147.473 283.126 147.356 283.023C146.52 282.277 145.224 282.601 144.286 283.576C144.149 283.72 144.356 283.856 144.493 283.714Z" fill="white"/>
<path d="M145.927 284.172C146.756 283.312 147.866 283.067 148.594 283.716C148.712 283.821 148.907 283.584 148.79 283.481C147.954 282.735 146.658 283.059 145.721 284.035C145.583 284.178 145.791 284.314 145.927 284.172Z" fill="white"/>
<path d="M147.411 284.63C148.239 283.769 149.35 283.525 150.078 284.174C150.196 284.279 150.391 284.042 150.274 283.939C149.438 283.193 148.142 283.517 147.204 284.492C147.067 284.636 147.275 284.772 147.411 284.63Z" fill="white"/>
<path d="M158.677 144.643C158.677 144.643 158.329 157.833 157.045 176.365C156.791 179.955 156.504 183.753 156.183 187.691C155.507 195.867 154.658 204.672 153.602 213.577C151.042 235.124 143.894 276.28 143.894 276.28L137.396 276.42C137.396 276.42 130.991 239.596 138.005 214.104C137.556 209.699 137.196 205.567 136.915 201.682C135.932 188.318 135.858 177.942 136.239 169.913C136.273 169.271 136.306 168.643 136.34 168.028C136.4 167.005 136.473 166.015 136.547 165.073C136.667 163.522 136.814 162.077 136.969 160.734C138.433 148.192 141.06 144.575 141.06 144.575L158.677 144.643Z" fill="#263238"/>
<g opacity="0.2">
<path d="M157.045 176.365C156.791 179.955 156.504 183.753 156.183 187.69C149.631 182.395 140.766 172.895 136.34 168.028C136.4 167.005 136.474 166.016 136.547 165.073L157.045 176.365Z" fill="black"/>
</g>
<path d="M174.642 234.516L182.466 234.293C186.649 214.158 198.243 175.819 192.203 169.981C171.004 149.489 130.934 139.833 130.934 139.833C126.097 140.789 122.611 142.291 121.545 146.936C120.445 151.73 121.124 158.171 126.937 162.261C130.492 164.762 134.936 166.422 143.858 170.52C150.87 173.739 158.297 177.086 170.811 180.911C174.447 182.022 175.662 182.386 177.67 182.937C173.534 197.8 174.565 228.753 174.642 234.516Z" fill="#263238"/>
<path d="M175.761 234.023L175.66 241.464H179.853L181.275 234.023H175.761Z" fill="#9E6141"/>
<path d="M183.544 236.384L184.08 233.607H173.941L173.896 236.384H183.544Z" fill="#263238"/>
<path d="M191.485 247.017C191.509 244.459 190.445 243.695 189.045 243.608C187.59 243.517 182.533 241.792 182.533 241.792C182.533 241.792 181.601 240.167 180.671 239.837C179.741 239.507 178.716 240.473 178.716 240.473L176.114 240.157C176.114 240.157 175.439 238.989 174.796 240.012C173.799 241.598 173.47 245.988 173.447 247.017H191.485Z" fill="#21972B"/>
<path d="M191.209 246.349C190.118 246.344 189.032 246.339 187.94 246.334C183.173 246.311 178.407 246.283 173.641 246.26C173.459 246.261 173.523 245.986 173.704 245.99C174.025 245.993 174.352 245.992 174.673 245.995C174.676 245.985 174.684 245.97 174.692 245.959C175.722 244.485 175.278 242.988 174.082 242.241C173.94 242.158 174.141 241.919 174.276 242.006C175.571 242.815 176.011 244.416 174.963 245.994C175.636 246.001 176.305 246.003 176.979 246.005C181.741 246.027 186.506 246.055 191.273 246.079C191.454 246.077 191.39 246.353 191.209 246.349Z" fill="black"/>
<path d="M181.634 242.898C182.463 242.037 183.573 241.792 184.301 242.442C184.419 242.547 184.614 242.311 184.497 242.207C183.661 241.461 182.365 241.785 181.427 242.761C181.29 242.903 181.498 243.04 181.634 242.898Z" fill="white"/>
<path d="M183.068 243.356C183.896 242.495 185.006 242.251 185.735 242.9C185.853 243.005 186.047 242.768 185.931 242.665C185.094 241.919 183.799 242.243 182.861 243.218C182.724 243.362 182.931 243.498 183.068 243.356Z" fill="white"/>
<path d="M184.552 243.814C185.38 242.953 186.491 242.709 187.22 243.358C187.338 243.463 187.532 243.227 187.415 243.123C186.579 242.377 185.283 242.701 184.346 243.677C184.208 243.82 184.415 243.956 184.552 243.814Z" fill="white"/>
<path d="M144.4 277.802L145.032 275.031H136.4L136.461 277.802H144.4Z" fill="#263238"/>
<path d="M121.546 144.014C134.806 150.249 158.481 151.597 158.962 148.447C160.315 139.571 158.651 129.204 160.387 123.524C167.677 119.772 163.151 115.035 164.754 108.359C165.983 103.266 162.992 98.2031 157.965 96.7C156.803 96.3576 155.599 96.0098 154.41 95.707C154.164 95.6408 153.924 95.5829 153.685 95.5256C150.501 94.7358 147.427 94.2844 144 93.8902C142.808 93.7456 141.571 93.6174 140.277 93.4748C138.989 93.3405 137.724 93.245 136.52 93.1857C132.038 92.9524 128.214 96.5984 128.336 101.025C128.502 107.555 128.227 113.672 127.635 119.187C127.503 120.433 127.364 121.634 127.199 122.811C126.57 127.414 125.722 131.536 124.753 135.059C124.734 135.136 124.708 135.212 124.69 135.282C124.24 136.886 123.768 138.357 123.271 139.695C123.119 140.117 122.964 140.516 122.801 140.907C122.471 141.739 121.905 143.192 121.546 144.014Z" fill="#21972B"/>
<g opacity="0.3">
<path d="M121.546 144.014C134.806 150.249 158.481 151.597 158.962 148.447C160.315 139.571 158.651 129.204 160.387 123.524C167.677 119.772 163.151 115.035 164.754 108.359C165.983 103.266 162.992 98.2031 157.965 96.7C156.803 96.3576 155.599 96.0098 154.41 95.707C154.164 95.6408 153.924 95.5829 153.685 95.5256C150.501 94.7358 147.427 94.2844 144 93.8902C142.808 93.7456 141.571 93.6174 140.277 93.4748C138.989 93.3405 137.724 93.245 136.52 93.1857C132.038 92.9524 128.214 96.5984 128.336 101.025C128.502 107.555 128.227 113.672 127.635 119.187C127.503 120.433 127.364 121.634 127.199 122.811C126.57 127.414 125.722 131.536 124.753 135.059C124.734 135.136 124.708 135.212 124.69 135.282C124.24 136.886 123.768 138.357 123.271 139.695C123.119 140.117 122.964 140.516 122.801 140.907C122.471 141.739 121.905 143.192 121.546 144.014Z" fill="white"/>
</g>
<path d="M120.934 103.7C120.934 103.7 126.639 92.9796 134.328 93.3847C139.24 93.6439 138.556 104.174 133.09 112.089C128.005 110.052 124.204 107.609 120.934 103.7Z" fill="#21972B"/>
<g opacity="0.5">
<path d="M120.934 103.7C120.934 103.7 126.639 92.9796 134.328 93.3847C139.24 93.6439 138.556 104.174 133.09 112.089C128.005 110.052 124.204 107.609 120.934 103.7Z" fill="white"/>
</g>
<path d="M144 93.8901C146.601 100.096 153.952 104.515 153.952 104.515C155.317 102.041 155.493 97.8294 154.426 95.7145C154.179 95.6483 153.939 95.5897 153.699 95.5317C150.503 94.7365 147.427 94.2837 144 93.8901Z" fill="#9E6141"/>
<path d="M154.306 97.453C154.323 97.543 154.349 97.6358 154.396 97.7326C155.305 99.6415 153.887 101.113 151.97 100.739C151.784 100.703 151.602 100.654 151.425 100.596C150.747 100.373 150.147 99.9382 149.729 99.3592C149.727 99.3565 149.725 99.3544 149.723 99.3517C147.711 96.5555 145.449 94.3478 145.449 94.3478C148.544 93.1427 150.276 87.7393 150.966 84.3149L154.782 90.6064L155.474 91.9629C154.978 92.6367 154.522 93.3433 154.227 94.0628C153.754 95.1772 153.648 96.3277 154.306 97.453Z" fill="#9E6141"/>
<g opacity="0.2">
<path d="M154.226 94.0627C154.522 93.3431 154.977 92.6366 155.473 91.9628L154.781 90.6063L151.932 90.3267C151.932 90.3267 152.4 92.7102 154.226 94.0627Z" fill="black"/>
</g>
<path d="M150.885 78.0554C149.745 83.6798 149.145 86.0361 151.13 89.6071C154.117 94.9778 161.145 95.1054 163.911 89.9256C166.4 85.2621 167.847 76.8482 163.12 73.2316C158.462 69.6674 152.026 72.4316 150.885 78.0554Z" fill="#9E6141"/>
<path d="M160.068 71.7129C160.068 71.7129 161.719 77.5774 165.052 78.166C168.385 78.7539 166.155 74.0951 163.053 71.7975C161.707 70.8004 160.068 71.7129 160.068 71.7129Z" fill="#263238"/>
<path d="M158.485 79.7659C158.56 79.7863 158.644 79.7775 158.715 79.7345C159.827 79.0614 160.819 79.5203 160.831 79.5258C160.978 79.5947 161.154 79.536 161.223 79.3901C161.29 79.2441 161.225 79.0695 161.077 78.9979C161.025 78.9734 159.779 78.3957 158.399 79.2319C158.262 79.3157 158.221 79.4951 158.308 79.6342C158.35 79.7018 158.413 79.7461 158.485 79.7659Z" fill="#263238"/>
<path d="M165.971 81.4108C166.036 81.4238 166.104 81.4142 166.165 81.3767C166.289 81.2997 166.326 81.1367 166.25 81.0125C165.477 79.7727 164.258 79.7331 164.206 79.7317C164.061 79.729 163.94 79.8443 163.937 79.9909C163.934 80.1362 164.05 80.2569 164.195 80.2603C164.243 80.2617 165.188 80.306 165.802 81.2922C165.841 81.3556 165.904 81.3972 165.971 81.4108Z" fill="#263238"/>
<path d="M149.197 77.1136C149.197 77.1136 147.081 80.6887 149.741 81.6626C152.4 82.6365 153.954 80.8196 153.938 79.2183C153.921 77.6169 153.436 75.9426 157.378 76.7242C160.85 77.4123 163.001 70.2002 158.384 70.3141C155.518 70.3843 150.249 72.1337 149.197 77.1136Z" fill="#263238"/>
<path d="M161.712 88.2494C161.712 88.2494 159.098 86.6631 158.636 85.385C158.636 85.385 157.968 87.4903 159.321 88.4601C160.674 89.43 161.712 88.2494 161.712 88.2494Z" fill="white"/>
<path d="M159.67 82.2033C159.55 82.6541 159.692 83.0831 159.987 83.1615C160.281 83.24 160.617 82.9378 160.737 82.487C160.857 82.0362 160.716 81.6072 160.421 81.5288C160.126 81.4511 159.79 81.7525 159.67 82.2033Z" fill="#263238"/>
<path d="M164.182 83.5353C164.062 83.9861 164.204 84.4151 164.498 84.4935C164.793 84.572 165.129 84.2698 165.249 83.819C165.369 83.3682 165.228 82.9393 164.933 82.8608C164.638 82.7831 164.302 83.0852 164.182 83.5353Z" fill="#263238"/>
<path d="M164.796 82.852L165.962 82.8281C165.962 82.8281 165.181 83.5258 164.796 82.852Z" fill="#263238"/>
<path d="M162.458 82.7007C162.458 82.7007 162.917 84.1022 163.484 85.3632C163.668 85.7731 163.434 86.2546 162.993 86.3419C162.233 86.4912 161.465 86.4455 161.465 86.4455L162.458 82.7007Z" fill="#7A4224"/>
<path d="M147.896 81.3651C148.11 82.5566 148.799 83.4527 149.556 83.8995C150.695 84.5705 151.666 83.3845 151.685 81.9223C151.702 80.6068 151.13 78.6726 149.826 78.6119C148.541 78.5519 147.653 80.0032 147.896 81.3651Z" fill="#9E6141"/>
<path d="M150.207 83.7672C150.207 84.1253 149.917 84.4158 149.559 84.4158C149.201 84.4158 148.91 84.1253 148.91 83.7672C148.91 83.4092 149.201 83.1187 149.559 83.1187C149.917 83.1187 150.207 83.4092 150.207 83.7672Z" fill="white"/>
<path d="M160.284 81.52L161.45 81.4961C161.45 81.4961 160.669 82.1938 160.284 81.52Z" fill="#263238"/>
<path d="M229.503 181.911L250.823 185.859L238.067 168.326L229.503 181.911Z" fill="#21972B"/>
<g opacity="0.6">
<path d="M238.065 168.325L247.12 180.77L250.824 185.859L244.71 184.731L229.502 181.91L238.065 168.325Z" fill="white"/>
</g>
<path d="M247.12 180.77L250.823 185.859L244.71 184.732C245.383 183.402 246.222 182.024 247.12 180.77Z" fill="#263238"/>
<path d="M102.888 83.1187L238.065 168.325L241.482 173.021L235.211 172.853L238.331 178.126L232.357 177.382L234.841 182.9L229.503 181.91L94.3247 96.7034L102.888 83.1187Z" fill="#21972B"/>
<path d="M102.885 83.1102L94.3228 96.6956L100.942 100.868L109.505 87.2823L102.885 83.1102Z" fill="#263238"/>
<path d="M102.886 83.118L94.324 96.7028L92.0372 95.2611C89.0685 93.3897 88.1792 89.4668 90.0506 86.498L91.8374 83.663C93.7088 80.6942 97.6317 79.8049 100.6 81.6763L102.886 83.118Z" fill="#21972B"/>
<g opacity="0.6">
<path d="M102.886 83.118L94.324 96.7028L92.0372 95.2611C89.0685 93.3897 88.1792 89.4668 90.0506 86.498L91.8374 83.663C93.7088 80.6942 97.6317 79.8049 100.6 81.6763L102.886 83.118Z" fill="white"/>
</g>
<path d="M232.271 177.327C232.21 177.424 232.082 177.452 231.987 177.392L103.688 96.52C103.592 96.4593 103.563 96.3318 103.624 96.2363C103.684 96.1402 103.811 96.1115 103.907 96.1722L232.207 177.044C232.302 177.104 232.331 177.232 232.271 177.327Z" fill="#263238"/>
<path d="M235.125 172.8C235.064 172.896 234.937 172.924 234.841 172.864L106.541 91.9922C106.445 91.9315 106.416 91.804 106.477 91.7085C106.538 91.6123 106.665 91.5837 106.761 91.6444L235.06 172.516C235.157 172.576 235.186 172.703 235.125 172.8Z" fill="#263238"/>
<path d="M149.127 129.096C148.455 129.418 147.798 129.711 147.139 129.991C146.762 130.159 146.384 130.313 145.999 130.474C144.956 130.908 143.907 131.335 142.843 131.719C140.731 132.51 138.576 133.217 136.371 133.846C134.167 134.476 131.921 135.008 129.57 135.42C128.395 135.631 127.192 135.77 125.932 135.875C124.798 135.966 123.63 136.015 122.349 135.91C122.203 135.903 122.055 135.889 121.909 135.875C121.384 135.819 120.818 135.672 120.279 135.42C119.53 135.071 118.963 134.574 118.557 134.119C117.795 133.203 117.578 132.517 117.41 132.027C117.123 131.047 117.109 130.516 117.067 129.998C117.025 129.019 117.081 128.304 117.144 127.612C117.27 126.241 117.479 125.038 117.704 123.855C118.165 121.49 118.697 119.244 119.285 117.019C119.628 115.711 119.992 114.409 120.37 113.115L129.094 118.615C128.996 118.943 128.905 119.272 128.815 119.601C128.241 121.694 127.667 123.786 127.226 125.808C127.156 126.123 127.093 126.437 127.031 126.745C127.548 126.745 128.08 126.724 128.612 126.711C130.641 126.634 132.734 126.431 134.846 126.207C136.581 126.011 138.338 125.787 140.094 125.549C140.471 125.5 140.856 125.444 141.234 125.395L147.671 124.472L149.127 129.096Z" fill="#9E6141"/>
<path d="M147.143 124.546C147.143 124.546 152.738 122.783 153.931 122.989C155.265 123.218 154.878 130.223 153.194 131.235C151.511 132.247 147.465 129.174 147.465 129.174L147.143 124.546Z" fill="#9E6141"/>
<path d="M147.148 124.61C147.148 124.61 148.313 123.139 149.561 122.652C150.808 122.166 151.943 121.377 152.526 121.582C153.109 121.787 151.05 123.686 151.05 123.686L147.148 124.61Z" fill="#9E6141"/>
<path d="M153.931 122.989C153.931 122.989 157.405 123.85 158.548 125.236C159.69 126.622 156.574 125.863 156.574 125.863C156.574 125.863 160.208 127.053 158.814 129.843C158.131 131.21 154.005 131.61 152.091 131.425C152.091 131.425 151.957 125.588 153.931 122.989Z" fill="#9E6141"/>
<path d="M186.479 134.166C186.479 134.166 186.386 133.692 185.074 133.386C183.762 133.08 182.917 133.115 182.358 133.21L185.529 135.252C185.529 135.252 185.186 138.043 186.681 139.289C189.698 141.804 192.025 140.307 192.672 139.77C193.32 139.234 192.24 136.805 190.344 135.405C188.448 134.007 186.479 134.166 186.479 134.166Z" fill="#9E6141"/>
</g>
<defs>
<clipPath id="clip0_250_914">
<rect width="341" height="341" fill="white"/>
</clipPath>
</defs>
</svg>
