<?xml version="1.0" standalone="no"?>
<!DOCTYPE svg PUBLIC "-//W3C//DTD SVG 20010904//EN"
 "http://www.w3.org/TR/2001/REC-SVG-20010904/DTD/svg10.dtd">
<svg version="1.0" xmlns="http://www.w3.org/2000/svg"
 width="626.000000pt" height="626.000000pt" viewBox="0 0 626.000000 626.000000"
 preserveAspectRatio="xMidYMid meet">

<g transform="translate(0.000000,626.000000) scale(0.100000,-0.100000)"
fill="#000000" stroke="none">
<path d="M2688 4450 c-205 -35 -359 -173 -399 -359 -6 -29 -17 -55 -25 -58
-22 -8 -103 -121 -137 -190 l-31 -63 -51 0 c-137 0 -237 55 -415 226 -76 73
-157 143 -181 157 -99 57 -245 74 -325 38 -53 -24 -164 -129 -219 -206 -182
-257 -288 -719 -256 -1120 6 -80 20 -190 30 -244 18 -90 18 -105 5 -153 -27
-105 -11 -164 54 -197 177 -90 597 -206 972 -270 306 -53 1014 -132 1560 -176
888 -70 1591 -17 1938 145 261 122 405 315 406 540 1 87 -8 114 -47 158 -13
14 -32 22 -54 22 -27 0 -44 11 -92 59 -98 96 -186 135 -536 236 -282 82 -541
190 -789 328 -97 54 -131 78 -138 98 -10 29 -45 49 -84 49 -21 0 -81 39 -233
151 -17 13 -40 42 -51 66 -16 36 -25 44 -70 60 -40 14 -76 40 -146 106 -56 53
-94 97 -94 108 0 39 -29 76 -72 93 -24 10 -63 37 -88 61 -25 24 -63 51 -85 62
-47 22 -66 52 -110 175 l-33 93 -48 7 c-62 8 -97 8 -156 -2z m161 -28 l44 -7
18 -64 c19 -66 108 -252 136 -283 14 -16 14 -18 -3 -24 -70 -24 -204 -79 -230
-95 -30 -18 -30 -18 -55 4 -60 55 -118 97 -169 123 -48 25 -67 28 -140 28 -51
0 -94 -5 -108 -13 -13 -7 -26 -11 -28 -8 -12 11 52 141 89 183 105 119 282
181 446 156z m-1546 -222 c27 0 11 -18 -24 -25 -46 -10 -106 -73 -115 -120
-10 -53 10 -84 71 -113 81 -38 111 -74 155 -190 22 -57 53 -123 70 -146 67
-98 215 -160 332 -138 145 27 230 106 333 312 70 139 146 233 220 273 59 31
153 30 225 -4 52 -24 180 -122 180 -137 0 -4 -15 -17 -33 -29 -18 -13 -49 -38
-70 -57 -31 -29 -37 -40 -37 -76 0 -78 54 -142 136 -160 31 -7 34 -5 68 44 19
28 51 67 70 85 l36 35 38 -31 c22 -18 70 -55 108 -84 38 -28 70 -54 72 -58 1
-3 -18 -31 -43 -61 -25 -30 -48 -63 -51 -73 -9 -28 34 -104 72 -128 24 -14 50
-21 87 -21 56 1 56 0 125 97 l33 46 42 -24 c23 -13 76 -41 117 -62 41 -22 77
-40 79 -42 3 -2 -7 -16 -21 -31 -38 -39 -68 -93 -68 -121 0 -28 69 -101 95
-101 18 0 86 64 141 133 l31 38 93 -37 c118 -45 178 -52 256 -29 69 20 71 18
-71 95 -49 27 -103 58 -119 69 l-30 20 25 11 c22 10 34 6 105 -36 255 -152
574 -282 957 -390 181 -51 262 -85 338 -142 72 -53 118 -103 101 -109 -7 -3
-25 -15 -40 -27 -15 -12 -64 -46 -109 -75 -95 -63 -99 -69 -139 -266 -15 -71
-37 -153 -49 -181 -20 -46 -29 -54 -101 -91 -100 -52 -209 -86 -349 -109 -93
-16 -164 -18 -455 -18 -531 2 -943 46 -1550 165 -151 30 -226 47 -495 111
-135 32 -502 128 -590 154 -196 58 -821 234 -830 234 -7 0 -37 195 -43 290
-32 478 97 959 323 1198 102 108 170 146 245 137 19 -3 43 -5 53 -5z m147 -61
c25 -16 99 -83 164 -149 64 -67 141 -137 171 -155 62 -40 188 -85 238 -85 18
0 37 -3 40 -7 11 -10 -32 -74 -90 -134 -73 -75 -128 -101 -223 -107 -64 -3
-83 -1 -130 20 -60 27 -130 89 -155 137 -8 17 -27 63 -41 103 -46 125 -75 161
-167 204 -72 32 -88 59 -64 108 21 45 75 85 128 95 54 11 72 6 129 -30z m1647
-34 c47 -43 47 -44 21 -45 -19 0 -34 9 -51 33 -54 72 -42 78 30 12z m103 -100
c0 -14 -5 -25 -11 -25 -12 0 -142 -61 -149 -70 -3 -4 -10 -9 -16 -11 -6 -2
-51 -42 -100 -88 -122 -115 -157 -135 -208 -115 -21 8 -22 97 -1 118 57 56
390 215 453 216 28 0 32 -3 32 -25z m149 -159 c94 -94 94 -95 67 -102 -25 -6
-37 2 -117 82 -49 49 -89 92 -89 96 0 5 12 10 40 17 3 0 48 -41 99 -93z m-83
-28 l93 -91 -65 -38 c-36 -21 -76 -47 -91 -59 -14 -11 -29 -20 -33 -20 -8 0
-116 80 -184 136 l-37 31 51 43 c40 33 143 88 169 90 3 0 46 -41 97 -92z m293
-124 c8 -7 -13 -26 -47 -43 -38 -19 -135 -118 -249 -254 -24 -29 -38 -32 -75
-18 -59 23 -84 72 -55 107 103 125 305 234 397 216 14 -3 27 -6 29 -8z m104
-123 c34 -26 82 -61 105 -77 40 -26 42 -29 26 -41 -10 -7 -21 -13 -25 -13 -4
0 -53 34 -109 76 -84 62 -100 78 -90 90 18 21 25 19 93 -35z m-28 -76 c50 -37
91 -69 93 -70 1 -1 -22 -21 -52 -45 l-55 -42 -116 63 -115 62 27 30 c41 42
106 85 118 77 6 -5 51 -38 100 -75z m249 -71 c33 -13 17 -44 -41 -80 -72 -45
-147 -117 -175 -166 -17 -30 -28 -38 -49 -38 -29 0 -49 23 -49 56 0 21 54 73
158 152 98 75 125 88 156 76z m72 -142 c34 -21 85 -48 113 -62 55 -25 53 -40
-6 -40 -33 0 -219 62 -236 79 -10 10 38 60 58 61 6 0 38 -17 71 -38z"/>
</g>
</svg>
