<svg width="30" height="30" viewBox="0 0 30 30" fill="none" xmlns="http://www.w3.org/2000/svg">
<circle cx="15" cy="15" r="15" fill="white"/>
<path d="M14.4727 8.67188H15.5273C15.6211 8.67188 15.668 8.71875 15.668 8.8125V21.1875C15.668 21.2812 15.6211 21.3281 15.5273 21.3281H14.4727C14.3789 21.3281 14.332 21.2812 14.332 21.1875V8.8125C14.332 8.71875 14.3789 8.67188 14.4727 8.67188Z" fill="#21972B"/>
<path d="M9.375 14.332H21.1875C21.2812 14.332 21.3281 14.3789 21.3281 14.4727V15.5273C21.3281 15.6211 21.2812 15.668 21.1875 15.668H8.8125C8.71875 15.668 8.67188 15.6211 8.67188 15.5273V14.4727C8.67188 14.3789 8.71875 14.332 8.8125 14.332H9.375Z" fill="#21972B"/>
</svg>
