<svg width="127" height="26" viewBox="0 0 127 26" fill="none" xmlns="http://www.w3.org/2000/svg">
<g clip-path="url(#clip0_47_937)">
<path d="M15.25 6.03538L11.8473 3.0177L15.25 0C15.25 0 14.6483 1.30644 14.6483 3.0177C14.6483 4.72895 15.25 6.03538 15.25 6.03538Z" fill="white"/>
<path d="M22.4704 3.86414L15.1877 7.43385L8.0296 3.86414L0.829956 7.43385V11.7212L29.67 7.89386" fill="white"/>
<path d="M22.6156 19.4862L28.8401 14.5364V9.73389L0 13.5428V14.5364L3.46496 17.2965L22.6156 19.4862Z" fill="white"/>
<path d="M7.49011 19.2838L16.0591 26L22.4703 20.9767L7.49011 19.2838Z" fill="white"/>
<path d="M44.3598 11.4267H41.3928V20.8846H38.4258V9.2002H43.7788C43.7788 9.2002 45.1067 9.2002 45.7707 9.2002C46.9533 9.2002 47.8662 9.60501 48.3019 10.0466C48.7169 10.4882 49.1734 11.1691 49.1734 12.0707C49.1734 12.9723 49.1734 13.4139 49.1734 14.2052V20.8846H46.2064V14.61C46.2064 14.0027 46.2064 14.8492 46.2064 12.5675C46.1856 11.6107 45.5009 11.4267 44.3598 11.4267Z" fill="white"/>
<path d="M90.8359 20.8846H87.8689V9.2002H90.8359V20.8846Z" fill="white"/>
<path d="M57.4312 18.6765H60.3982V9.21863H63.3859V20.903H58.0329C58.0329 20.903 56.705 20.903 56.041 20.903C54.8584 20.903 53.9454 20.4982 53.5097 20.0566C53.0948 19.6149 52.6383 18.9341 52.6383 18.0325C52.6383 17.1493 52.6383 16.6893 52.6383 15.898V9.23702H55.6053V15.5116C55.6053 16.1188 55.6053 15.2724 55.6053 17.5541C55.6053 18.4925 56.2485 18.6765 57.4312 18.6765Z" fill="white"/>
<path d="M98.7617 18.6765H101.729V9.21863H104.696V20.903H99.3427C99.3427 20.903 98.0148 20.903 97.3508 20.903C96.1682 20.903 95.2553 20.4982 94.8195 20.0566C94.4046 19.6149 93.9481 18.9341 93.9481 18.0325C93.9481 17.1493 93.9481 16.6893 93.9481 15.898V9.23702H96.9151V15.5116C96.9151 16.1188 96.9151 15.2724 96.9151 17.5541C96.9359 18.4925 97.5998 18.6765 98.7617 18.6765Z" fill="white"/>
<path d="M114.427 11.4267H111.46V20.8846H108.493V9.2002H113.846C113.846 9.2002 115.173 9.2002 115.837 9.2002C117.02 9.2002 117.933 9.60501 118.369 10.0466C118.784 10.4882 119.24 11.1691 119.24 12.0707C119.24 12.9723 119.24 13.4139 119.24 14.2052V20.8846H116.273V14.61C116.273 14.0027 116.273 14.8492 116.273 12.5675C116.252 11.6107 115.609 11.4267 114.427 11.4267Z" fill="white"/>
<path d="M122.207 11.4267H119.24V20.8846H116.273V9.2002H121.626C121.626 9.2002 122.954 9.2002 123.618 9.2002C124.801 9.2002 125.714 9.60501 126.149 10.0466C126.564 10.4882 127.021 11.1691 127.021 12.0707C127.021 12.9723 127.021 13.4139 127.021 14.2052V20.8846H124.054V14.61C124.054 14.0027 124.054 14.8492 124.054 12.5675C124.012 11.6107 123.348 11.4267 122.207 11.4267Z" fill="white"/>
<path d="M74.7767 18.6765H71.8097C70.6685 18.6765 69.9838 18.4925 69.9838 17.4989C69.9838 15.2172 69.9838 16.0637 69.9838 15.4564V11.4083H73.8638L74.5485 9.20025H69.9838V5.09692L67.0168 5.70414V9.20025V15.8613C67.0168 16.6341 67.0168 17.0941 67.0168 17.9957C67.0168 18.8789 67.4733 19.5782 67.8883 20.0198C68.3447 20.4614 69.2369 20.8662 70.4196 20.8662C71.1042 20.8662 74.8182 20.8662 74.8182 20.8662L74.7767 18.6765Z" fill="white"/>
<path d="M84.7359 11.4267H82.2461C81.1049 11.4267 80.4202 11.6107 80.4202 12.6044C80.4202 14.886 80.4202 14.0396 80.4202 14.6468V20.9214H77.4532V14.242C77.4532 13.4692 77.4532 13.0092 77.4532 12.1075C77.4532 11.2059 77.9097 10.5251 78.3247 10.0835C78.7396 9.64187 79.6733 9.23706 80.856 9.23706C81.5407 9.23706 85.4621 9.23706 85.4621 9.23706L84.7359 11.4267Z" fill="white"/>
</g>
<defs>
<clipPath id="clip0_47_937">
<rect width="127" height="26" fill="white"/>
</clipPath>
</defs>
</svg>
