<svg width="24" height="28" viewBox="0 0 24 28" fill="none" xmlns="http://www.w3.org/2000/svg">
<path d="M4 27.3333V15.1333C2.8 14.8222 1.83333 14.1889 1.1 13.2333C0.366667 12.2778 0 11.2 0 9.99999V0.666656H2.66667V8.66666H4V0.666656H6.66667V8.66666H8V0.666656H10.6667V9.99999C10.6667 11.2 10.3 12.2778 9.56667 13.2333C8.83333 14.1889 7.86667 14.8222 6.66667 15.1333V27.3333H4ZM17.3333 27.3333V14.6333C16.1333 14.2333 15.1667 13.3947 14.4333 12.1173C13.7 10.84 13.3333 9.38977 13.3333 7.76666C13.3333 5.78888 13.8556 4.1111 14.9 2.73332C15.9444 1.35555 17.2 0.666656 18.6667 0.666656C20.1333 0.666656 21.3889 1.36088 22.4333 2.74932C23.4778 4.13777 24 5.82132 24 7.79999C24 9.42221 23.6333 10.8667 22.9 12.1333C22.1667 13.4 21.2 14.2333 20 14.6333V27.3333H17.3333Z" fill="#21972B"/>
</svg>
