<svg width="32" height="32" viewBox="0 0 32 32" fill="none" xmlns="http://www.w3.org/2000/svg">
<path d="M8 29.3333V17.1333C6.8 16.8222 5.83333 16.1889 5.1 15.2333C4.36667 14.2778 4 13.2 4 12V2.66666H6.66667V10.6667H8V2.66666H10.6667V10.6667H12V2.66666H14.6667V12C14.6667 13.2 14.3 14.2778 13.5667 15.2333C12.8333 16.1889 11.8667 16.8222 10.6667 17.1333V29.3333H8ZM21.3333 29.3333V16.6333C20.1333 16.2333 19.1667 15.3947 18.4333 14.1173C17.7 12.84 17.3333 11.3898 17.3333 9.76666C17.3333 7.78888 17.8556 6.1111 18.9 4.73332C19.9444 3.35555 21.2 2.66666 22.6667 2.66666C24.1333 2.66666 25.3889 3.36088 26.4333 4.74932C27.4778 6.13777 28 7.82132 28 9.79999C28 11.4222 27.6333 12.8667 26.9 14.1333C26.1667 15.4 25.2 16.2333 24 16.6333V29.3333H21.3333Z" fill="white"/>
</svg>
