<svg width="20" height="20" viewBox="0 0 20 20" fill="none" xmlns="http://www.w3.org/2000/svg">
<g clip-path="url(#clip0_47_890)">
<path d="M13.75 1.875C13.75 1.37772 13.5525 0.900805 13.2008 0.549175C12.8492 0.197544 12.3723 0 11.875 0C11.3777 0 10.9008 0.197544 10.5492 0.549175C10.1975 0.900805 10 1.37772 10 1.875C10 2.37228 10.1975 2.84919 10.5492 3.20082C10.9008 3.55246 11.3777 3.75 11.875 3.75C12.3723 3.75 12.8492 3.55246 13.2008 3.20082C13.5525 2.84919 13.75 2.37228 13.75 1.875ZM6.16016 6.85547C6.54688 6.46875 7.07422 6.25 7.625 6.25C7.69922 6.25 7.77344 6.25391 7.84375 6.26172L6.625 9.92187C6.26172 11.0156 6.69141 12.2187 7.67188 12.832L11.0391 14.9375L10.0469 18.4062C9.85547 19.0703 10.2422 19.7617 10.9062 19.9531C11.5703 20.1445 12.2617 19.7578 12.4531 19.0937L13.5742 15.1719C13.8047 14.3672 13.4727 13.5078 12.7656 13.0664L10.5469 11.6797L11.7539 8.46094L11.9531 8.94141C12.5391 10.3398 13.9023 11.25 15.418 11.25H16.25C16.9414 11.25 17.5 10.6914 17.5 10C17.5 9.30859 16.9414 8.75 16.25 8.75H15.418C14.9141 8.75 14.457 8.44531 14.2656 7.98047L14.0195 7.39453C13.4492 6.02344 12.2969 4.97656 10.875 4.53906L8.97266 3.95312C8.53906 3.82031 8.08594 3.75 7.62891 3.75C6.41797 3.75 5.25391 4.23047 4.39844 5.08984L3.49219 5.99219C3.00391 6.48047 3.00391 7.27344 3.49219 7.76172C3.98047 8.25 4.77344 8.25 5.26172 7.76172L6.16406 6.85937L6.16016 6.85547ZM4.8125 13.75H2.5C1.80859 13.75 1.25 14.3086 1.25 15C1.25 15.6914 1.80859 16.25 2.5 16.25H5.21875C5.96094 16.25 6.63281 15.8125 6.93359 15.1367L7.38281 14.125L7.01172 13.8906C6.32812 13.4648 5.82031 12.8437 5.53125 12.1367L4.8125 13.75Z" fill="#21972B"/>
</g>
<defs>
<clipPath id="clip0_47_890">
<rect width="20" height="20" fill="white"/>
</clipPath>
</defs>
</svg>
