<svg width="18" height="18" viewBox="0 0 18 18" fill="none" xmlns="http://www.w3.org/2000/svg">
<path d="M8.47266 2.67188H9.52734C9.62109 2.67188 9.66797 2.71875 9.66797 2.8125V15.1875C9.66797 15.2812 9.62109 15.3281 9.52734 15.3281H8.47266C8.37891 15.3281 8.33203 15.2812 8.33203 15.1875V2.8125C8.33203 2.71875 8.37891 2.67188 8.47266 2.67188Z" fill="#21972B"/>
<path d="M3.375 8.33203H15.1875C15.2812 8.33203 15.3281 8.37891 15.3281 8.47266V9.52734C15.3281 9.62109 15.2812 9.66797 15.1875 9.66797H2.8125C2.71875 9.66797 2.67188 9.62109 2.67188 9.52734V8.47266C2.67188 8.37891 2.71875 8.33203 2.8125 8.33203H3.375Z" fill="#21972B"/>
</svg>
