<svg width="24" height="24" viewBox="0 0 24 24" fill="none" xmlns="http://www.w3.org/2000/svg">
<path d="M12.1667 0.625C5.89464 0.625 0.791748 5.72789 0.791748 12C0.791748 18.2721 5.89464 23.375 12.1667 23.375C18.4389 23.375 23.5417 18.2721 23.5417 12C23.5417 5.72789 18.4389 0.625 12.1667 0.625ZM12.2761 5.875C13.0549 5.875 13.8162 6.10593 14.4637 6.53859C15.1112 6.97125 15.6159 7.5862 15.9139 8.30568C16.2119 9.02517 16.2899 9.81687 16.138 10.5807C15.986 11.3445 15.611 12.0461 15.0604 12.5967C14.5097 13.1474 13.8081 13.5224 13.0443 13.6743C12.2805 13.8263 11.4888 13.7483 10.7693 13.4503C10.0498 13.1523 9.43487 12.6476 9.00221 12.0001C8.56955 11.3525 8.33862 10.5913 8.33862 9.8125C8.33862 8.76821 8.75347 7.76669 9.49189 7.02827C10.2303 6.28984 11.2318 5.875 12.2761 5.875ZM12.1667 21.625C10.8392 21.6255 9.52594 21.3508 8.30997 20.818C7.09401 20.2852 6.00175 19.506 5.10222 18.5297C5.58565 16.0261 9.92784 15.5 12.1667 15.5C14.4057 15.5 18.7478 16.0261 19.2313 18.5291C18.3319 19.5057 17.2396 20.285 16.0237 20.8179C14.8077 21.3507 13.4944 21.6256 12.1667 21.625Z" fill="#21972B"/>
</svg>
