<svg width="20" height="20" viewBox="0 0 20 20" fill="none" xmlns="http://www.w3.org/2000/svg">
<path d="M1 1.75C1 1.55109 1.07902 1.36032 1.21967 1.21967C1.36032 1.07902 1.55109 1 1.75 1H3.378C3.80065 0.999871 4.20906 1.1527 4.52779 1.43026C4.84652 1.70782 5.05404 2.09135 5.112 2.51L5.18 3C9.67005 3.00974 14.1471 3.48291 18.54 4.412C18.7319 4.45296 18.9002 4.56752 19.0086 4.73111C19.117 4.89469 19.157 5.09427 19.12 5.287C18.7175 7.38698 18.177 9.45814 17.502 11.487C17.4522 11.6364 17.3567 11.7664 17.2289 11.8585C17.1011 11.9506 16.9475 12.0001 16.79 12H6C5.51352 12.0002 5.03766 12.1422 4.6306 12.4086C4.22354 12.675 3.90294 13.0543 3.708 13.5H17.25C17.4489 13.5 17.6397 13.579 17.7803 13.7197C17.921 13.8603 18 14.0511 18 14.25C18 14.4489 17.921 14.6397 17.7803 14.7803C17.6397 14.921 17.4489 15 17.25 15H2.76C2.65669 15 2.55449 14.9787 2.45981 14.9374C2.36513 14.8961 2.28 14.8356 2.20977 14.7598C2.13955 14.6841 2.08573 14.5946 2.0517 14.4971C2.01766 14.3995 2.00415 14.296 2.012 14.193C2.07243 13.4095 2.36222 12.6611 2.84521 12.0411C3.3282 11.4212 3.98303 10.9572 4.728 10.707L3.626 2.716C3.61778 2.65609 3.58812 2.60119 3.54252 2.56148C3.49692 2.52176 3.43847 2.49992 3.378 2.5H1.75C1.55109 2.5 1.36032 2.42098 1.21967 2.28033C1.07902 2.13968 1 1.94891 1 1.75ZM6 17.5C6 17.8978 5.84196 18.2794 5.56066 18.5607C5.27936 18.842 4.89782 19 4.5 19C4.10218 19 3.72064 18.842 3.43934 18.5607C3.15804 18.2794 3 17.8978 3 17.5C3 17.1022 3.15804 16.7206 3.43934 16.4393C3.72064 16.158 4.10218 16 4.5 16C4.89782 16 5.27936 16.158 5.56066 16.4393C5.84196 16.7206 6 17.1022 6 17.5ZM15.5 19C15.8978 19 16.2794 18.842 16.5607 18.5607C16.842 18.2794 17 17.8978 17 17.5C17 17.1022 16.842 16.7206 16.5607 16.4393C16.2794 16.158 15.8978 16 15.5 16C15.1022 16 14.7206 16.158 14.4393 16.4393C14.158 16.7206 14 17.1022 14 17.5C14 17.8978 14.158 18.2794 14.4393 18.5607C14.7206 18.842 15.1022 19 15.5 19Z" fill="#21972B"/>
</svg>
