<svg width="20" height="20" viewBox="0 0 20 20" fill="none" xmlns="http://www.w3.org/2000/svg">
<path d="M11.6666 5.00004C11.6666 5.92052 10.9204 6.66671 9.99992 6.66671C9.07942 6.66671 8.33325 5.92052 8.33325 5.00004C8.33325 4.07957 9.07942 3.33337 9.99992 3.33337C10.9204 3.33337 11.6666 4.07957 11.6666 5.00004Z" fill="#21972B"/>
<path d="M11.6666 10C11.6666 10.9205 10.9204 11.6667 9.99992 11.6667C9.07942 11.6667 8.33325 10.9205 8.33325 10C8.33325 9.07954 9.07942 8.33337 9.99992 8.33337C10.9204 8.33337 11.6666 9.07954 11.6666 10Z" fill="#21972B"/>
<path d="M11.6666 15C11.6666 15.9205 10.9204 16.6667 9.99992 16.6667C9.07942 16.6667 8.33325 15.9205 8.33325 15C8.33325 14.0795 9.07942 13.3334 9.99992 13.3334C10.9204 13.3334 11.6666 14.0795 11.6666 15Z" fill="#21972B"/>
</svg>
